<svg xmlns="http://www.w3.org/2000/svg">
<defs>
<font id="EDBazaar" horiz-adv-x="0" >
  <font-face 
    font-family="EDBazaar"
    font-weight="400"
    font-stretch="normal"
    units-per-em="1000"
    panose-1="2 0 0 9 0 0 0 0 0 0"
    ascent="800"
    descent="-200"
    x-height="470"
    cap-height="708"
    bbox="-472 -360 1039 900"
    underline-thickness="35"
    underline-position="-74"
    unicode-range="U+000D-U+FB04"
  />
<missing-glyph horiz-adv-x="569" 
d="M30 0v628h509v-628h-509zM493 362q-1 -3 -3 -3.5t-2 -2.5q-15 -3 -31.5 -1.5t-30.5 4.5q-1 -3 1 -2.5t3 -0.5q-5 -1 -13 0t-14 4q1 3 3.5 1.5t3.5 0.5q-8 4 -15 8l-14 8q-12 13 -18.5 31.5t-13.5 36.5q-5 -2 -7.5 0.5t-6.5 1.5q-3 0 -6 -4t-5 -9t-2.5 -10t0.5 -7
q2 -6 -2.5 -9.5t-2.5 -8.5q-1 1 -2 0q0 -1 0.5 -2.5t-0.5 -3.5q-2 0 -2.5 -2.5t-2.5 -0.5q-1 -7 -7.5 -11.5l-12.5 -8.5q0 -2 2.5 -1.5t3.5 1.5q2 0 2.5 -1.5t1.5 -2.5q2 0 2 2q2 1 3.5 -1t2.5 0q1 0 1 -4q2 2 3 0.5t3 -1.5q-2 -2 -2 -3t1 -0.5t2 -0.5q1 -7 5 -14.5t8 -12.5
q-3 -4 -5 -7.5t-7 -4.5q1 -4 -1.5 -5t-3.5 -3q2 -8 -4.5 -8t-8.5 -7q4 -1 5.5 -4t5.5 -6q2 0 2.5 1t2.5 1q2 -4 5 -5q-1 -3 0.5 -5t-0.5 -4q0 -5 3 -7t8 -4q-5 -7 -12 -3t-13 2q-3 -1 -3.5 -3t-2.5 -5q-2 -2 -4.5 -3t-2.5 -4l-11 7q-7 0 -8 -6q-2 5 -8.5 8t-6.5 -8
q-3 -1 -3.5 0t-1.5 2q1 -5 4 -10.5t5 -11.5q4 -1 5.5 1t4.5 1q1 -4 3.5 -6t3.5 -6q3 1 5 3.5t6 2.5q1 -3 2 -5.5t1 -5.5q-1 -1 -2 -0.5t-3 -0.5q2 2 1 4q-3 -3 -8 -1t-7 -2q2 -5 6 -7t6 -7q9 1 10 -3q5 -1 8.5 -2.5t6.5 -2.5l-2 -6q-5 1 -8 1.5t-5 0.5q0 -3 -1 -2.5t-2 -1.5
l3 -3q-1 -1 -1 -2t-0.5 -2t-0.5 -3q4 -5 9 -3q-2 -2 -2 -3q1 -1 2 0t3 0q0 2 -1 3q2 0 4 -0.5t4 0.5q-1 -1 -1 -3q2 1 5 0.5t3 -3.5q2 0 2 2t2 1q0 -2 -1 -2.5t0 -2.5l4 2q0 -1 3 -1q-2 -1 -6 -1.5t-4 -3.5q-2 2 -3 1.5l-3 -1.5q-1 1 -0.5 2t-1.5 1q-1 0 -0.5 -1.5t1.5 -0.5
q-1 -1 -3 -0.5t-3 0.5v-6q-3 -1 -4 0.5t-4 -1.5q0 3 -1.5 2t-3.5 1q-1 -2 -2.5 -3.5t-2.5 -3.5q-2 0 -3 1.5t-3 -0.5q0 -3 1 -3h-1q0 -6 2 -6q-1 -2 0.5 -3.5t-0.5 -4.5q1 -1 2.5 -3t3.5 -3t1.5 1t0.5 2q3 -1 5 -3t6 -2q-1 -2 0 -3t1 -3q3 -1 4.5 1t4.5 3q0 -2 -1.5 -2

<glyph glyph-name="quotedblleft" unicode="&#x2018;&#x2018;" horiz-adv-x="406" 
d="M313 733q8 4 10.5 2.5t3.5 -5.5t0.5 -9t1.5 -7q-17 -11 -33 -25t-29.5 -31t-21.5 -36.5t-8 -39.5q0 -17 3.5 -29.5t12.5 -22.5q18 25 43 25q21 0 38 -15t17 -39q0 -23 -18.5 -39.5t-42.5 -16.5q-17 0 -32.5 8t-27.5 22.5t-19.5 35t-7.5 46.5q0 63 30 102.5t80 73.5z
M130 733q8 4 10.5 2.5t3.5 -5.5t0.5 -9t1.5 -7q-17 -11 -33 -25t-29.5 -31t-21.5 -36.5t-8 -39.5q0 -17 3.5 -29.5t12.5 -22.5q18 25 43 25q21 0 38 -15t17 -39q0 -23 -18.5 -39.5t-42.5 -16.5q-17 0 -32.5 8t-27.5 22.5t-19.5 35t-7.5 46.5q0 63 30 102.5t80 73.5z" />
    <glyph glyph-name="quotedblright" unicode="&#x2019;&#x2019;" horiz-adv-x="414" 
d="M239 438q-8 -5 -10.5 -3t-3.5 6t-0.5 9t-1.5 7q16 10 32.5 24.5t30 31.5t21.5 36.5t8 39.5q0 17 -3.5 29.5t-12.5 22.5q-18 -25 -43 -25q-21 0 -38 15t-17 39q0 23 18.5 39.5t42.5 16.5q17 0 32.5 -8t27.5 -22.5t19.5 -35.5t7.5 -46q0 -63 -30 -102.5t-80 -73.5zM53 438
q-8 -5 -10.5 -3t-3.5 6t-0.5 9t-1.5 7q16 10 32.5 24.5t30 31.5t21.5 36.5t8 39.5q0 17 -3.5 29.5t-12.5 22.5q-18 -25 -43 -25q-21 0 -38 15t-17 39q0 23 18.5 39.5t42.5 16.5q17 0 32.5 -8t27.5 -22.5t19.5 -35.5t7.5 -46q0 -63 -30 -102.5t-80 -73.5z" />
    <glyph glyph-name="rulakkhangyao" unicode="&#xe24;&#xe32;" horiz-adv-x="798" 
d="M52 319q0 27 16 35.5t40 17.5h-66q0 4 -0.5 8.5t-0.5 8.5q0 47 17 79t46.5 51.5t67 28t77.5 8.5q43 0 79 -10t62 -30q2 -2 5.5 -2h6.5q8 0 15.5 2.5t20.5 7.5q26 11 52.5 20t56.5 9q85 0 135.5 -42.5t50.5 -127.5v-583q-12 -3 -26.5 -5.5t-27.5 -1.5t-22 7t-9 20v595
q0 63 -27.5 90.5t-83.5 27.5q-17 0 -39 -5t-39.5 -13.5t-27.5 -20t-3 -23.5q18 -33 18 -79v-592q-12 -3 -26.5 -5.5t-27.5 -1.5t-22 7t-9 20v598q0 64 -30 91t-90 27q-74 0 -105 -34t-31 -110h64q7 0 7 -10t-7 -10q-6 0 -19 -6.5t-13 -24.5v-278q0 -17 6 -29.5t21 -12.5
q14 0 22.5 16.5t8.5 34.5q0 21 -7.5 33.5t-9.5 14.5q-2 4 6 8t13 -1q4 -4 11 -18t7 -34q0 -14 -4 -28t-12 -25.5t-20 -18.5t-29 -7q-49 0 -73.5 40t-24.5 109v174z" />
    <glyph glyph-name="lulakkhangyao" unicode="&#xe26;&#xe32;" horiz-adv-x="834" 
d="M88 319q0 27 16 35.5t40 17.5h-66q0 4 -0.5 8.5t-0.5 8.5q0 47 17 79t46.5 51.5t67 28t77.5 8.5q43 0 79 -10t62 -30q2 -2 5.5 -2h6.5q8 0 15.5 2.5t20.5 7.5q26 11 52.5 20t56.5 9q85 0 135.5 -42.5t50.5 -127.5v-583q-12 -3 -26.5 -5.5t-27.5 -1.5t-22 7t-9 20v595
q0 63 -27.5 90.5t-83.5 27.5q-15 0 -36.5 -5t-40.5 -13t-29.5 -19.5t-2.5 -24.5q18 -33 18 -79v-592q-12 -3 -26.5 -5.5t-27.5 -1.5t-22 7t-9 20v598q0 64 -30 91t-90 27q-74 0 -105 -34t-31 -110h64q7 0 7 -10t-7 -10q-6 0 -19 -6.5t-13 -24.5v-197q0 -69 -24.5 -108.5
t-73.5 -39.5q-17 0 -29 7t-20 18.5t-12 25.5t-4 28q0 20 7 34t11 18q5 5 13 1t6 -8q-2 -2 -9.5 -14.5t-7.5 -33.5q0 -18 8.5 -34.5t22.5 -16.5q15 0 21 12.5t6 29.5v256z" />
    <glyph glyph-name="copyright2" unicode="&#x3b;&#x3b;For&#x20;Education&#x20;Used&#x20;Only&#x3b;&#x3b;" horiz-adv-x="845" 
d="M40 356q0 76 29 143.5t79.5 118t117.5 79.5t144 29q76 0 143.5 -29t118 -79.5t79.5 -118t29 -143.5q0 -77 -29 -144t-79.5 -117.5t-118 -79.5t-143.5 -29q-77 0 -144 29t-117.5 79.5t-79.5 117.5t-29 144zM63 358q0 -72 27 -135t74 -110t110 -74t135 -27t135 27t110 74
t74 110t27 135t-27 135t-74 110t-110 74t-135 27t-135 -27t-110 -74t-74 -110t-27 -135zM546 458q-14 59 -45.5 89.5t-94.5 30.5q-44 0 -71 -19.5t-42.5 -51t-21 -71t-5.5 -79.5q0 -38 4.5 -76.5t19.5 -69.5t42.5 -50t73.5 -19q68 0 101.5 34.5t47.5 92.5q3 0 8 2.5t5 -2.5
v-135q0 -5 -5.5 -5.5t-9.5 5.5q-10 13 -28 13q-11 0 -21 -3q-35 -12 -55.5 -16t-40.5 -4q-45 0 -85 15.5t-70.5 45.5t-48.5 73.5t-18 99.5q0 55 16.5 99.5t46.5 75t71.5 47t91.5 16.5q16 0 34 -4t50 -17q5 -2 10 -3t10 -1q21 0 28 14q3 6 9 5t6 -5v-127q0 -5 -5 -2.5t-8 2.5
z" />
    <glyph glyph-name="registered2" unicode="&#x3b;&#x3b;Registered&#x3b;&#x3b;" horiz-adv-x="441" 
d="M20 540q0 39 14.5 72.5t39.5 59t58.5 40t72.5 14.5t72.5 -14.5t59 -40t40 -59t14.5 -72.5t-14.5 -72.5t-40 -58.5t-59 -39.5t-72.5 -14.5t-72.5 14.5t-58.5 39.5t-39.5 58.5t-14.5 72.5zM33 541q0 -36 13.5 -67.5t37 -55t55 -37t67.5 -13.5t67.5 13.5t55 37t37 55
t13.5 67.5t-13.5 67.5t-37 55t-55 37t-67.5 13.5t-67.5 -13.5t-55 -37t-37 -55t-13.5 -67.5zM116 643q-4 0 -4 5.5t4 5.5h31h9t13.5 0.5t14 0.5h9.5q16 0 31 -1.5t27 -7t19.5 -15.5t7.5 -27q0 -25 -14 -34.5t-32 -14.5q23 -2 35.5 -12.5t14.5 -36.5q1 -7 1.5 -17.5t3 -20
t7 -16.5t12.5 -7t14 7q2 2 2 -2t1 -6q-5 -5 -12.5 -7t-14.5 -2q-20 0 -32.5 12.5t-14.5 35.5l-2 28q-2 19 -9.5 28t-29.5 9h-30v-98h31q4 0 4 -5.5t-4 -5.5h-93q-4 0 -4 5.5t4 5.5h29v193h-29zM178 560h27q22 0 30.5 12.5t8.5 31.5q0 23 -14.5 31.5t-38.5 8.5q-13 0 -13 -8
v-76z" />
    <glyph glyph-name="trademark2" unicode="&#x3b;&#x3b;Trademark&#x3b;&#x3b;" horiz-adv-x="860" 
d="M232 694q-9 0 -9 -7v-353h86v-14h-201q-4 0 -4 7t4 7h60v353q0 7 -9 7h-18q-45 0 -67 -20t-33 -60q-3 0 -7 -2.5t-4 2.5v94h329v-94q0 -5 -4 -2.5t-7 2.5q-11 40 -32 60t-66 20h-18zM561 427q4 -10 8 0l97 281h125q4 0 4 -7t-4 -7h-61v-360h61q4 0 4 -7t-4 -7h-176
q-4 0 -4 7t4 7h61v354l-129 -372h-5l-131 377l-1 1v-360h61q4 0 4 -7t-4 -7h-158v14h80v360h-32v14h104z" />
    <glyph glyph-name="multiply2" unicode="&#x3b;&#x3b;Multiply&#x3b;&#x3b;" horiz-adv-x="466" 
d="M202 238l-160 160q-3 3 -1 7t5.5 7.5t7.5 5.5t7 -1l160 -160l159 159q3 3 7.5 1.5t7.5 -4.5t4.5 -7.5t-1.5 -7.5l-159 -159l160 -160q3 -3 1 -7t-5.5 -7.5t-7.5 -5.5t-7 1l-160 160l-159 -159q-3 -3 -7 -1.5t-7.5 5t-5 7.5t1.5 7z" />
    <glyph glyph-name="divide2" unicode="&#x3b;&#x3b;Divide&#x3b;&#x3b;" horiz-adv-x="490" 
d="M50 315q-5 0 -7.5 4.5t-2.5 10t2.5 10t7.5 4.5h364q5 0 7.5 -4.5t2.5 -10t-2.5 -10t-7.5 -4.5h-364zM185 213q0 22 15 37.5t37 15.5t37.5 -15.5t15.5 -37.5t-15.5 -37t-37.5 -15t-37 15t-15 37zM185 443q0 22 15 37.5t37 15.5t37.5 -15.5t15.5 -37.5t-15.5 -37t-37.5 -15
t-37 15t-15 37z" />
    <glyph glyph-name=".notdef" horiz-adv-x="569" 
d="M30 0v628h509v-628h-509zM493 362q-1 -3 -3 -3.5t-2 -2.5q-15 -3 -31.5 -1.5t-30.5 4.5q-1 -3 1 -2.5t3 -0.5q-5 -1 -13 0t-14 4q1 3 3.5 1.5t3.5 0.5q-8 4 -15 8l-14 8q-12 13 -18.5 31.5t-13.5 36.5q-5 -2 -7.5 0.5t-6.5 1.5q-3 0 -6 -4t-5 -9t-2.5 -10t0.5 -7
q2 -6 -2.5 -9.5t-2.5 -8.5q-1 1 -2 0q0 -1 0.5 -2.5t-0.5 -3.5q-2 0 -2.5 -2.5t-2.5 -0.5q-1 -7 -7.5 -11.5l-12.5 -8.5q0 -2 2.5 -1.5t3.5 1.5q2 0 2.5 -1.5t1.5 -2.5q2 0 2 2q2 1 3.5 -1t2.5 0q1 0 1 -4q2 2 3 0.5t3 -1.5q-2 -2 -2 -3t1 -0.5t2 -0.5q1 -7 5 -14.5t8 -12.5
q-3 -4 -5 -7.5t-7 -4.5q1 -4 -1.5 -5t-3.5 -3q2 -8 -4.5 -8t-8.5 -7q4 -1 5.5 -4t5.5 -6q2 0 2.5 1t2.5 1q2 -4 5 -5q-1 -3 0.5 -5t-0.5 -4q0 -5 3 -7t8 -4q-5 -7 -12 -3t-13 2q-3 -1 -3.5 -3t-2.5 -5q-2 -2 -4.5 -3t-2.5 -4l-11 7q-7 0 -8 -6q-2 5 -8.5 8t-6.5 -8
q-3 -1 -3.5 0t-1.5 2q1 -5 4 -10.5t5 -11.5q4 -1 5.5 1t4.5 1q1 -4 3.5 -6t3.5 -6q3 1 5 3.5t6 2.5q1 -3 2 -5.5t1 -5.5q-1 -1 -2 -0.5t-3 -0.5q2 2 1 4q-3 -3 -8 -1t-7 -2q2 -5 6 -7t6 -7q9 1 10 -3q5 -1 8.5 -2.5t6.5 -2.5l-2 -6q-5 1 -8 1.5t-5 0.5q0 -3 -1 -2.5t-2 -1.5
l3 -3q-1 -1 -1 -2t-0.5 -2t-0.5 -3q4 -5 9 -3q-2 -2 -2 -3q1 -1 2 0t3 0q0 2 -1 3q2 0 4 -0.5t4 0.5q-1 -1 -1 -3q2 1 5 0.5t3 -3.5q2 0 2 2t2 1q0 -2 -1 -2.5t0 -2.5l4 2q0 -1 3 -1q-2 -1 -6 -1.5t-4 -3.5q-2 2 -3 1.5l-3 -1.5q-1 1 -0.5 2t-1.5 1q-1 0 -0.5 -1.5t1.5 -0.5
q-1 -1 -3 -0.5t-3 0.5v-6q-3 -1 -4 0.5t-4 -1.5q0 3 -1.5 2t-3.5 1q-1 -2 -2.5 -3.5t-2.5 -3.5q-2 0 -3 1.5t-3 -0.5q0 -3 1 -3h-1q0 -6 2 -6q-1 -2 0.5 -3.5t-0.5 -4.5q1 -1 2.5 -3t3.5 -3t1.5 1t0.5 2q3 -1 5 -3t6 -2q-1 -2 0 -3t1 -3q3 -1 4.5 1t4.5 3q0 -2 -1.5 -2
t-1.5 -1t0.5 -1t0.5 -1q2 -2 2 0t2 2q0 -4 1 -4q2 4 3 4.5t2 4.5q1 -1 2 -3.5t3 1.5q1 -1 -0.5 -2t-0.5 -3q2 -1 2 0.5t2 1.5q-1 -3 -2.5 -4.5t-2.5 -3.5q2 -2 3 -0.5t2 2.5q0 -1 0.5 -4t-2.5 -4q0 -2 3.5 0t0.5 5q1 1 3 1t1 2q2 0 1 -2t-1 -4q1 -2 3 -3t3 -3q11 2 15 -5
h-282v-51h417v316zM263 521q-5 -2 -3 -5l12 -3t14 -2q3 0 3.5 -1.5t2.5 -2.5q10 1 15.5 -4t10.5 -11t10.5 -11.5t14.5 -5.5q13 11 27.5 18t37.5 8q6 0 14 -1t12 1q6 -1 10.5 -1.5t8.5 0.5q-4 6 -8.5 11t-9.5 10h58v61h-417v-479q1 -1 2 2q13 2 25.5 8t26.5 9q19 3 36.5 7.5
t30.5 14.5q2 5 -0.5 10.5t-6.5 11t-8.5 11t-7.5 11.5q-1 2 -0.5 3.5t-0.5 2.5l-9 22.5t-6 25.5q-1 3 -4 3t-4 2q0 5 -3 9t-4 9q-1 8 1.5 14.5t5.5 12.5q-1 3 -0.5 8t3.5 8q0 2 -1 3t0 3q3 3 5.5 6t2.5 8q2 0 2 -1t2 0q2 2 0 2.5t0 2.5q4 1 5 -4q5 0 9 4q2 -2 2 -5
q5 2 8 -1.5t5 -1.5v-1q0 -2 1 -3q-1 0 -2.5 0.5t-2.5 -0.5q4 -5 8 -3t9 0q0 1 -0.5 1.5t-0.5 1.5q4 -1 3.5 1t2.5 2t1.5 -1t-0.5 -2q8 5 14.5 11t8.5 15q0 1 1.5 0.5t1.5 1.5q1 2 -0.5 1.5t-2.5 -0.5q2 6 8 8q-2 3 -0.5 3.5t2.5 3.5q-4 2 -8.5 3.5t-4.5 3.5q-9 1 -16 2
t-17 1q-1 0 -1 -2q-5 0 -10 -0.5t-10 -1.5v3q-5 1 -6.5 -1t-5.5 0q-1 0 -1 -1.5t1 -1.5q0 -2 -1 0.5t-1 -0.5q-1 4 0 10q3 1 4 0.5t2 2.5q3 1 7 -0.5t9 -0.5q-6 3 -12 5t-11 4q-1 -4 -4.5 -13.5t-5.5 -17.5q-4 8 -5.5 17.5t-2.5 16.5q1 1 -1 1t-2 1q-2 7 0 15.5t-1 13.5
q5 8 8 14.5t3 17.5q0 4 -1 7t-1 6q0 22 16 35q4 3 9 3.5t11 3.5q2 2 3.5 4.5t3.5 5.5h70zM493 390q-6 11 -6.5 27.5t-6.5 26.5q2 9 -4.5 12t-11.5 -1q-2 4 -7.5 3.5t-5.5 4.5q-8 4 -14.5 1t-11.5 -1q-1 -1 -1.5 -4t-4.5 -3v-7.5t-1 -5.5q2 -2 6 -2q-3 -2 -1.5 -3.5t1.5 -4.5
q1 0 1 0.5t1 0.5q1 -5 4.5 -7.5t7.5 -4t7.5 -3t5.5 -4.5q8 0 13 -3q3 -9 10 -10q0 -2 -1 -2t-1 -2q-11 1 -19 5t-20 4q-3 -1 -5 -1.5t-6 0.5q0 -7 4.5 -10t10 -4t11 -1.5t8.5 -3.5q-17 2 -36.5 7t-32.5 14q-1 1 -1 3t-1 3t-2 1.5t-2 2.5t0.5 2.5t1.5 1.5q-1 3 -3.5 1
t-4.5 -2q4 5 5 13t7 10q1 6 6 10.5t9 8.5q-1 2 -3 4.5t-5 0.5q1 1 0 2.5t-2 -0.5q0 1 0.5 2.5t-0.5 2.5q-3 0 -4 -3q-2 0 -0.5 1t0.5 2q-3 -1 -4.5 -0.5t-3.5 0.5q-1 1 -0.5 2t-0.5 2q-24 -7 -18 -35q2 -14 9 -32t13 -26q4 -5 12 -9t17 -6q43 -11 81 -4v23zM493 120
q-16 1 -31.5 4t-31.5 5q-5 -5 -6.5 -12t-6.5 -12q4 -1 1.5 -3.5t-2.5 -4.5h77v23zM424 327q0 -2 -1 -2.5t0 -1.5l10 -10.5t9 -12.5q1 -3 3.5 -5t3.5 -5q1 -1 0.5 -2.5t0.5 -2.5q2 -5 5 -14.5t-2 -14.5q-3 1 -3.5 3.5t-1.5 5.5q-3 -2 -6 -6t-3 -8v-2q0 -2 -1 -3t-2 -3
q-1 -1 -0.5 -3.5t-0.5 -3.5q-2 -4 -5.5 -8.5t-7.5 -7.5q-1 6 0.5 10.5t1.5 10.5q1 1 -0.5 1t-1.5 1q-8 -4 -15 -9t-17 -7q0 9 5.5 17.5t-3.5 15.5q9 2 17.5 -2l14.5 -7q14 8 17 24q1 3 -2 3q0 2 2 4l-27 45q4 1 10 0zM265 447q2 4 2 6.5t1 6.5q-3 2 -5 5t-4 5q-2 0 -4.5 1
t-5.5 2q-3 -2 -5 -1t-6 0q0 -3 -2 -2.5t-2 -3.5q2 0 2.5 0.5t1.5 -1.5q-2 -2 -3 0q1 -3 -0.5 -4t-2.5 -3t0.5 -3t1.5 -2q1 0 3.5 0.5t2.5 -1.5q-1 0 -1.5 -1t-1.5 -1q-1 -4 1.5 -5t2.5 -4q7 1 11.5 -1t10.5 0q-1 3 -1.5 3t1.5 3q-1 1 -4 1q1 1 -0.5 2.5t-0.5 1.5l2.5 -2.5
t4.5 -1.5zM207 405q-2 2 -3.5 1t-3.5 -2v2q-2 1 -1.5 -1t-1.5 -1q-1 0 -1 2q-9 -1 -20 -6q3 -3 6 0q0 -1 -0.5 -1.5t-0.5 -1.5q4 -4 12.5 -6t18 -2.5t18.5 0t13 2.5q-2 3 -7.5 3.5t-9.5 -0.5q1 4 -1.5 2.5t-1.5 2.5q-2 0 -2 -1.5t-1 -1.5q-1 2 0 2.5t1 1.5q-2 0 -3 -0.5
t-4 -0.5q0 2 -3 5q-2 0 -3 -1t-2 -1q1 0 1 3zM383 334q-12 0 -22 -1t-16 7q3 2 9.5 4t13 2t11 -2.5t4.5 -9.5zM289 371q-6 1 -13.5 -0.5t-8.5 -10.5q5 0 5 -1q4 4 12 3q1 7 7 5q0 3 -1.5 2.5t-0.5 1.5zM169 493q0 -1 -1 -2t-1 -2q2 -5 -2.5 -14t-2.5 -15q2 9 6.5 18.5
t13.5 14.5q-3 0 -4 -1.5t-4 -1.5q0 2 2.5 3t-0.5 2q-2 -1 -3 -2t-4 0zM392 97q5 7 12 11.5t11 13.5q2 -3 2.5 1t3.5 2q-4 -9 -11 -15t-13 -13h-5zM445 361q2 -3 9.5 -4t10.5 0q-9 5 -20 4zM162 456q0 1 -2 1q-1 -4 -2 -11t0 -12zM438 361q-6 4 -12 3q2 -1 5.5 -2.5t6.5 -0.5
zM415 334q0 -1 -1 -2q0 -1 2 -1q-1 -3 -3 -1.5t-3 2.5q0 1 1 1q3 0 4 1zM361 470q3 3 5.5 7.5t7.5 7.5q-7 -4 -13 -15zM310 119q-2 -7 3 -5q0 3 -3 5zM315 440q1 3 3 4t3 4q-6 -2 -6 -8zM429 414q5 -2 3 4h-2q0 -1 -0.5 -2t-0.5 -2zM287 179q0 -2 4 -2q-1 3 1 2.5t1 1.5h-2
q0 -2 -1.5 -1.5t-2.5 -0.5zM199 247q3 0 3 4h-2q0 -1 -0.5 -1.5t-0.5 -2.5zM439 411v3q-3 1 -3 -3h3zM414 359q3 2 3 0.5t2 -1.5q0 3 -2 3t-3 1v-3zM197 252q2 0 2 1.5t1 2.5q-3 0 -3 -4zM424 357q2 4 -3 2q0 -2 3 -2zM194 261q3 0 3 3q-3 0 -3 -3zM222 503q-2 0 -4.5 0.5
t-3.5 -0.5q2 0 4.5 -0.5t3.5 0.5zM310 432q1 2 3 4t1 4q-1 -2 -2.5 -4.5t-1.5 -3.5zM452 463q-1 -2 1 -2t2 2h-3zM424 465h-3q0 -2 3 -2v2zM193 273h2q2 2 -2 2v-2zM315 114h2v2h-2v-2zM201 240h2v2h-2v-2zM162 324h2v2h-2v-2zM305 159h1q0 1 0.5 1t0.5 1h-2v-2zM297 156h1
q0 1 0.5 1t0.5 1h-2v-2zM330 166l-2 -1q1 1 2 1zM434 414q-2 0 -2 -2zM287 147q-2 -2 -2 0h2z" />
    <glyph glyph-name=".null" 
 />
    <glyph glyph-name=".null" 
 />
    <glyph glyph-name="nonmarkingreturn" unicode="&#xd;" horiz-adv-x="283" 
 />
    <glyph glyph-name="space" unicode=" " horiz-adv-x="270" 
 />
    <glyph glyph-name="exclam" unicode="!" horiz-adv-x="211" 
d="M40 41q0 22 15.5 37.5t37.5 15.5t37.5 -15.5t15.5 -37.5t-15.5 -37.5t-37.5 -15.5t-37.5 15.5t-15.5 37.5zM80 177q-6 110 -11 187.5t-9 131t-7 85.5t-5 51.5t-2.5 29.5t-0.5 18q1 20 14 33t34 13q19 0 33.5 -12t14.5 -34q0 -8 -1 -18l-3 -29.5t-4.5 -51.5l-6.5 -85.5
t-9 -131t-11 -187.5q0 -5 -4 -7.5t-9 -2.5t-9 2.5t-4 7.5z" />
    <glyph glyph-name="quotedbl" unicode="&#x22;" horiz-adv-x="231" 
d="M41 439q-6 84 -9 130.5l-4.5 70.5l-2 32t-0.5 16q0 12 4 25t21 13q15 0 20 -11.5t5 -26.5q0 -8 -0.5 -17t-2 -32.5l-4.5 -70t-9 -129.5q0 -8 -9 -8t-9 8zM147 439q-6 84 -9 130.5l-4.5 70.5l-2 32t-0.5 16q0 12 4 25t21 13q15 0 20 -11.5t5 -26.5q0 -8 -0.5 -17t-2 -32.5
l-4.5 -70t-9 -129.5q0 -8 -9 -8t-9 8z" />
    <glyph glyph-name="numbersign" unicode="#" horiz-adv-x="554" 
d="M160 257h162l70 191h-162zM486 708q1 4 6 5.5t10.5 1.5t8.5 -1.5t2 -5.5l-85 -236h129q4 0 5 -4t-0.5 -8.5t-5.5 -8t-8 -3.5h-129l-70 -191h130q4 0 5 -4t-0.5 -8.5t-5.5 -8t-8 -3.5h-130l-84 -233q-2 -4 -6.5 -6t-10 -2t-9 2t-1.5 6l84 233h-162l-84 -233q-2 -4 -6.5 -6
t-10 -2t-9 2t-1.5 6l84 233h-129q-5 0 -6 3.5t0.5 8t5.5 8.5t9 4h129l70 191h-129q-5 0 -6 3.5t0.5 8t5.5 8.5t9 4h129l85 236q1 4 6 5.5t10.5 1.5t8.5 -1.5t2 -5.5l-85 -236h162z" />
    <glyph glyph-name="dollar" unicode="$" horiz-adv-x="497" 
d="M170 600q0 4 4.5 6.5t10.5 2.5t10.5 -2.5t4.5 -6.5v-50q6 1 12.5 1.5t13.5 0.5h12t14 -2v50q0 4 4.5 6.5t10.5 2.5t10.5 -2.5t4.5 -6.5v-57q9 -3 19.5 -7.5l22.5 -9.5q9 -4 22 -4q17 0 22 16q2 7 11 7t9 -7v-138q0 -7 -9.5 -7t-9.5 7q-5 44 -27 76t-60 47v-211l57 -18
q18 -6 35 -16t29.5 -25.5t20.5 -37t8 -50.5q0 -33 -11.5 -62t-31.5 -52t-47.5 -39t-59.5 -22v-60q0 -5 -4.5 -7.5t-10.5 -2.5t-10.5 2.5t-4.5 7.5v56q-5 -1 -13 -1q-11 0 -21 0.5t-18 1.5v-57q0 -5 -4.5 -7.5t-10.5 -2.5t-10.5 2.5t-4.5 7.5v62q-12 2 -25 6l-29 9
q-9 3 -16.5 5t-13.5 2q-11 0 -16 -5q-4 -4 -7 -13q-2 -7 -12.5 -7t-10.5 7v164q0 7 9.5 7.5t10.5 -7.5q11 -57 35 -94.5t75 -52.5v248q-22 7 -42 16t-35.5 24t-24.5 36.5t-9 54.5q0 54 31 94t80 57v57zM371 119q0 47 -26 70.5t-63 36.5v-216q38 11 63.5 38t25.5 71zM252 5
v231l-52 16v-245q9 -2 18.5 -2h20.5h13zM226 533q-7 0 -13.5 -0.5t-12.5 -1.5v-193l10 -3l42 -14v210q-7 1 -13 1.5t-13 0.5zM104 437q0 -33 19 -53.5t47 -33.5v174q-28 -10 -47 -31t-19 -56z" />
    <glyph glyph-name="percent" unicode="%" horiz-adv-x="778" 
d="M200 723q32 0 62.5 -10.5t54.5 -31t38.5 -51t14.5 -70.5q0 -44 -15 -75t-39 -51t-54.5 -29.5t-61.5 -9.5q-32 0 -62.5 9.5t-54.5 29.5t-38.5 51t-14.5 75q0 40 14.5 70.5t38.5 51t54.5 31t62.5 10.5zM200 415q27 0 45 14t29 36t15.5 48.5t4.5 51.5t-4.5 49.5t-15.5 44
t-29 31.5t-45 12q-26 0 -44 -12t-29 -31.5t-16 -44t-5 -49.5t4.5 -51.5t15.5 -48.5t29 -36t45 -14zM543 725q3 6 8.5 7t10 -1t6.5 -6.5t-1 -11.5l-378 -728q-3 -6 -8.5 -7t-10 1t-6.5 6.5t1 11.5zM543 314q32 0 62.5 -10.5t54.5 -31t38.5 -51t14.5 -70.5q0 -44 -15 -75
t-39 -51t-54.5 -29.5t-61.5 -9.5q-32 0 -62.5 9.5t-54.5 29.5t-38.5 51t-14.5 75q0 40 14.5 70.5t38.5 51t54.5 31t62.5 10.5zM543 6q27 0 45 14t29 36t15.5 48.5t4.5 51.5t-4.5 49.5t-15.5 44t-29 31.5t-45 12q-26 0 -44 -12t-29 -31.5t-16 -44t-5 -49.5t4.5 -51.5
t15.5 -48.5t29 -36t45 -14z" />
    <glyph glyph-name="ampersand" unicode="&#x26;" horiz-adv-x="730" 
d="M244 437q-23 -12 -44 -32.5t-36.5 -46t-24.5 -55t-9 -58.5q0 -31 11 -71t32.5 -76t54.5 -60.5t78 -24.5q48 0 78.5 18.5t48.5 42.5zM274 629q0 -32 15 -65.5l32 -68.5q50 34 68 68t18 61q0 30 -15.5 54.5t-52.5 24.5q-30 0 -47 -23t-18 -51zM648 505q7 0 7 -10t-7 -10
q-20 0 -37.5 -5t-29.5 -23q-10 -20 -11.5 -43.5t-1.5 -51.5q0 -63 -12 -119t-47 -111q13 -24 23 -39.5t20 -29.5q19 -27 46 -27q15 0 24 9.5t14 24t7 30.5t2 30q0 8 10 8t10 -8q0 -30 -5.5 -56t-19 -45.5t-35 -31t-52.5 -11.5q-25 0 -50 9t-48 43l-10 15q-13 -13 -29.5 -26
t-39 -23t-52 -15.5t-68.5 -2.5q-47 4 -87 21.5t-68.5 46t-44.5 67.5t-16 86q0 43 15.5 78.5t42.5 65.5t62.5 54.5t74.5 47.5q-15 27 -25 59t-10 67q0 27 10 52.5t27.5 46t42.5 33t55 12.5q42 0 67.5 -28t25.5 -70q0 -45 -29 -81.5t-69 -67.5l167 -319q26 44 37 87.5t11 97.5
v30t-1.5 32t-5.5 31t-13 27q-13 17 -32.5 19.5t-43.5 3.5q-7 0 -7 10t7 10h199z" />
    <glyph glyph-name="quotesingle" unicode="'" horiz-adv-x="125" 
d="M41 439q-6 84 -9 130.5l-4.5 70.5l-2 32t-0.5 16q0 12 4 25t21 13q15 0 20 -11.5t5 -26.5q0 -8 -0.5 -17t-2 -32.5l-4.5 -70t-9 -129.5q0 -8 -9 -8t-9 8z" />
    <glyph glyph-name="parenleft" unicode="(" horiz-adv-x="249" 
d="M225 780q-74 -108 -112 -230.5t-38 -258.5q0 -131 36.5 -253.5t114.5 -236.5q-4 -1 -8 -5t-8 -7t-8.5 -3.5t-8.5 5.5q-81 121 -117 243t-36 257q0 131 35 260.5t115 238.5q4 6 8.5 5.5t9 -3.5t9 -7t8.5 -5z" />
    <glyph glyph-name="parenright" unicode=")" horiz-adv-x="261" 
d="M11 780q4 1 8.5 5t9 7t9 3.5t8.5 -5.5q80 -109 115 -238.5t35 -260.5q0 -135 -36 -257t-117 -243q-4 -6 -8.5 -5.5t-8.5 3.5t-8 7t-8 5q78 114 114.5 236.5t36.5 253.5q0 136 -38 258.5t-112 230.5z" />
    <glyph glyph-name="asterisk" unicode="*" horiz-adv-x="450" 
d="M248 684q0 -12 -5 -25l-11.5 -29.5t-12 -38t-6.5 -52.5q26 16 42 32t27 29.5t19 24.5t19 17q15 9 32 5t26 -21q9 -15 5.5 -32t-20.5 -26q-11 -6 -24.5 -8t-30.5 -5t-39 -9t-49 -20q27 -15 48.5 -21t39 -8.5l31 -4.5t24.5 -8q15 -8 20 -24.5t-5 -33.5q-8 -15 -24.5 -20.5
t-33.5 4.5q-11 6 -19 16.5l-19 24t-27 29.5t-42 32q0 -31 5.5 -52.5t12 -38t12 -29t5.5 -24.5q0 -17 -12 -29.5t-31 -12.5q-17 0 -30 11.5t-13 30.5q0 12 5 24.5l11.5 29t12 38t6.5 52.5q-26 -16 -42 -32t-27 -29.5l-19.5 -24t-18.5 -16.5q-15 -9 -32 -5t-26 21
q-9 15 -5.5 32t20.5 26q10 6 23.5 8l31 4.5t39 8.5t48.5 21q-27 15 -48.5 21t-38.5 8.5l-31 4.5t-24 8q-15 8 -20 24.5t5 33.5q8 15 24.5 20.5t33.5 -4.5q10 -6 18.5 -17l19.5 -24.5t27 -29.5t42 -32q-1 31 -6.5 52.5t-12 38l-11.5 29.5t-5 25q0 17 12 29.5t31 12.5
q17 0 30 -11.5t13 -30.5z" />
    <glyph glyph-name="plus" unicode="+" horiz-adv-x="599" 
d="M273 343v226q0 4 4 5.5t9.5 1.5t9.5 -1.5t4 -5.5v-226h225q4 0 6 -4t2 -9t-2 -9t-6 -4h-225v-226q0 -4 -4 -6t-9.5 -2t-9.5 2t-4 6v226h-225q-4 0 -6 4t-2 9t2 9t6 4h225z" />
    <glyph glyph-name="comma" unicode="," horiz-adv-x="243" 
d="M52 -169q15 11 31.5 24.5t30 30t22.5 36t9 40.5q0 32 -18 52q-7 -13 -18 -19t-25 -6q-21 0 -37.5 14t-16.5 40q0 23 18.5 40t48.5 17q20 0 35 -9t25.5 -23.5t15.5 -33t5 -37.5q0 -28 -9 -54t-25 -49.5t-36.5 -43t-43.5 -35.5q-10 -5 -10 2t-2 14z" />
    <glyph glyph-name="hyphen" unicode="-" horiz-adv-x="490" 
d="M50 315q-5 0 -7.5 4.5t-2.5 10t2.5 10t7.5 4.5h364q5 0 7.5 -4.5t2.5 -10t-2.5 -10t-7.5 -4.5h-364z" />
    <glyph glyph-name="period" unicode="." horiz-adv-x="201" 
d="M30 41q0 22 15.5 37.5t37.5 15.5t37.5 -15.5t15.5 -37.5t-15.5 -37.5t-37.5 -15.5t-37.5 15.5t-15.5 37.5z" />
    <glyph glyph-name="slash" unicode="/" horiz-adv-x="299" 
d="M29 -6q-2 -6 -7.5 -8t-10.5 -0.5t-8.5 5.5t-1.5 9l269 714q3 6 8 7.5t10 0t8 -5.5t2 -8z" />
    <glyph glyph-name="zero" unicode="0" horiz-adv-x="570" 
d="M40 355q0 69 9.5 135.5t35.5 118t71 83t117 31.5q70 0 115 -31.5t71 -83t36 -118t10 -135.5t-9 -135.5t-34.5 -118.5t-70.5 -83.5t-118 -31.5q-71 0 -116 31.5t-71 83.5t-36 118.5t-10 135.5zM139 355q0 -58 -0.5 -120t10 -113t39 -83.5t85.5 -32.5q54 0 81.5 32.5
t39 83.5t12 113t0.5 120q0 62 0.5 124t-10.5 112t-38.5 81t-84.5 31t-85 -31t-39 -81t-10.5 -112t0.5 -124z" />
    <glyph glyph-name="one" unicode="1" horiz-adv-x="470" 
d="M188 628l-18 -11.5l-35 -21.5l-41.5 -24t-39.5 -21q-4 -3 -7.5 -0.5t-5 6.5t-1 8.5t5.5 6.5l63.5 35t56 35t51 38t49.5 44h20v-703h111q8 0 8 -10t-8 -10h-307q-8 0 -8 10t8 10h111v597q0 8 -3.5 11.5t-9.5 -0.5z" />
    <glyph glyph-name="two" unicode="2" horiz-adv-x="560" 
d="M155 88q-6 -5 -4.5 -9.5t7.5 -4.5h200q60 0 85 28q26 29 32 78q1 8 10.5 8t9.5 -8v-180h-455v14l120 104t113 117.5t83.5 135t32.5 157.5q0 31 -5 62.5t-18.5 56.5t-38 40.5t-64.5 15.5q-19 0 -39.5 -4.5t-38 -15t-28.5 -27t-11 -40.5q0 -8 2.5 -13t6 -10.5t6 -12
t2.5 -15.5q0 -18 -13.5 -27.5t-30.5 -9.5q-22 0 -36 16t-14 40q0 34 18.5 60t47 43.5t62.5 26.5t66 9q45 0 85 -13t70 -37.5t47.5 -61t17.5 -83.5q0 -66 -32.5 -126.5t-81.5 -115.5t-106.5 -104.5z" />
    <glyph glyph-name="three" unicode="3" horiz-adv-x="542" 
d="M41 141q-1 6 1.5 10.5t6.5 6t7.5 0.5t4.5 -5q5 -33 20 -60t37.5 -46.5t52 -30t64.5 -10.5q45 0 73.5 17.5t44 47t21.5 66.5t6 76q0 32 -6.5 63.5t-22.5 57t-42 41t-66 15.5q-37 0 -63 -10.5t-49 -30.5q-1 2 -5 4.5t-7 5t-3.5 5.5t4.5 6q10 5 21.5 10t13.5 6
q42 18 79.5 30t65.5 31.5t44.5 52t16.5 91.5q0 22 -6 42.5t-18.5 36t-31.5 24.5t-46 9q-14 0 -32 -3t-34.5 -11t-28 -21t-11.5 -33q0 -9 3.5 -17t7 -15l7 -14t3.5 -15q0 -20 -13 -29.5t-30 -9.5q-22 0 -34 13.5t-12 36.5q0 33 15 59t40 43.5t58 26.5t69 9q31 0 64 -10
t60 -29t44.5 -47.5t17.5 -64.5t-19 -64.5t-48 -49t-63.5 -34t-65.5 -20.5q39 -2 78 -16.5t70.5 -40t51.5 -62t20 -82.5q0 -45 -20 -84.5t-53.5 -69t-77 -46.5t-89.5 -17q-75 0 -126.5 37.5t-69.5 117.5z" />
    <glyph glyph-name="four" unicode="4" horiz-adv-x="569" 
d="M84 216q-1 -2 -2 -5t-1 -7t2.5 -6.5t10.5 -2.5h229v262q12 3 26.5 5.5t27.5 1.5t22 -7t9 -20v-242h89q7 0 7 -10.5t-7 -10.5h-89v-174q-12 -3 -26.5 -5.5t-27.5 -1.5t-22 7t-9 20v154h-283q23 54 51.5 114t62 122t71 124t78.5 119q9 12 17.5 24.5t20 22.5t25.5 16.5
t33 6.5q11 0 24 -4t13 -17q0 -10 -18.5 -27.5t-56.5 -56.5q-56 -57 -98 -109.5t-74.5 -102.5t-57.5 -97t-47 -93z" />
    <glyph glyph-name="five" unicode="5" horiz-adv-x="531" 
d="M133 607q-11 5 -12 -8l-31 -209q27 35 64 51t82 16q43 0 83 -14t70.5 -41t48.5 -68t18 -95q0 -57 -18.5 -103.5t-51 -80t-76.5 -51.5t-96 -18q-24 0 -54 7.5t-57 23t-45 39t-18 55.5q0 21 15 37.5t39 16.5q23 0 37.5 -11t14.5 -33q0 -17 -5 -28.5t-5 -26.5
q0 -29 24.5 -44.5t66.5 -15.5q47 0 73.5 23.5t39.5 60t16 80.5t3 85q0 31 -5 63t-19 58.5t-39.5 43.5t-65.5 17q-113 0 -154 -124l-22 6l62 404h33q33 -32 69.5 -50.5t88.5 -18.5q47 0 83 16.5t56 52.5l20 -12q-19 -41 -42 -68t-48.5 -43.5t-51 -23.5t-49.5 -7
q-39 0 -70.5 9t-71.5 29z" />
    <glyph glyph-name="six" unicode="6" horiz-adv-x="559" 
d="M494 228q0 -59 -17.5 -104t-47.5 -76t-71 -46.5t-88 -15.5q-61 0 -104.5 26.5t-71.5 70t-41 100t-13 116.5q0 42 7 90t22.5 95t39 90.5t56 76.5t74.5 52.5t94 19.5q25 0 49 -7.5t43.5 -22.5t31.5 -36.5t12 -49.5q0 -22 -13.5 -40.5t-39.5 -18.5q-23 0 -36.5 12t-13.5 29
q0 10 3.5 17.5t8 14.5t8.5 15.5t4 19.5q0 26 -19 36t-44 10q-39 0 -67.5 -16.5t-49 -43.5t-34 -61.5t-22.5 -70.5t-14 -70.5l-9 -61.5q21 38 60 58.5t84 20.5q46 0 86 -13t69.5 -40.5t46.5 -71t17 -104.5zM394 231q0 35 -3 71.5t-15.5 66.5t-36.5 49t-66 19
q-65 0 -104 -42.5t-39 -109.5v-52.5t3.5 -60.5t11.5 -60.5t23.5 -53t40 -38t61.5 -14.5q43 0 67.5 18t37 49t16 72t3.5 86z" />
    <glyph glyph-name="seven" unicode="7" horiz-adv-x="492" 
d="M389 610q2 8 -1 13.5t-14 5.5h-208q-50 0 -76 -29q-24 -27 -30 -76q-1 -8 -10.5 -8t-9.5 8v184h387q-2 -48 -16 -120.5t-37 -152.5t-52 -160.5t-62 -144.5t-67 -104t-66 -40q-14 0 -30 10t-16 27q0 16 16 31.5l42 39.5t58.5 61t67 97t67 147t57.5 211z" />
    <glyph glyph-name="eight" unicode="8" horiz-adv-x="547" 
d="M40 164q0 39 13 70t35 56t51 44t61 34q-44 21 -70.5 43.5t-40.5 45.5t-18.5 46t-4.5 45q0 39 17.5 71t46.5 55t65.5 36t74.5 13q30 0 62.5 -9t58.5 -27.5t43 -46.5t17 -65q0 -34 -11 -60t-29.5 -46.5t-41.5 -37t-47 -29.5q30 -14 58.5 -32t51 -42t36.5 -54t14 -67
q0 -46 -18.5 -86.5t-50 -70.5t-74.5 -47t-91 -17q-38 0 -75 11t-66.5 33.5t-48 55.5t-18.5 78zM121 166q0 -31 8.5 -60t25.5 -51t43 -35.5t62 -13.5q31 0 57 14t45 37t29.5 52t10.5 59q0 35 -13 62t-36 49t-55 40t-70 36q-57 -26 -82 -76t-25 -113zM140 577q0 -34 14 -58
t36 -42.5t49.5 -32.5l54.5 -28q36 22 59 62t23 91q0 26 -6 50.5t-19.5 43t-36 29.5t-55.5 11q-58 0 -88.5 -33t-30.5 -93z" />
    <glyph glyph-name="nine" unicode="9" horiz-adv-x="559" 
d="M40 481q0 59 17.5 104t47.5 76t71 46.5t88 15.5q61 0 104.5 -26.5t71.5 -70t41 -100t13 -116.5q0 -42 -6 -90t-19.5 -95t-35.5 -90.5t-53 -76.5t-72 -52.5t-93 -19.5q-25 0 -49 7.5t-43.5 22.5t-31.5 36.5t-12 49.5q0 22 13.5 40.5t39.5 18.5q23 0 36.5 -12t13.5 -29
q0 -10 -4 -17.5t-8.5 -14.5t-8 -15.5t-3.5 -19.5q0 -26 19 -36t44 -10q39 0 66.5 16.5t46.5 43.5t30.5 61.5t19 70.5t11.5 70.5t8 61.5q-21 -38 -60 -58.5t-84 -20.5q-46 0 -86 13t-69.5 40.5t-46.5 71t-17 104.5zM140 478q0 -35 3 -71.5t15.5 -66.5t36.5 -49t66 -19
q65 0 104 42.5t39 109.5v52.5t-3.5 60.5t-11.5 60.5t-23.5 53t-40 38t-61.5 14.5q-43 0 -67.5 -18t-37 -49t-16 -72t-3.5 -86z" />
    <glyph glyph-name="colon" unicode=":" horiz-adv-x="200" 
d="M30 41q0 22 15 37.5t37 15.5t37.5 -15.5t15.5 -37.5t-15.5 -37t-37.5 -15t-37 15t-15 37zM30 385q0 22 15 37.5t37 15.5t37.5 -15.5t15.5 -37.5t-15.5 -37t-37.5 -15t-37 15t-15 37z" />
    <glyph glyph-name="semicolon" unicode=";" horiz-adv-x="243" 
d="M52 -169q15 11 31.5 24.5t30 30t22.5 36t9 40.5q0 32 -18 52q-7 -13 -18 -19t-25 -6q-21 0 -37.5 14t-16.5 40q0 23 18.5 40t48.5 17q20 0 35 -9t25.5 -23.5t15.5 -33t5 -37.5q0 -28 -9 -54t-25 -49.5t-36.5 -43t-43.5 -35.5q-10 -5 -10 2t-2 14zM52 385q0 22 15 37.5
t37 15.5t37.5 -15.5t15.5 -37.5t-15.5 -37t-37.5 -15t-37 15t-15 37z" />
    <glyph glyph-name="less" unicode="&#x3c;" horiz-adv-x="512" 
d="M132 245q-6 -2 -6 -6t6 -6l315 -130v-33l-407 169l407 169v-33z" />
    <glyph glyph-name="equal" unicode="=" horiz-adv-x="487" 
d="M413 344q4 0 6.5 -4.5t2.5 -10t-2.5 -10t-6.5 -4.5h-364q-5 0 -7 4.5t-2 10t2 10t7 4.5h364zM413 162q4 0 6.5 -4.5t2.5 -10t-2.5 -10t-6.5 -4.5h-364q-5 0 -7 4.5t-2 10t2 10t7 4.5h364z" />
    <glyph glyph-name="greater" unicode="&#x3e;" horiz-adv-x="512" 
d="M40 375v33l407 -169l-407 -169v33l315 130q6 2 6 6t-6 6z" />
    <glyph glyph-name="question" unicode="?" horiz-adv-x="391" 
d="M58 41q0 22 15 37.5t37 15.5t37.5 -15.5t15.5 -37.5t-15.5 -37t-37.5 -15t-37 15t-15 37zM99 427h20q11 -20 26 -31t41 -11q28 0 42.5 24.5t20.5 54.5t6 56v30q0 81 -24 117.5t-76 36.5q-8 0 -18 -2t-19 -6.5t-15 -12.5t-6 -19q0 -9 4 -16t9.5 -14.5t9.5 -15.5t4 -18
q0 -18 -11.5 -29.5t-34.5 -11.5q-15 0 -24 6t-14.5 15t-7.5 20t-2 21q0 22 11.5 41t30 33.5t42 22.5t47.5 8q35 0 66 -10t54 -31.5t36.5 -55t13.5 -79.5q0 -95 -36 -144t-101 -49q-23 0 -40 7t-31 21v-208l-15 -5t-9 5v250z" />
    <glyph glyph-name="at" unicode="@" horiz-adv-x="831" 
d="M515 433q0 13 -4.5 27t-13.5 26t-23 19.5t-33 7.5q-34 0 -62 -25.5t-47.5 -61.5t-30.5 -76t-11 -69q0 -16 4 -33.5t13 -32.5t23 -24.5t34 -9.5q36 0 61 27.5t42 67t28 82.5t20 75zM539 505q3 9 10.5 10.5t16.5 -0.5t17.5 -5.5t13.5 -4.5l-62 -210q-4 -13 -7 -27.5
t-3 -29.5q0 -16 9.5 -31t35.5 -15q37 0 67.5 22.5t52.5 57.5t34.5 77t12.5 82q0 58 -24.5 107t-66 84.5t-97 55t-116.5 19.5q-72 0 -135.5 -26.5t-111.5 -74.5t-76 -114.5t-28 -145.5q0 -69 24 -127.5t67.5 -101t103.5 -66.5t133 -24q72 0 136.5 23t124.5 68q7 4 10.5 2.5
t6 -7t3.5 -12t2 -11.5q-62 -47 -136.5 -73.5t-155.5 -26.5q-74 0 -139.5 25t-115 71.5t-78 113t-28.5 148.5q0 87 31.5 160t85 126t125 82.5t152.5 29.5q62 0 123 -22t109.5 -62.5t78.5 -96.5t30 -123q0 -46 -15.5 -95.5t-43 -90t-66.5 -67t-86 -26.5q-39 0 -62.5 26
t-25.5 61q-22 -40 -52.5 -61.5t-70.5 -21.5q-28 0 -52.5 9t-43 27t-29 44.5t-10.5 61.5q0 44 16.5 87t45 76.5t67 54t83.5 20.5q35 0 59 -14.5t40 -49.5z" />
    <glyph glyph-name="A" unicode="A" horiz-adv-x="681" 
d="M684 20q7 0 7 -10t-7 -10h-228q-7 0 -7 10t7 10h60l-101 267h-229l-102 -267h60q7 0 7 -10t-7 -10h-142q-7 0 -7 10t7 10h60l266 706h27l269 -706h60zM202 327q-3 -8 0 -14t12 -6h193l-99 262q-4 8 -8.5 8t-7.5 -8z" />
    <glyph glyph-name="B" unicode="B" horiz-adv-x="581" 
d="M173 390h91q33 0 57.5 12t40.5 32t24 47.5t8 59.5q0 49 -13 79.5t-38 46.5t-60 21t-79 3q-11 -1 -21 -4t-10 -15v-282zM173 43q0 -11 8 -16.5t18.5 -8t22 -2.5h18.5q92 -2 135.5 38.5t43.5 141.5q0 26 -7.5 56.5t-23.5 56.5t-42.5 43.5t-63.5 17.5h-109v-327zM12 0
q-7 0 -7 10t8 10h60v668h-60q-7 0 -7 10t7 10h60q10 0 31 0.5l44 1l45 1t36 0.5q41 0 88.5 -4t87.5 -20.5t66.5 -50.5t26.5 -93q0 -44 -12.5 -72.5t-34 -46.5t-50.5 -27.5t-61 -14.5q36 -3 70 -13.5t61 -31.5t43.5 -54.5t16.5 -82.5q0 -64 -25.5 -104t-68 -62t-96.5 -30
t-111 -8q-11 0 -32 0.5t-44 1.5t-45.5 1.5t-35.5 0.5h-60h-1z" />
    <glyph glyph-name="C" unicode="C" horiz-adv-x="690" 
d="M605 212q2 0 5.5 1.5t6.5 2.5t5.5 0.5t2.5 -4.5v-212q0 -7 -8.5 -8.5t-15.5 8.5q-15 21 -44 21q-16 0 -32 -6q-27 -9 -48.5 -15t-39.5 -9.5t-33.5 -4.5t-30.5 -1q-70 0 -133 24.5t-111 72t-76 115.5t-28 155t26 156.5t73.5 118t112.5 74t143 25.5q25 0 53.5 -6.5
t78.5 -26.5q16 -6 31 -6q16 0 27.5 4.5t16.5 16.5q5 10 14.5 8.5t9.5 -8.5v-199q0 -7 -9 -7t-11 7q-10 40 -23 75q-23 61 -75.5 91.5t-121.5 30.5q-72 0 -117.5 -32t-70.5 -83t-34 -114.5t-9 -126.5q0 -60 7.5 -121.5t31.5 -111.5t69.5 -81.5t122.5 -31.5q57 0 96 15.5
t66 43t44 66t28 83.5z" />
    <glyph glyph-name="D" unicode="D" horiz-adv-x="699" 
d="M12 0q-7 0 -7 10t7 10h60v668h-60q-7 0 -7 10t7 10h60q10 0 28.5 0.5t39 1l40 1t30.5 0.5q53 0 106.5 -6t102.5 -21.5t91 -41.5t73 -65t48.5 -93t17.5 -125q0 -98 -30.5 -166.5t-84.5 -112.5t-129 -64t-164 -20q-15 0 -36 0.5t-44.5 1.5t-46.5 1.5t-42 0.5h-60zM172 50
q0 -20 12 -27t52 -7q78 0 134 23.5t92 67t53 105t17 138.5q0 78 -14 141t-48.5 107.5t-91.5 68.5t-142 24q-40 0 -52 -7t-12 -27v-607z" />
    <glyph glyph-name="E" unicode="E" horiz-adv-x="616" 
d="M333 20q66 0 115.5 38.5t68.5 101.5l8.5 33t5.5 25q5 0 12.5 3.5t7.5 -3.5v-218h-538q-8 0 -8 10t8 10h60v668h-60q-8 0 -8 10t8 10h528v-172q0 -4 -2 -4.5t-5 0.5t-6.5 2.5t-6.5 1.5q-13 40 -28 68q-23 45 -59 64.5t-96 19.5h-145q-11 0 -15.5 -6t-4.5 -14v-278h64
q66 0 105 37t41 106q0 7 10 7t10 -7v-309q0 -7 -10 -7t-10 7q0 27 -8.5 53.5t-25 47t-41 33t-55.5 12.5h-80v-330q0 -8 4.5 -14t15.5 -6h140z" />
    <glyph glyph-name="F" unicode="F" horiz-adv-x="596" 
d="M173 390h64q66 0 105 37t41 106q0 7 10 7t10 -7v-309q0 -7 -10 -7t-10 7q0 27 -8.5 53.5t-25 47t-41 33t-55.5 12.5h-80v-350h60q7 0 7 -10t-7 -10h-220q-7 0 -7 10t7 10h60v668h-60q-8 0 -8 10t8 10h528v-172q0 -4 -2 -4.5t-5 0.5t-6.5 2.5t-6.5 1.5q-13 40 -28 68
q-23 45 -59 64.5t-96 19.5h-145q-11 0 -15.5 -6t-4.5 -14v-278z" />
    <glyph glyph-name="G" unicode="G" horiz-adv-x="715" 
d="M608 28q-5 10 -11.5 15t-19.5 5q-9 0 -16.5 -4.5t-12.5 -6.5q-40 -23 -83.5 -37.5t-93.5 -14.5q-79 0 -143 24.5t-109 74t-69.5 123t-24.5 171.5q0 83 26.5 148t73 109.5t110 67.5t138.5 23q28 0 53.5 -6t47 -13.5l39 -13.5t31.5 -6q16 0 27.5 4.5t16.5 16.5
q5 10 14.5 8.5t9.5 -8.5v-199q0 -7 -9 -7t-11 7q-7 42 -24.5 78t-45.5 62.5t-65.5 41.5t-84.5 15q-74 0 -119.5 -27.5t-70.5 -73t-34 -104.5t-9 -123q0 -40 3 -83.5t11.5 -85t24.5 -78.5t42 -65t63 -44.5t88 -16.5q35 0 66 12t54.5 33.5t37.5 52t14 67.5v84h-85q-7 0 -7 10
t7 10h230q7 0 7 -10t-7 -10h-60v-226q0 -4 -2 -4.5t-5 0.5t-6.5 2.5t-6.5 1.5z" />
    <glyph glyph-name="H" unicode="H" horiz-adv-x="699" 
d="M483 384q11 0 15.5 6t4.5 13v285h-60q-7 0 -7 10t7 10h220q6 0 6 -10t-6 -10h-60v-668h60q6 0 6 -10t-7 -10h1h-220q-7 0 -7 10t7 10h60v344h-311q-11 0 -15.5 -6t-4.5 -14v-324h60q7 0 7 -10t-7 -10h-220q-7 0 -7 10t7 10h60v668h-60q-7 0 -7 10t7 10h220q7 0 7 -10
t-7 -10h-60v-304h311z" />
    <glyph glyph-name="I" unicode="I" horiz-adv-x="269" 
d="M172 20h60q7 0 7 -10t-7 -10h-220q-7 0 -7 10t7 10h60v668h-60q-7 0 -7 10t7 10h220q7 0 7 -10t-7 -10h-60v-668z" />
    <glyph glyph-name="J" unicode="J" horiz-adv-x="396" 
d="M299 182q-2 -45 -11 -81t-28.5 -62t-50.5 -40t-76 -14q-29 0 -55.5 7t-47 21t-33 35.5t-12.5 50.5q0 27 18.5 48t49.5 21q20 -1 38 -12t18 -37q0 -14 -4 -22.5t-9 -14.5t-9 -12t-4 -15q0 -17 14 -33.5t37 -16.5q37 0 51 27t14 63v593h-60q-7 0 -7 10t7 10h220q7 0 7 -10
t-7 -10h-60v-506z" />
    <glyph glyph-name="K" unicode="K" horiz-adv-x="645" 
d="M172 20h60q7 0 7 -10t-7 -10h-220q-7 0 -7 10t7 10h60v668h-60q-7 0 -7 10t7 10h220q7 0 7 -10t-7 -10h-60v-310l300 310h-50q-7 0 -7 10t7 10h130q7 0 7 -10t-7 -10h-50l-254 -270l340 -398h60q7 0 7 -10t-7 -10h-243q-7 0 -7 10t7 10h60l-279 327q-5 6 -9.5 7t-4.5 -7
v-327z" />
    <glyph glyph-name="L" unicode="L" horiz-adv-x="591" 
d="M172 40q0 -8 4.5 -14t15.5 -6h119q46 0 80.5 15t59.5 41.5t42 62.5t28 79q5 0 12.5 3.5t7.5 -3.5v-218h-529q-7 0 -7 10t7 10h60v668h-60q-7 0 -7 10t7 10h220q7 0 7 -10t-7 -10h-60v-648z" />
    <glyph glyph-name="M" unicode="M" horiz-adv-x="775" 
d="M564 708h174q7 0 7 -10t-7 -10h-60v-668h60q7 0 7 -10t-7 -10h-219q-7 0 -7 10t7 10h60v668l-240 -696h-4l-237 681q-2 8 -5 10v-663h60q7 0 7 -10t-7 -10h-141q-7 0 -7 10t7 10h60v668h-60q-7 0 -7 10t7 10h180l180 -523q2 -7 6 -7t6 7z" />
    <glyph glyph-name="N" unicode="N" horiz-adv-x="625" 
d="M103 20h60q7 0 7 -10t-7 -10h-141q-7 0 -7 10t7 10h60v668h-60q-7 0 -7 10t7 10h163l315 -508q5 -8 11 -7t6 7v488h-60q-7 0 -7 10t7 10h141q7 0 7 -10t-7 -10h-60v-696h-33l-402 642v-614z" />
    <glyph glyph-name="O" unicode="O" horiz-adv-x="767" 
d="M25 355q0 90 26.5 159t73 116.5t109.5 71.5t137 24q72 0 135.5 -24t110 -71.5t73.5 -116.5t27 -159t-26.5 -159.5t-73 -116t-109.5 -70.5t-137 -24q-73 0 -136.5 24t-110 71t-73 116t-26.5 159zM139 355q0 -69 7.5 -132.5t31.5 -112t70 -77t123 -28.5q75 0 120.5 28.5
t70.5 77t33 112t8 132.5t-8 132.5t-32.5 112t-70.5 77.5t-121 29q-73 0 -118.5 -29t-70.5 -77.5t-34 -112t-9 -132.5z" />
    <glyph glyph-name="P" unicode="P" horiz-adv-x="573" 
d="M236 691q-40 0 -52 -7t-12 -27v-304q21 -3 40 -4t39 -1q42 0 71.5 13.5t49 38t28.5 58t9 74.5q0 81 -42.5 120t-130.5 39zM73 708q12 0 34.5 0.5l47 1t46 1t31.5 0.5q47 0 98.5 -7t94 -27t70.5 -57t28 -98q0 -60 -29.5 -97.5t-72.5 -59.5t-90.5 -30t-84.5 -8
q-19 0 -38 1.5t-36 3.5v-312h60q7 0 7 -10t-7 -10h-220q-7 0 -7 10t7 10h60v668h-60q-7 0 -7 10t7 10h61z" />
    <glyph glyph-name="Q" unicode="Q" horiz-adv-x="767" 
d="M139 355q0 -68 7.5 -131t31.5 -112t70 -78t123 -29q75 0 120.5 29t70 77.5t33 112t8.5 131.5q0 69 -8 132.5t-33 112t-70.5 77.5t-120.5 29q-74 0 -119.5 -29.5t-70.5 -78t-33.5 -112t-8.5 -131.5zM689 -183q-43 1 -77.5 -0.5t-60.5 1.5q-59 6 -102 28.5t-77 80.5
q-14 24 -39 44t-54 28q-56 12 -102.5 41.5t-80.5 74.5t-52.5 105.5t-18.5 134.5q0 92 27 161.5t73.5 116t110 70t135.5 23.5t135 -23.5t110 -70t74 -116t27 -161.5q0 -90 -27 -159t-73.5 -116t-109.5 -71t-136 -24h-14t-14 1q22 -18 45 -25t46.5 -11t47 -9.5t44.5 -20.5
q15 -11 28 -24.5t26.5 -26t29.5 -22t36 -13.5q18 -3 43 -3q0 -2 2 -4.5l3.5 -4.5t0.5 -3.5t-6 -1.5z" />
    <glyph glyph-name="R" unicode="R" horiz-adv-x="649" 
d="M12 688q-7 0 -7 10t7 10h60q9 0 29.5 0.5t44 1l45 1t31.5 0.5q51 0 100.5 -5.5t88 -22.5t62.5 -50.5t24 -88.5q0 -41 -12 -68t-32 -45t-47.5 -28.5t-57.5 -18.5q75 -8 117.5 -43.5t50.5 -118.5q5 -35 5 -69t9 -70q6 -26 19 -47t43 -21q25 0 48 21q4 4 5.5 2.5t2 -5.5
t0.5 -8t1 -6q-17 -17 -41.5 -23.5t-45.5 -6.5q-66 0 -102 41.5t-41 115.5l-6 91q-5 64 -38 98.5t-104 34.5h-99v-350h60q7 0 7 -10t-7 -10h-220q-7 0 -7 10t7 10h60v668h-60zM236 691q-40 0 -52 -7t-12 -27v-267h87q36 0 61.5 12.5t41.5 33.5t23.5 49t7.5 59q0 76 -39 111.5
t-118 35.5z" />
    <glyph glyph-name="S" unicode="S" horiz-adv-x="604" 
d="M482 528q0 -7 -10 -7t-10 7q-3 37 -17.5 69.5t-39 56.5t-57.5 38t-74 14q-29 0 -58 -7.5t-52.5 -23t-38.5 -40.5t-15 -59q0 -29 12.5 -50.5t33 -38t46 -28t51.5 -19.5l169 -54q53 -17 87.5 -55.5t34.5 -110.5q0 -50 -20 -92.5t-54.5 -74.5t-80.5 -50t-98 -18
q-24 0 -44 1.5t-39.5 5t-40 9t-44.5 13.5q-12 4 -22 6.5t-18 2.5q-13 0 -20 -7q-6 -6 -10 -16q-1 -4 -5 -6t-8 -2t-7 2t-3 6v214q0 7 9 7.5t11 -7.5q9 -48 25.5 -86.5t45 -65.5t70 -42t100.5 -15q34 0 66 10t56.5 29.5t39 48.5t14.5 67q0 34 -11 58t-29.5 41t-42.5 28.5
t-50 19.5l-114 35q-31 10 -60.5 21t-52.5 30t-37 48.5t-14 75.5q0 44 17 82.5t46.5 66.5t69.5 44t85 16q25 0 54 -6t75 -27q13 -6 28 -6q21 0 29 21q3 8 12.5 8t9.5 -8v-180z" />
    <glyph glyph-name="T" unicode="T" horiz-adv-x="646" 
d="M388 686q-13 0 -17 -5.5t-4 -15.5v-645h75q7 0 7 -10t-7 -10h-250q-7 0 -7 10t7 10h75v645q0 10 -4 15.5t-17 5.5h-28q-81 0 -122 -38t-61 -112q-3 0 -6.5 -1.5t-6.5 -2.5t-5 -0.5t-2 4.5v172h601v-172q0 -4 -2 -4.5t-5 0.5t-6.5 2.5t-6.5 1.5q-10 37 -24.5 65t-35.5 47
t-50.5 28.5t-69.5 9.5h-28z" />
    <glyph glyph-name="U" unicode="U" horiz-adv-x="665" 
d="M232 708q7 0 7 -10t-7 -10h-60v-468q0 -45 6.5 -84t24.5 -68t50 -46t83 -17q46 0 84.5 11.5t66.5 37t44 65.5t16 98v471h-60q-7 0 -7 10t7 10h141q7 0 7 -10t-7 -10h-60v-476q0 -59 -17.5 -102t-50.5 -71t-79 -41t-103 -13t-102.5 13.5t-77.5 42.5t-49 74t-17 109v464
h-60q-7 0 -7 10t7 10h220z" />
    <glyph glyph-name="V" unicode="V" horiz-adv-x="678" 
d="M378 143q7 -19 14 0l207 545h-60q-7 0 -7 10t7 10h142q7 0 7 -10t-7 -10h-60l-263 -696h-31l-265 696h-60q-7 0 -7 10t7 10h227q7 0 7 -10t-7 -10h-60z" />
    <glyph glyph-name="W" unicode="W" horiz-adv-x="1029" 
d="M946 688h-60q-7 0 -7 10t7 10h146q7 0 7 -10t-7 -10h-60l-253 -696h-35l-166 464l-168 -464h-39l-249 696h-60q-7 0 -7 10t7 10h226q7 0 7 -10t-7 -10h-60l195 -548q7 -19 14 0l126 350l-71 198h-60q-7 0 -7 10t7 10h226q7 0 7 -10t-7 -10h-60l195 -548q7 -19 14 0z" />
    <glyph glyph-name="X" unicode="X" horiz-adv-x="697" 
d="M367 401l233 -381h60q7 0 7 -10t-7 -10h-241q-7 0 -7 10t7 10h60l-166 272q-8 12 -13 12t-13 -12l-163 -272h70q7 0 7 -10t-7 -10h-166q-7 0 -7 10t7 10h70l189 315l-215 353h-60q-7 0 -7 10t7 10h241q7 0 7 -10t-7 -10h-61l149 -245q8 -12 13 -12t13 12l150 245h-70
q-7 0 -7 10t7 10h166q7 0 7 -10t-7 -10h-72z" />
    <glyph glyph-name="Y" unicode="Y" horiz-adv-x="678" 
d="M392 336v-316h60q7 0 7 -10t-7 -10h-220q-7 0 -7 10t7 10h60v279l-220 389h-60q-7 0 -7 10t7 10h235q7 0 7 -10t-7 -10h-60l179 -314q11 -19 21 0l169 314h-60q-7 0 -7 10t7 10h145q7 0 7 -10t-7 -10h-60z" />
    <glyph glyph-name="Z" unicode="Z" horiz-adv-x="619" 
d="M155 42q-6 -10 -2.5 -16t13.5 -6h183q45 0 80 17t60 44.5t40 63t20 73.5q5 0 12.5 3.5t7.5 -3.5v-218h-544l399 666q6 10 2.5 16t-13.5 6h-119q-40 0 -71 -7.5t-54 -28.5q-44 -41 -65 -117q-3 0 -6.5 -1.5t-6.5 -2.5t-5 -0.5t-2 4.5v173h475z" />
    <glyph glyph-name="bracketleft" unicode="[" horiz-adv-x="175" 
d="M165 -250q5 0 7.5 -4.5t2.5 -10t-2.5 -10t-7.5 -4.5h-125v987h125q5 0 7.5 -4.5t2.5 -10t-2.5 -10t-7.5 -4.5h-75q-10 0 -10 -10v-909q0 -10 10 -10h75z" />
    <glyph glyph-name="backslash" unicode="\" horiz-adv-x="299" 
d="M1 708q-2 4 1.5 8t8.5 5.5t10 0t8 -7.5l269 -714q1 -5 -2 -9t-8 -5.5t-10.5 0.5t-7.5 8z" />
    <glyph glyph-name="bracketright" unicode="]" horiz-adv-x="210" 
d="M95 -250q10 0 10 10v909q0 10 -10 10h-75q-5 0 -7.5 4.5t-2.5 10t2.5 10t7.5 4.5h125v-987h-125q-5 0 -7.5 4.5t-2.5 10t2.5 10t7.5 4.5h75z" />
    <glyph glyph-name="asciicircum" unicode="^" horiz-adv-x="252" 
d="M53 520h-33l91 218l91 -218h-32l-54 130q-2 4 -5 4t-5 -4z" />
    <glyph glyph-name="underscore" unicode="_" horiz-adv-x="491" 
d="M15 -29q-5 0 -7.5 4.5t-2.5 10t2.5 10t7.5 4.5h460q5 0 7.5 -4.5t2.5 -10t-2.5 -10t-7.5 -4.5h-460z" />
    <glyph glyph-name="grave" unicode="`" horiz-adv-x="272" 
d="M198 549l-102 74.5t-53 40.5t-20 20t-3 13q0 14 9.5 24.5t24.5 10.5q11 0 19 -5.5t23.5 -24.5l44 -55.5t81.5 -97.5h-24v0z" />
    <glyph glyph-name="a" unicode="a" horiz-adv-x="485" 
d="M296 274q-5 -10 -30 -24t-80 -33q-20 -7 -33 -18.5t-20.5 -25.5t-10 -30.5t-2.5 -32.5q0 -17 4 -34.5t13 -31t23 -22t34 -8.5q27 0 46.5 12.5t32 32.5t18 45t5.5 51v119zM462 28q8 5 9.5 -4t-1.5 -13q-16 -12 -34 -18.5t-41 -6.5q-77 0 -99 79q-18 -42 -51.5 -60.5
t-81.5 -18.5q-22 0 -45 6.5t-41.5 21.5t-30 38.5t-11.5 58.5q0 37 13.5 60t35.5 37.5t50 23l56 17.5q12 4 28 8.5t31 12t27.5 18.5t18.5 28q2 5 2.5 12t0.5 23q0 18 -3 37t-11.5 34t-23 24.5t-38.5 9.5q-12 0 -25.5 -2t-25 -7t-19.5 -15t-8 -25q0 -14 5.5 -27t5.5 -29
q0 -20 -13.5 -28.5t-29.5 -8.5q-22 0 -34.5 13t-12.5 37q0 30 14.5 51t37 34.5t50 19.5t53.5 6q32 0 61 -8.5t51.5 -25.5t35.5 -43t13 -61v-282q0 -17 6 -30t29 -13q13 0 24 4.5t22 11.5z" />
    <glyph glyph-name="b" unicode="b" horiz-adv-x="545" 
d="M404 238q0 27 -3 62t-15 66t-35 52t-62 21t-65 -17t-41 -45t-21.5 -63.5t-6.5 -72.5q0 -33 4 -74t17.5 -77t39.5 -60t69 -24q37 0 60 19t36 51t18 74t5 88zM155 370q18 45 54 67.5t84 22.5q42 0 79 -13.5t64.5 -41.5t43 -71t15.5 -102q0 -121 -57 -183.5t-150 -62.5
q-42 0 -79 23.5t-54 70.5v-80q-12 -3 -26.5 -5.5t-27.5 -1.5t-22 7t-9 20v666q0 8 -3.5 11t-8.5 3h-36q-7 0 -7 10t7 10h76q8 0 18 -0.5t18.5 -5t14.5 -15t6 -31.5v-298z" />
    <glyph glyph-name="c" unicode="c" horiz-adv-x="483" 
d="M396 122q1 6 4 6t5.5 -2.5t5 -5.5t4.5 -4q-18 -58 -58.5 -94t-105.5 -36q-48 0 -89.5 14.5t-72 44t-47.5 74.5t-17 107q0 56 16.5 102t46.5 79t73 51t96 18q24 0 52.5 -7t52.5 -22t40 -37.5t16 -53.5q0 -24 -13 -47t-39 -23q-8 0 -17 2t-17.5 7t-14 13t-5.5 20
q0 11 3 19.5t7 16t7 15.5t3 17q0 15 -7.5 26t-18.5 18.5t-24 11.5t-25 4q-49 0 -76 -21.5t-39.5 -55t-15 -75t-2.5 -81.5q0 -32 2.5 -70t15 -70.5t38.5 -54.5t72 -22q21 0 42 5t40 17.5t35 35t27 58.5z" />
    <glyph glyph-name="d" unicode="d" horiz-adv-x="555" 
d="M121 238q0 -46 5 -88t18 -74t36 -51t60 -19q43 0 69 24t39.5 60t17.5 77t4 74q0 37 -6.5 72.5t-21.5 63.5t-41 45t-65 17t-62 -21t-35 -52t-15 -66t-3 -62zM370 668q0 21 6 31.5t14.5 15t18.5 5t18 0.5h76q7 0 7 -10t-7 -10h-36q-5 0 -8.5 -3t-3.5 -11v-666q0 -14 -9 -20
t-22 -7t-27.5 1.5t-26.5 5.5v80q-17 -47 -54 -70.5t-79 -23.5q-93 0 -150 62.5t-57 183.5q0 59 15.5 102t43 71t64.5 41.5t79 13.5q48 0 84 -22.5t54 -67.5v298z" />
    <glyph glyph-name="e" unicode="e" horiz-adv-x="487" 
d="M425 109q-13 -34 -31.5 -57.5t-40.5 -38t-46.5 -21t-48.5 -6.5q-47 0 -89.5 13.5t-74.5 43t-50.5 76t-18.5 112.5q0 57 16.5 102.5t46 77t69 48t85.5 16.5q40 0 74 -13t59.5 -40.5t40 -69t16.5 -98.5h-308v-27q0 -41 5 -80.5t19.5 -70.5t41 -50.5t69.5 -19.5q21 0 41 4
t39 16t35.5 33t30.5 55q2 6 5 6t6 -2t5 -5t4 -4zM332 274v37q0 69 -24 106.5t-75 37.5q-29 0 -49.5 -14t-33.5 -38.5t-19.5 -57.5t-6.5 -71h208z" />
    <glyph glyph-name="f" unicode="f" horiz-adv-x="312" 
d="M307 464q7 0 7 -10t-7 -10h-123v-444q-12 -3 -26.5 -5.5t-27.5 -1.5t-22 7t-9 20v424h-77q-7 0 -7 10t7 10h77v32q0 111 50 170.5t141 59.5q19 0 41 -5.5t40.5 -17t30.5 -28.5t12 -41q0 -20 -11.5 -37.5t-34.5 -17.5q-15 0 -31.5 7t-16.5 29q0 12 3 20t6.5 14t6.5 12
t3 15q0 21 -17.5 28.5t-37.5 7.5q-28 0 -47 -11.5t-31 -31.5t-17 -46.5t-5 -57.5v-101h123z" />
    <glyph glyph-name="g" unicode="g" horiz-adv-x="465" 
d="M98 -26q-6 0 -19 4.5t-26 15t-23 28t-10 43.5q0 40 24 68.5t67 51.5q-27 20 -40.5 53t-13.5 72q0 42 16 73t41 51.5t56.5 30.5t63.5 10q68 0 124 -48q14 23 36 35.5t50 12.5q20 0 38 -10t18 -35q0 -14 -9.5 -26t-25.5 -12q-18 0 -25 8t-10.5 18t-7 18t-14.5 8
q-12 0 -22.5 -9t-16.5 -19q16 -17 26.5 -48t10.5 -60q0 -37 -16.5 -66.5t-42 -50t-57 -31.5t-61.5 -11q-52 0 -101 26l-23 -12.5t-22 -14.5t-16 -19t-6 -26q0 -27 19 -37.5t45 -10.5h177q34 0 62 -12.5t48.5 -33t31.5 -46t11 -51.5q0 -42 -15.5 -78t-47.5 -62.5t-80 -41.5
t-112 -15q-40 0 -78.5 6t-68.5 20t-48 37t-18 57q0 50 31.5 83.5t79.5 55.5zM124 -30q-31 -20 -52.5 -45t-21.5 -66q0 -28 8.5 -50t28.5 -37t52.5 -23t80.5 -8q40 0 75 8t60.5 24t40 39.5t14.5 55.5q0 51 -31.5 76.5t-82.5 25.5h-172zM330 313q1 64 -18.5 103t-77.5 39
q-30 0 -50 -10t-31.5 -29t-16.5 -45t-5 -58q0 -65 22.5 -104.5t81.5 -39.5q29 0 47.5 10.5t29 29.5t14.5 45.5t4 58.5z" />
    <glyph glyph-name="h" unicode="h" horiz-adv-x="539" 
d="M155 0q-12 -3 -26.5 -5.5t-27.5 -1.5t-22 7t-9 20v666q0 8 -3.5 11t-8.5 3h-36q-7 0 -7 10t7 10h76q8 0 18 -0.5t18.5 -5t14.5 -15t6 -31.5v-310q20 55 62 83.5t98 28.5q30 0 59 -8.5t51 -25t35.5 -41.5t13.5 -59v-336q-12 -3 -26.5 -5.5t-27.5 -1.5t-22 7t-9 20v341
q0 35 -19.5 62t-58.5 27q-63 0 -105 -45t-51 -134v-271z" />
    <glyph glyph-name="i" unicode="i" horiz-adv-x="232" 
d="M62 658q0 22 15 37.5t37 15.5t37.5 -15.5t15.5 -37.5t-15.5 -37t-37.5 -15t-37 15t-15 37zM165 0q-12 -3 -26.5 -5.5t-27.5 -1.5t-22 7t-9 20v410q0 8 -3.5 11t-8.5 3h-36q-7 0 -7 10t7 10h76q8 0 18 -0.5t18.5 -5t14.5 -15t6 -31.5v-412z" />
    <glyph glyph-name="j" unicode="j" horiz-adv-x="234" 
d="M64 658q0 22 15 37.5t37 15.5t37.5 -15.5t15.5 -37.5t-15.5 -37t-37.5 -15t-37 15t-15 37zM80 430q0 8 -3.5 11t-8.5 3h-36q-7 0 -7 10t7 10h76q8 0 18 -0.5t18.5 -5t14.5 -15t6 -31.5v-471q0 -43 -5 -83.5t-21 -72t-45.5 -51t-78.5 -19.5q-18 0 -37 6.5t-35.5 18
t-27 28.5t-10.5 38q0 19 11.5 33.5t33.5 14.5q15 0 27 -9t12 -26q0 -15 -5 -22t-5 -22q0 -17 12 -28t30 -11q19 0 30.5 8t17.5 21.5t8.5 29.5t2.5 33v602z" />
    <glyph glyph-name="k" unicode="k" horiz-adv-x="496" 
d="M155 0q-12 -3 -26.5 -5.5t-27.5 -1.5t-22 7t-9 20v666q0 8 -3.5 11t-8.5 3h-36q-7 0 -7 10t7 10h76q8 0 18 -0.5t18.5 -5t14.5 -15t6 -31.5v-396l196 171h-69q-7 0 -7 10t7 10h155q7 0 7 -10t-7 -10h-58l-154 -138l196 -265q5 -7 13 -13.5t25 -6.5h20q7 0 7 -10t-7 -10
h-114q-17 0 -25 6.5t-13 13.5l-157 217q-4 5 -9.5 5.5t-5.5 -5.5v-237z" />
    <glyph glyph-name="l" unicode="l" horiz-adv-x="220" 
d="M155 0q-12 -3 -26.5 -5.5t-27.5 -1.5t-22 7t-9 20v666q0 8 -3.5 11t-8.5 3h-36q-7 0 -7 10t7 10h76q8 0 18 -0.5t18.5 -5t14.5 -15t6 -31.5v-668z" />
    <glyph glyph-name="m" unicode="m" horiz-adv-x="816" 
d="M456 369q42 101 162 101q133 0 133 -149v-321q-12 -3 -26.5 -5.5t-27.5 -1.5t-22 7t-9 20v358q0 29 -16.5 50.5t-49.5 21.5t-59.5 -14.5t-45 -38.5t-28 -55t-9.5 -65v-277q-12 -3 -26.5 -5.5t-27.5 -1.5t-22 7t-9 20v350q0 15 -4 29t-12 25.5t-20.5 18.5t-29.5 7
q-33 0 -59.5 -17t-45 -44t-28 -60.5t-9.5 -67.5v-261q-12 -3 -26.5 -5.5t-27.5 -1.5t-22 7t-9 20v410q0 8 -3.5 11t-8.5 3h-36q-7 0 -7 10t7 10h76q8 0 18 -0.5t18.5 -5t14.5 -15t6 -31.5v-58q19 52 57 84t98 32q58 0 93 -28t43 -73z" />
    <glyph glyph-name="n" unicode="n" horiz-adv-x="542" 
d="M392 361q0 35 -18.5 62t-57.5 27q-32 0 -60 -16t-48 -42t-31.5 -59t-11.5 -68v-265q-12 -3 -26.5 -5.5t-27.5 -1.5t-22 7t-9 20v410q0 8 -3.5 11t-8.5 3h-36q-7 0 -7 10t7 10h76q8 0 18 -0.5t18.5 -5t14.5 -15t6 -31.5v-60q21 51 62.5 84.5t101.5 33.5q30 0 57 -8.5
t47.5 -25t32 -41.5t11.5 -59v-336q-12 -3 -26.5 -5.5t-27.5 -1.5t-22 7t-9 20v341z" />
    <glyph glyph-name="o" unicode="o" horiz-adv-x="538" 
d="M25 231q0 60 19 105.5t51 76.5t74 47t88 16q42 0 83.5 -16t74.5 -47t53 -76.5t20 -105.5q0 -62 -18.5 -108t-50 -76.5t-73.5 -45.5t-89 -15q-45 0 -87 15t-74.5 45.5t-51.5 76.5t-19 108zM124 231q0 -35 3.5 -74.5t17 -73t40 -55.5t72.5 -22q44 0 70 20t40 52t18 72t4 81
q0 32 -4 71.5t-17.5 73.5t-39.5 57t-71 23t-71 -20t-39 -52.5t-17.5 -72.5t-5.5 -80z" />
    <glyph glyph-name="p" unicode="p" horiz-adv-x="555" 
d="M414 223q0 46 -5 88.5t-18 74.5t-36 51.5t-60 19.5q-43 0 -69 -24.5t-39.5 -60.5t-17.5 -77.5t-4 -74.5q0 -37 6.5 -75t21.5 -68.5t41 -50t65 -19.5t62 23.5t35 57t15 71t3 64.5zM165 -260q0 -14 -9 -20t-22 -6.5t-27.5 2t-26.5 5.5v715q0 8 -3.5 11t-8.5 3h-36
q-7 0 -7 10t7 10h76q8 0 18 -0.5t18.5 -5t14.5 -16t6 -32.5v-33q19 49 56 71.5t79 22.5q93 0 149 -62.5t56 -183.5q0 -59 -15.5 -104.5t-43 -76.5t-64.5 -47t-79 -16q-48 0 -83.5 22.5t-54.5 67.5v-337z" />
    <glyph glyph-name="q" unicode="q" horiz-adv-x="550" 
d="M116 223q0 -27 3 -64.5t15 -71t35 -57t62 -23.5t65 19.5t41 50t21.5 68.5t6.5 75q0 33 -4 74.5t-17.5 77.5t-39.5 60.5t-69 24.5q-37 0 -60 -19.5t-36 -51.5t-18 -74.5t-5 -88.5zM365 77q-17 -45 -53.5 -67.5t-84.5 -22.5q-42 0 -79 16t-64.5 47t-43 76.5t-15.5 104.5
q0 121 57 183.5t150 62.5q42 0 79 -23.5t54 -70.5v33q0 21 6 32.5t14.5 16t18.5 5t18 0.5h76q7 0 7 -10t-7 -10h-36q-5 0 -8.5 -3t-3.5 -11v-715q-12 -3 -26.5 -5.5t-27.5 -2t-22 6.5t-9 20v337z" />
    <glyph glyph-name="r" unicode="r" horiz-adv-x="431" 
d="M165 362q6 20 17 39.5t27 34.5t37.5 24.5t48.5 9.5q18 0 34 -6t29 -16.5t20.5 -26t7.5 -34.5q0 -23 -14 -42.5t-40 -19.5q-22 0 -34.5 10t-12.5 27q0 11 2.5 18t5.5 12.5t5.5 11t2.5 13.5q0 27 -33 27q-23 0 -42 -18.5t-32.5 -45t-21 -55.5t-7.5 -51v-274
q-12 -3 -26.5 -5.5t-27.5 -1.5t-22 7t-9 20v410q0 8 -3.5 11t-8.5 3h-36q-7 0 -7 10t7 10h76q8 0 18 -0.5t18.5 -5t14.5 -15t6 -31.5v-50z" />
    <glyph glyph-name="s" unicode="s" horiz-adv-x="403" 
d="M286 460q4 8 12 8t8 -8v-114q0 -8 -9 -8t-11 8q-5 20 -16 43q-14 29 -36.5 46.5t-58.5 17.5q-18 0 -36 -5t-32.5 -15t-23.5 -24.5t-9 -32.5t8 -31t21 -22t29 -15.5t31 -10.5l79 -25q20 -6 40 -15.5t35.5 -25.5t25.5 -39t10 -55q0 -30 -11 -57t-32 -48t-51 -33.5
t-68 -12.5q-23 0 -38.5 4.5t-28.5 10.5t-26 10.5t-30 4.5q-15 0 -23 -16q-4 -8 -12 -8t-8 8v139q0 8 9 8t11 -8q7 -27 19 -51t31 -42t44.5 -28.5t58.5 -10.5q37 0 61 26t24 68q0 32 -14.5 54.5t-54.5 34.5l-84 25q-44 14 -71 45.5t-27 80.5q0 28 11.5 52.5t31.5 42
t45.5 27.5t54.5 10q14 0 31.5 -3.5t45.5 -14.5q7 -3 18 -3t16 8z" />
    <glyph glyph-name="t" unicode="t" horiz-adv-x="337" 
d="M98 573q0 14 9 20t22 7t27.5 -1.5t26.5 -5.5v-129h141q7 0 7 -10t-7 -10h-141v-340q0 -29 4.5 -47.5t12.5 -29t20 -14.5t27 -4t28 7t23 18t16.5 25.5t7.5 29.5q2 6 12 8.5t11 -3.5q-2 -20 -10 -39.5t-22.5 -34.5t-35.5 -24.5t-50 -9.5q-55 0 -92 28t-37 93v337h-76
q-7 0 -7 10t7 10h76v109z" />
    <glyph glyph-name="u" unicode="u" horiz-adv-x="563" 
d="M468 34q0 -8 3.5 -11t8.5 -3h36q7 0 7 -10t-7 -10h-76q-8 0 -18 0.5t-18.5 5t-14.5 15t-6 31.5v48q-11 -24 -25 -44.5t-32.5 -36t-43 -24.5t-55.5 -9q-30 0 -57 8.5t-47 26.5t-31.5 45t-11.5 64v306q0 8 -3.5 11t-8.5 3h-36q-7 0 -7 10t7 10h76q8 0 18 -0.5t18.5 -5
t14.5 -15t6 -31.5v-289q0 -21 3.5 -42.5t13 -39t26 -28.5t42.5 -11q31 0 56 17.5t42 44.5t26 59t9 61v260q0 14 9 20t22 7t27.5 -1.5t26.5 -5.5v-436z" />
    <glyph glyph-name="v" unicode="v" horiz-adv-x="493" 
d="M245 -7h-22l-163 437q-3 8 -12 14t-26 6h-20q-7 0 -7 10t7 10h114q17 0 26 -6t12 -14l119 -325l126 325q3 8 8.5 14t22.5 6h46q7 0 7 -10t-7 -10h-38q-11 0 -14.5 -3t-6.5 -11z" />
    <glyph glyph-name="w" unicode="w" horiz-adv-x="763" 
d="M515 -7h-22l-122 325l-126 -325h-22l-163 437q-3 8 -12 14t-26 6h-20q-7 0 -7 10t7 10h114q17 0 26 -6t12 -14l119 -325l87 224l-30 81q-3 8 -12 14t-26 6h-20q-7 0 -7 10t7 10h114q17 0 26 -6t12 -14l119 -325l126 325q3 8 8.5 14t22.5 6h46q7 0 7 -10t-7 -10h-38
q-11 0 -14.5 -3t-6.5 -11z" />
    <glyph glyph-name="x" unicode="x" horiz-adv-x="490" 
d="M264 271l122 -231q5 -8 11 -14t23 -6h18q7 0 7 -10t-7 -10h-107q-17 0 -23 6t-11 14l-88 167l-108 -167q-7 -11 -14.5 -15.5t-21.5 -4.5h-43q-7 0 -7 10t7 10h36q11 0 13.5 2.5t7.5 9.5l117 180l-115 218q-5 8 -11 14t-23 6h-18q-7 0 -7 10t7 10h107q17 0 23 -6t11 -14
l81 -154l99 154q6 9 12 14.5t19 5.5h48q7 0 7 -10t-7 -10h-36q-9 0 -12.5 -2.5t-8.5 -9.5z" />
    <glyph glyph-name="y" unicode="y" horiz-adv-x="455" 
d="M146 -166q-23 -54 -52.5 -86.5t-78.5 -32.5q-16 0 -33 5.5t-30.5 15.5t-22.5 25t-9 34q0 20 14 39.5t40 19.5q28 0 40.5 -13.5t12.5 -30.5q0 -12 -4 -18.5t-8.5 -11t-8 -9t-3.5 -12.5q0 -11 8 -16t18 -5q19 0 33 9t24 22t16.5 27t10.5 24l78 201l-168 409q-5 8 -11 14
t-23 6h-18q-7 0 -7 10t7 10h107q17 0 23 -6t11 -14l127 -308l120 308q6 9 12 14.5t19 5.5h48q7 0 7 -10t-7 -10h-36q-9 0 -12.5 -2.5t-8.5 -9.5z" />
    <glyph glyph-name="z" unicode="z" horiz-adv-x="458" 
d="M295 450h-81h-29t-27 -2.5t-24 -10t-21 -22.5q-12 -20 -27 -57q-1 -4 -4.5 -6t-7.5 -2t-6.5 2t-1.5 6l14 112h320q10 0 7.5 -5.5t-7.5 -14.5l-257 -430h136q22 0 40.5 6.5t32.5 27.5q11 16 16.5 34.5t13.5 40.5q1 4 4.5 5.5t7.5 1.5t6.5 -1.5t1.5 -5.5l-13 -129h-351
q-10 0 -7.5 5.5t7.5 14.5z" />
    <glyph glyph-name="braceleft" unicode="{" horiz-adv-x="320" 
d="M23 204q-13 4 -13 11t13 10q37 7 63 15t42.5 24t23.5 41.5t7 67.5v169q6 76 44 119t121 47q5 0 7.5 -4.5t2.5 -10t-2.5 -10t-7.5 -4.5q-41 -2 -67 -12.5t-41 -31t-20.5 -52t-5.5 -75.5v-64.5t-0.5 -41.5t-0.5 -25.5v-16.5q0 -24 -4.5 -46.5t-16 -41.5t-32 -34t-52.5 -24
q32 -9 52.5 -23.5t32 -33.5t16 -41.5t4.5 -46.5v-16.5t0.5 -25.5t0.5 -41.5v-64.5q0 -44 5.5 -75.5t20.5 -52t41 -31t67 -12.5q5 0 7.5 -4.5t2.5 -10t-2.5 -10t-7.5 -4.5q-83 4 -121 46.5t-44 119.5v169q0 42 -7 67.5t-23.5 41.5t-42.5 24t-63 15z" />
    <glyph glyph-name="bar" unicode="|" horiz-adv-x="125" 
d="M30 746q0 4 4.5 6.5t10.5 2.5t10.5 -2.5t4.5 -6.5v-995q0 -5 -4.5 -7.5t-10.5 -2.5t-10.5 2.5t-4.5 7.5v995z" />
    <glyph glyph-name="braceright" unicode="}" horiz-adv-x="330" 
d="M307 204q-38 -7 -63.5 -15t-42 -24t-23.5 -41.5t-7 -67.5v-169q-6 -77 -44 -119.5t-121 -46.5q-5 0 -8 4.5t-3 10t3 10t8 4.5q41 2 67 12.5t41 31t20.5 52t5.5 75.5v64.5t0.5 41.5t0.5 25.5v16.5q0 24 4.5 46.5t16 41.5t32 33.5t52.5 23.5q-32 9 -52.5 24t-32 34
t-16 41.5t-4.5 46.5v16.5t-0.5 25.5t-0.5 41.5v64.5q0 44 -5.5 75.5t-20.5 52t-41 31t-67 12.5q-5 0 -8 4.5t-3 10t3 10t8 4.5q83 -4 121 -47t44 -119v-169q0 -42 7 -67.5t23.5 -41.5t42 -24t63.5 -15q13 -3 13 -10t-13 -11z" />
    <glyph glyph-name="asciitilde" unicode="~" horiz-adv-x="607" 
d="M40 161q17 62 47 100t82 38q24 0 52.5 -14t59.5 -31t63.5 -31t64.5 -15q20 0 36.5 9t29 24t22 35t15.5 41q4 14 11.5 9.5t18.5 -9.5q-20 -71 -57 -104.5t-73 -33.5q-35 0 -69 14t-65 31.5t-59 31.5t-51 14q-25 0 -41 -9.5t-26.5 -25t-17 -35l-13.5 -39.5
q-4 -14 -11.5 -9.5t-18.5 9.5z" />
    <glyph glyph-name="thothannobasethai" unicode="&#xf700;" horiz-adv-x="468" 
d="M350 572q0 20 15.5 30.5t31.5 10.5q23 0 37 -17t14 -36q0 -68 -66 -93q10 -19 15.5 -40.5t5.5 -46.5v-380q-12 -3 -26 -5t-26.5 -1.5t-21.5 6.5t-11 20v89q0 37 -3.5 68.5t-11.5 54t-20 35.5t-30 13q-11 0 -17 -5t-11 -11t-13 -11t-23 -5q-19 0 -31 12t-12 38
q0 24 19.5 40t47.5 16q16 0 32 -4.5t30.5 -16.5t25.5 -32.5t17 -51.5v171q0 63 -32.5 91.5t-79.5 28.5q-32 0 -61.5 -10t-52 -27t-35.5 -40t-13 -50q0 -8 -9.5 -8t-9.5 8v116q0 7 8.5 7t10.5 -7q1 -3 3.5 -6t8.5 -3q8 0 18 4l23 9q26 11 53 19t58 8q54 0 96.5 -21t68.5 -57
q10 5 15.5 11.5t5.5 17.5q0 10 -7 15t-15 10t-15 12.5t-7 23.5z" />
    <glyph glyph-name="saraileftthai" unicode="&#xf701;" 
d="M-462 610q-8 0 -8 10q0 30 9 48t22 27.5t28.5 12.5t27.5 3q27 0 53.5 -14t54 -30.5t55.5 -30.5t57 -14q7 0 7 -8.5t-7 -8.5q-30 0 -53.5 9.5t-44 21t-41 21t-44.5 9.5q-23 0 -35 -13.5t-12 -32.5q0 -10 8 -10h-77z" />
    <glyph glyph-name="saraiileftthai" unicode="&#xf702;" 
d="M-462 610q-8 0 -8 10q0 27 7.5 44.5t19.5 28t27.5 14.5t31.5 4q19 0 40 -8.5t42 -20l40 -22.5t33 -17v33q0 14 6.5 19t16 5t21.5 -3.5t24 -6.5v-77q0 -8 -7 -8q-22 0 -44.5 9.5t-44 21t-43 21t-42.5 9.5q-29 0 -40 -15.5t-11 -30.5q0 -10 8 -10h-77z" />
    <glyph glyph-name="saraueleftthai" unicode="&#xf703;" 
d="M-225 657q0 -9 6 -15t15 -6q10 0 16 6t6 15q0 22 -22 22q-9 0 -15 -6t-6 -16zM-342 666q-29 0 -40 -15.5t-11 -30.5q0 -10 8 -10h-77q-8 0 -8 10q0 27 7.5 44.5t19.5 28t27.5 14.5t31.5 4q36 0 68.5 -19t68.5 -38q0 23 12 35t30 12q20 0 33 -13.5t13 -33.5q0 -17 -11 -29
t-32 -12q-14 0 -30 8.5l-33.5 18t-37 18t-39.5 8.5z" />
    <glyph glyph-name="saraueeleftthai" unicode="&#xf704;" 
d="M-393 620q0 -9 6 -10h-75q-8 0 -8 10q0 27 7.5 44.5t19.5 28t27.5 14.5t31.5 4q19 0 40.5 -8.5t42.5 -20.5v14q0 14 5 19t13.5 5t19.5 -3.5t23 -6.5v-62l11 -5v33q0 14 6.5 19t16 5t21.5 -3.5t24 -6.5v-77q0 -8 -7 -8q-22 0 -44.5 9.5t-44 21t-43 21t-42.5 9.5
q-29 0 -40 -15.5t-11 -30.5z" />
    <glyph glyph-name="ellipsis" unicode="&#x2026;" horiz-adv-x="699" 
d="M30 42q0 22 15 37t37 15t37 -15t15 -37t-15 -37t-37 -15t-37 15t-15 37zM278 42q0 22 15 37t37 15t37 -15t15 -37t-15 -37t-37 -15t-37 15t-15 37zM530 43q0 22 15 37t37 15t37 -15t15 -37t-15 -37t-37 -15t-37 15t-15 37z" />
    <glyph glyph-name="maieklowleftthai" unicode="&#xf705;" 
d="M-220 617q0 -13 -9 -18.5t-22 -6t-27.5 2t-26.5 5.5v93q0 14 9 19.5t22 6t27.5 -2.5t26.5 -6v-93z" />
    <glyph glyph-name="maitholowleftthai" unicode="&#xf706;" 
d="M-315 628q0 -7 8 -7h12q24 0 44.5 19.5t20.5 69.5h85q0 -49 -30 -79.5t-87 -30.5h-110q-28 0 -28 20v66q0 2 -1 5t-6 4q16 4 32 7.5t29.5 2.5t22 -7t8.5 -20v-50z" />
    <glyph glyph-name="maitrilowleftthai" unicode="&#xf707;" 
d="M-175 686q-7 0 -7 8t7 8h33q5 0 5.5 -6t0.5 -10l-2 -4l-40 -76h-84q0 20 -7.5 40.5t-26.5 31.5l-22 -61h-50l-19 52q-5 11 -13 16.5t-16 5.5q-10 0 -16.5 -5.5t-6.5 -14.5q0 -11 6 -14.5t17 -3.5t18 -5.5t7 -18.5q0 -20 -11 -26.5t-24 -6.5q-19 0 -32.5 14t-13.5 35
q0 16 7.5 28.5t18.5 20.5t25 12t27 4q27 0 47 -8.5t28 -32.5l11 30q5 3 13 6.5t22 3.5q32 0 57.5 -18.5t33.5 -53.5l23 45q2 4 -2 4h-14z" />
    <glyph glyph-name="maichattawalowleftthai" unicode="&#xf708;" 
d="M-220 617q0 -13 -9 -18.5t-22 -6t-27.5 2t-26.5 5.5v39h-49q-4 0 -6 5.5t-2 12.5t2 12.5t6 5.5h49v18q0 14 9 19.5t22 6t27.5 -2.5t26.5 -6v-35h49q4 0 6 -5.5t2 -12.5t-2 -12.5t-6 -5.5h-49v-22z" />
    <glyph glyph-name="thanthakhatlowleftthai" unicode="&#xf709;" 
d="M-148 743q-14 -26 -32.5 -43t-55.5 -27q8 -6 13.5 -13.5t5.5 -18.5q0 -16 -12 -28.5t-29 -12.5t-30.5 12t-13.5 31q0 21 14 36.5t52 20.5q35 4 50.5 19.5t24.5 34.5q4 -3 10.5 -3.5t2.5 -7.5z" />
    <glyph glyph-name="maieklowrightthai" unicode="&#xf70a;" 
d="M-159 617q0 -13 -9 -18.5t-22 -6t-27.5 2t-26.5 5.5v93q0 14 9 19.5t22 6t27.5 -2.5t26.5 -6v-93z" />
    <glyph glyph-name="maitholowrightthai" unicode="&#xf70b;" 
d="M-245 628q0 -7 8 -7h12q24 0 44.5 19.5t20.5 69.5h85q0 -49 -30 -79.5t-87 -30.5h-110q-28 0 -28 20v66q0 2 -1 5t-6 4q16 4 32 7.5t29.5 2.5t22 -7t8.5 -20v-50z" />
    <glyph glyph-name="maitrilowrightthai" unicode="&#xf70c;" 
d="M-72 686q-7 0 -7 8t7 8h33q5 0 5.5 -6t0.5 -10l-2 -4l-40 -76h-84q0 20 -7.5 40.5t-26.5 31.5l-22 -61h-50l-19 52q-5 11 -13 16.5t-16 5.5q-10 0 -16.5 -5.5t-6.5 -14.5q0 -11 6 -14.5t17 -3.5t18 -5.5t7 -18.5q0 -20 -11 -26.5t-24 -6.5q-19 0 -32.5 14t-13.5 35
q0 16 7.5 28.5t18.5 20.5t25 12t27 4q27 0 47 -8.5t28 -32.5l11 30q5 3 13 6.5t22 3.5q32 0 57.5 -18.5t33.5 -53.5l23 45q2 4 -2 4h-14z" />
    <glyph glyph-name="maichattawalowrightthai" unicode="&#xf70d;" 
d="M-158 617q0 -13 -9 -18.5t-22 -6t-27.5 2t-26.5 5.5v39h-54q-4 0 -6 5.5t-2 12.5t2 12.5t6 5.5h54v18q0 14 9 19.5t22 6t27.5 -2.5t26.5 -6v-35h54q4 0 6 -5.5t2 -12.5t-2 -12.5t-6 -5.5h-54v-22z" />
    <glyph glyph-name="thanthakhatlowrightthai" unicode="&#xf70e;" 
d="M-74 743q-14 -26 -32.5 -43t-55.5 -27q8 -6 13.5 -13.5t5.5 -18.5q0 -16 -12 -28.5t-29 -12.5t-30.5 12t-13.5 31q0 21 14 36.5t52 20.5q35 4 50.5 19.5t24.5 34.5q4 -3 10.5 -3.5t2.5 -7.5z" />
    <glyph glyph-name="yoyingnobasethai" unicode="&#xf70f;" horiz-adv-x="759" 
d="M52 319q0 27 16 35.5t40 17.5h-66q0 4 -0.5 8.5t-0.5 8.5q0 47 16 79t44 51.5t64.5 28t76.5 8.5q42 0 78.5 -9.5t62.5 -30t41 -51.5t15 -73v-294q0 -38 24 -58.5t61 -20.5t61 20t24 58v433q0 14 9 20t22 7t27.5 -1.5t26.5 -5.5v-430q0 -36 -17.5 -60.5t-43.5 -39.5
t-55.5 -21t-53.5 -6t-53.5 6t-55.5 21t-43.5 39t-17.5 60v299q0 64 -33 91t-87 27q-69 0 -99 -34t-30 -110h64q7 0 7 -10t-7 -10q-6 0 -19 -6.5t-13 -24.5v-278q0 -17 6 -29.5t21 -12.5q14 0 22.5 16.5t8.5 34.5q0 21 -7.5 33.5t-9.5 14.5q-2 4 6 8t13 -1q4 -4 11 -18t7 -34
q0 -14 -4 -28t-12 -25.5t-20 -18.5t-29 -7q-49 0 -73.5 40t-24.5 109v174z" />
    <glyph glyph-name="quoteleft" unicode="&#x2018;" horiz-adv-x="223" 
d="M130 733q8 4 10.5 2.5t3.5 -5.5t0.5 -9t1.5 -7q-17 -11 -33 -25t-29.5 -31t-21.5 -36.5t-8 -39.5q0 -17 3.5 -29.5t12.5 -22.5q18 25 43 25q21 0 38 -15t17 -39q0 -23 -18.5 -39.5t-42.5 -16.5q-17 0 -32.5 8t-27.5 22.5t-19.5 35t-7.5 46.5q0 63 30 102.5t80 73.5z" />
    <glyph glyph-name="quoteright" unicode="&#x2019;" horiz-adv-x="228" 
d="M53 438q-8 -5 -10.5 -3t-3.5 6t-0.5 9t-1.5 7q16 10 32.5 24.5t30 31.5t21.5 36.5t8 39.5q0 17 -3.5 29.5t-12.5 22.5q-18 -25 -43 -25q-21 0 -38 15t-17 39q0 23 18.5 39.5t42.5 16.5q17 0 32.5 -8t27.5 -22.5t19.5 -35.5t7.5 -46q0 -63 -30 -102.5t-80 -73.5z" />
    <glyph glyph-name="bullet" unicode="&#x2022;" horiz-adv-x="448" 
d="M30 354q0 37 13.5 69t37.5 56t56 38t69 14t69 -14t56 -38t38 -56t14 -69t-14 -69t-38 -56t-56 -37.5t-69 -13.5t-69 13.5t-56 37.5t-37.5 56t-13.5 69z" />
    <glyph glyph-name="endash" unicode="&#x2013;" horiz-adv-x="507" 
d="M15 291q-5 0 -7.5 4.5t-2.5 10t2.5 10t7.5 4.5h476q5 0 7.5 -4.5t2.5 -10t-2.5 -10t-7.5 -4.5h-476z" />
    <glyph glyph-name="emdash" unicode="&#x2014;" horiz-adv-x="746" 
d="M15 291q-5 0 -7.5 4.5t-2.5 10t2.5 10t7.5 4.5h715q5 0 7.5 -4.5t2.5 -10t-2.5 -10t-7.5 -4.5h-715z" />
    <glyph glyph-name="maihanakatleftthai" unicode="&#xf710;" 
d="M-271 681q0 -12 -4.5 -21.5t-11.5 -16.5q8 -4 17.5 -6t21.5 -2q29 0 55.5 10.5t47 28t34.5 40t17 45.5q1 4 6.5 0.5t7.5 -5.5q-4 -30 -22.5 -58t-44.5 -49t-56 -34t-57 -13q-55 0 -80.5 21t-25.5 53q0 24 14 37.5t31 13.5q19 0 34.5 -12.5t15.5 -31.5z" />
    <glyph glyph-name="nikhahitleftthai" unicode="&#xf711;" 
d="M-253 651q0 -11 8 -18t18 -7t17.5 7t7.5 18t-7.5 18.5t-17.5 7.5t-18 -7.5t-8 -18.5zM-279 652q0 22 15.5 37.5t37.5 15.5t37 -15.5t15 -37.5t-15 -37t-37 -15t-37.5 15t-15.5 37z" />
    <glyph glyph-name="maitaikhuleftthai" unicode="&#xf712;" 
d="M-222 778q12 0 23 3l19.5 5.5t13.5 1.5t5 -10v-5q0 -6 -1.5 -13.5t-6 -14t-13.5 -11t-23 -4.5t-27 3l-25.5 6l-25.5 6t-28 3q-14 0 -29.5 -11.5t-16.5 -40.5q-1 -32 9.5 -42t21.5 -10l17 42h46l16 -34q4 -8 10 -13.5t17 -5.5t16 5.5t5 11.5q0 5 -4.5 7.5t-10 5t-10 6.5
t-4.5 13q0 14 8 19.5t17 5.5q14 0 23.5 -9t9.5 -25q0 -23 -15.5 -39.5t-38.5 -16.5q-27 0 -46.5 9.5t-28.5 34.5l-16 -41q-52 0 -74 21.5t-22 57.5q0 21 8 35t21 22.5t28.5 12t30.5 3.5q20 0 38.5 -5t40.5 -5t22 11v5z" />
    <glyph glyph-name="maiekupperleftthai" unicode="&#xf713;" 
d="M-161 758q0 -14 -6.5 -19t-16 -5t-21.5 3.5t-24 6.5v42q0 14 6.5 19t16 5t21.5 -3.5t24 -6.5v-42z" />
    <glyph glyph-name="maithoupperleftthai" unicode="&#xf714;" 
d="M-317 806q12 3 25 7t24 4.5t18.5 -4t7.5 -18.5v-37h4q6 0 13.5 2.5t14.5 9.5t12 20.5t5 36.5h62q-2 -26 -7.5 -42.5t-16.5 -26.5t-29 -14t-45 -4h-53q-28 0 -28 20v37q0 2 -1 5t-6 4z" />
    <glyph glyph-name="maitriupperleftthai" unicode="&#xf715;" 
d="M-163 802q-5 0 -5 6.5t5 6.5h26q5 0 5.5 -4.5t0.5 -8.5l-2 -4l-30 -58h-63q0 7 -1.5 16.5t-4 18.5t-6.5 15t-10 6l-17 -47h-43l-15 40q-4 9 -9 12t-12 3q-13 0 -13 -12q0 -3 3.5 -6t9.5 -3q7 0 12.5 -5.5t5.5 -14.5q0 -14 -9 -20.5t-21 -6.5q-13 0 -23 10t-10 26
q0 23 17 35.5t42 12.5q21 0 37.5 -6t22.5 -25l11 27q5 2 9.5 3t9.5 1q22 1 43 -14.5t30 -40.5l16 33q2 4 -2 4h-10z" />
    <glyph glyph-name="maichattawaupperleftthai" unicode="&#xf716;" 
d="M-161 757q0 -14 -6.5 -19t-16 -5t-21.5 3.5t-24 6.5v21h-30q-3 0 -5 4.5t-2 10.5t2 10.5t5 4.5h30v8q0 14 6.5 19t16 5t21.5 -3.5t24 -6.5v-22h30q3 0 5 -4.5t2 -10.5t-2 -10.5t-5 -4.5h-30v-7z" />
    <glyph glyph-name="thanthakhatupperleftthai" unicode="&#xf717;" 
d="M-96 827q-12 -23 -27.5 -37.5t-47.5 -22.5q16 -11 16 -27q0 -14 -10 -24.5t-25 -10.5q-14 0 -25.5 10t-11.5 26q0 18 11.5 31t44.5 18q29 3 42.5 16t21.5 30q3 -3 8.5 -3.5t2.5 -5.5z" />
    <glyph glyph-name="nonbreakingspace" unicode="&#xa0;" horiz-adv-x="270" 
 />
    <glyph glyph-name="kokaithai" unicode="&#xe01;" horiz-adv-x="521" 
d="M137 0q-12 -3 -26.5 -5.5t-27.5 -1.5t-22 7t-9 20v299q0 27 16 35.5t40 17.5h-66q0 4 -0.5 8.5t-0.5 8.5q0 47 18 79t48 51.5t68.5 28t78.5 8.5q42 0 79 -9.5t64.5 -30t43 -51.5t15.5 -73v-392q-12 -3 -26.5 -5.5t-27.5 -1.5t-22 7t-9 20v398q0 64 -32.5 91t-92.5 27
q-74 0 -107.5 -34t-33.5 -110h64q7 0 7 -10t-7 -10q-6 0 -19 -6.5t-13 -24.5v-341z" />
    <glyph glyph-name="khokhaithai" unicode="&#xe02;" horiz-adv-x="447" 
d="M145 98q0 -38 19.5 -63.5t56.5 -25.5t56.5 25.5t19.5 63.5v431q0 14 9 20t22 7t27.5 -1.5t26.5 -5.5v-426q0 -70 -41 -102q-20 -16 -53.5 -24t-66.5 -8t-66.5 8t-53.5 24q-41 32 -41 102v178q0 23 9.5 37t23 23.5t30 17t30 19t23 28.5t9.5 45q0 34 -17 48.5t-38 14.5
q-19 0 -29.5 -8t-10.5 -20q0 -8 6.5 -11t14 -7t14 -11t6.5 -22q0 -17 -14.5 -28t-31.5 -11q-24 0 -37 15t-13 38q0 17 6 32.5t20 28.5q15 14 33.5 19t36.5 5q58 0 88.5 -23t30.5 -75q0 -29 -16.5 -48t-36 -37.5t-36 -40t-16.5 -54.5v-178z" />
    <glyph glyph-name="khokhuatthai" unicode="&#xe03;" horiz-adv-x="457" 
d="M139 490q-19 20 -27 30.5t-24 10.5q-12 0 -20 -8t-8 -23q0 -9 7.5 -12t17 -5.5t17 -8t7.5 -20.5q0 -20 -11.5 -29t-26.5 -9q-26 0 -41 14.5t-15 44.5q0 40 22 59t49 19q17 0 26.5 -5.5t26.5 -23.5l25 26q47 0 71.5 -20.5t24.5 -56.5v-13q0 -32 -16.5 -52t-36 -38.5
t-36 -40t-16.5 -54.5v-178q0 -38 19.5 -63.5t56.5 -25.5t56.5 25.5t19.5 63.5v432q0 14 9 20t22 7t27.5 -1.5t26.5 -5.5v-426q0 -70 -41 -102q-20 -16 -53.5 -24t-66.5 -8t-66.5 8t-53.5 24q-41 32 -41 102v177q0 34 20 50.5t44 29.5t43 31t18 56v12q0 16 -3.5 29.5
t-20.5 16.5z" />
    <glyph glyph-name="khokhwaithai" unicode="&#xe04;" horiz-adv-x="509" 
d="M359 423q0 31 -9.5 53t-25 35t-37 19t-45.5 6t-45.5 -6t-37 -19t-25 -35t-9.5 -53v-130q13 33 39.5 53t56.5 20q28 0 43 -16t15 -40q0 -17 -11.5 -30.5t-30.5 -13.5q-15 0 -22.5 5.5t-12 12t-10 12t-16.5 5.5q-15 0 -25 -7t-16 -19t-8 -27.5t-2 -31.5v-216
q-12 -3 -26.5 -5.5t-27.5 -1.5t-22 7t-9 20v371q0 42 15.5 73.5t43 51.5t64.5 30t79 10t79 -10t64.5 -30t43 -51.5t15.5 -73.5v-391q-12 -3 -26.5 -5.5t-27.5 -1.5t-22 7t-9 20v403z" />
    <glyph glyph-name="khokhonthai" unicode="&#xe05;" horiz-adv-x="509" 
d="M444 0q-12 -3 -26.5 -5.5t-27.5 -1.5t-22 7t-9 20v428q0 29 -15 49t-44 20q-17 0 -30.5 -11.5t-26.5 -25.5q-1 -1 -2 0q-14 14 -27 25.5t-30 11.5q-29 0 -44 -20t-15 -49v-155q13 33 39.5 53t56.5 20q28 0 43 -16t15 -40q0 -17 -11.5 -30.5t-30.5 -13.5q-15 0 -22.5 5.5
t-12 12t-10 12t-16.5 5.5q-15 0 -25 -7t-16 -19t-8 -27.5t-2 -31.5v-216q-12 -3 -26.5 -5.5t-27.5 -1.5t-22 7t-9 20v422q0 52 34.5 80t87.5 28q43 0 80 -41q19 21 40.5 31t44.5 10q53 0 85 -28t32 -80v-442z" />
    <glyph glyph-name="khorakhangthai" unicode="&#xe06;" horiz-adv-x="539" 
d="M70 300q0 34 20 50.5t44 29.5t43 31t18 56v12q0 16 -3.5 29.5t-20.5 16.5l-32 -35q-19 20 -27 30.5t-24 10.5q-12 0 -20 -8t-8 -23q0 -9 7.5 -12t17 -5.5t17 -8t7.5 -20.5q0 -20 -11.5 -29t-26.5 -9q-26 0 -41 14.5t-15 44.5q0 40 22 59t49 19q17 0 26.5 -5.5t26.5 -23.5
l25 26q47 0 71.5 -20.5t24.5 -56.5v-13q0 -32 -16.5 -52t-36 -38.5t-36 -40t-16.5 -54.5v-71q0 -32 10.5 -65t31 -59.5t49.5 -43.5t67 -17q37 0 56.5 25.5t19.5 63.5v422q0 14 9 20t22 7t27.5 -1.5t26.5 -5.5v-425q0 -40 -15.5 -65.5t-39 -40.5t-50.5 -20.5t-51 -5.5
q-21 0 -43.5 5.5t-44 18t-41 32.5t-34.5 49v-60q0 -22 -11 -32.5t-28 -13t-37 2.5t-38 13h5.5t9.5 3.5t9.5 12t4.5 24.5v252z" />
    <glyph glyph-name="ngonguthai" unicode="&#xe07;" horiz-adv-x="405" 
d="M20 334q33 6 44 -16l29.5 -72.5l34 -80.5t35 -75t32.5 -56q8 -11 16 -14.5t15 -3.5q14 0 21.5 14.5t7.5 47.5v393q0 34 -8.5 48.5t-28.5 14.5q-19 0 -26.5 -8t-7.5 -20q0 -8 6.5 -11t14 -7t14 -11t6.5 -22q0 -17 -14.5 -28t-31.5 -11q-24 0 -37 15t-13 38q0 17 6 32.5
t20 28.5q15 14 30.5 19t33.5 5q58 0 89.5 -41.5t31.5 -120.5v-274q0 -63 -29 -94.5t-80 -31.5q-25 0 -42.5 8t-35.5 37q-32 51 -63 125.5z" />
    <glyph glyph-name="chochanthai" unicode="&#xe08;" horiz-adv-x="472" 
d="M44 413q0 -8 -9.5 -8t-9.5 8v116q0 7 8.5 7t10.5 -7q1 -3 3.5 -6t8.5 -3q8 0 17.5 4t22.5 9q26 11 52 19t57 8q42 0 79 -11.5t64.5 -34t43 -55.5t15.5 -75v-384q-12 -3 -26 -5t-26.5 -1.5t-21.5 6.5t-11 20v89q0 37 -3.5 68.5t-11.5 54t-20 35.5t-30 13q-11 0 -17 -5
t-11 -11t-13 -11t-23 -5q-19 0 -31 12t-12 38q0 24 19.5 40t47.5 16q16 0 32 -4.5t30.5 -16.5t25.5 -32.5t17 -51.5v175q0 31 -10 53.5t-26.5 36t-38 20t-44.5 6.5q-32 0 -61 -10t-51 -27t-34.5 -40t-12.5 -50z" />
    <glyph glyph-name="chochingthai" unicode="&#xe09;" horiz-adv-x="514" 
d="M103 315q8 0 18 -0.5t18.5 -5t14.5 -15t6 -31.5v-162q0 -38 20 -60.5t57 -22.5q25 0 48 14.5t40.5 38t28 54t10.5 62.5v234q0 64 -34.5 91.5t-92.5 27.5q-32 0 -61 -11.5t-52 -30t-36.5 -42t-13.5 -47.5q0 -7 -9.5 -7t-9.5 7v116q0 7 8.5 7t10.5 -7q2 -4 4 -6.5t8 -2.5
q12 0 28 7l35.5 15t43.5 15t53 7q42 0 79 -11t64.5 -32.5t43.5 -53.5t16 -74v-341q0 -16 4 -24.5t9.5 -12t10 -3.5h5.5q-18 -8 -38 -13t-37 -2.5t-28 13t-11 32.5v54q-15 -28 -33.5 -47t-39 -30.5t-41 -16.5t-38.5 -5q-22 0 -46 4t-44.5 16t-33.5 33.5t-13 56.5v178
q0 8 -3.5 11t-8.5 3h-36q-7 0 -7 10t7 10h76z" />
    <glyph glyph-name="chochangthai" unicode="&#xe0a;" horiz-adv-x="485" 
d="M329 527q0 36 21 41.5t77 -8.5q-1 0 -3 -0.5t-4.5 -4.5t-4 -13t-1.5 -25v-68q0 -18 -7 -29.5t-18 -19t-24 -10.5t-25 -3q33 -1 53.5 -24.5t20.5 -69.5v-155q0 -44 -14.5 -73t-39 -46t-56.5 -23.5t-67 -6.5t-67 6.5t-56.5 23.5t-39 46t-14.5 74v162q0 23 9.5 37t23 23.5
t30 17t30 19t23 28.5t9.5 45q0 34 -17 48.5t-38 14.5q-19 0 -29.5 -8t-10.5 -20q0 -8 6.5 -11t14 -7t14 -11t6.5 -22q0 -17 -14.5 -28t-31.5 -11q-24 0 -37 15t-13 38q0 17 6 32.5t20 28.5q15 14 33.5 19t36.5 5q58 0 88.5 -23t30.5 -75q0 -35 -16.5 -54.5t-36 -36.5
t-36 -36.5t-16.5 -52.5v-165q0 -19 3.5 -37.5t13.5 -32.5t28 -23t47 -9t47 9t28 23t13.5 32.5t3.5 37.5v190q0 16 -1.5 30.5t-6.5 24.5t-16 16t-30 6h-6q-8 0 -8 10t8 10q9 -1 19.5 0t19.5 6.5t15 16.5t6 30v76v0z" />
    <glyph glyph-name="sosothai" unicode="&#xe0b;" horiz-adv-x="495" 
d="M424 449q0 -18 -7 -29.5t-18 -19t-24 -10.5t-25 -3q33 -1 53.5 -24.5t20.5 -69.5v-155q0 -44 -14.5 -73t-39 -46t-56.5 -23.5t-67 -6.5t-67 6.5t-56.5 23.5t-39 46t-14.5 74v161q0 34 20 50.5t44 29.5t43 31t18 56v12q0 16 -3.5 29.5t-20.5 16.5l-32 -35q-19 20 -27 30.5
t-24 10.5q-12 0 -20 -8t-8 -23q0 -9 7.5 -12t17 -5.5t17 -8t7.5 -20.5q0 -20 -11.5 -29t-26.5 -9q-26 0 -41 14.5t-15 44.5q0 40 22 59t49 19q17 0 26.5 -5.5t26.5 -23.5l25 26q47 0 71.5 -20.5t24.5 -56.5v-13q0 -32 -16.5 -52t-36 -38.5t-36 -40t-16.5 -54.5v-164
q0 -19 3.5 -37.5t13.5 -32.5t28 -23t47 -9t47 9t28 23t13.5 32.5t3.5 37.5v190q0 16 -1.5 30.5t-6.5 24.5t-16 16t-30 6h-6q-8 0 -8 10t8 10q9 -1 19.5 0t19.5 6.5t15 16.5t6 30v76q0 36 21 41.5t77 -8.5q-1 0 -3 -0.5t-4.5 -4.5t-4 -13t-1.5 -25v-68z" />
    <glyph glyph-name="chochoethai" unicode="&#xe0c;" horiz-adv-x="759" 
d="M439 182q0 -14 2 -41t11.5 -54t30 -47.5t58.5 -20.5q37 0 52.5 20.5t15.5 58.5v432q0 14 9 20t22 7t27.5 -1.5t26.5 -5.5v-429q0 -36 -13 -60.5t-33.5 -39.5t-45.5 -21.5t-49 -6.5q-32 0 -64 14t-50 46v-15q0 -22 -11 -32.5t-28 -13t-37 2.5t-38 13h5.5t9.5 3.5t9.5 12
t4.5 24.5v370q0 64 -33 91t-87 27q-69 0 -99 -34t-30 -110h64q7 0 7 -10t-7 -10q-6 0 -19 -6.5t-13 -24.5v-278q0 -17 6 -29.5t21 -12.5q14 0 22.5 16.5t8.5 34.5q0 21 -7.5 33.5t-9.5 14.5q-2 4 6 8t13 -1q4 -4 11 -18t7 -34q0 -14 -4 -28t-12 -25.5t-20 -18.5t-29 -7
q-49 0 -73.5 40t-24.5 109v174q0 27 16 35.5t40 17.5h-66q0 4 -0.5 8.5t-0.5 8.5q0 47 16 79t44 51.5t64.5 28t76.5 8.5q42 0 78.5 -9.5t62.5 -30t41 -51.5t15 -73v-210z" />
    <glyph glyph-name="yoyingthai" unicode="&#xe0d;" horiz-adv-x="759" 
d="M52 319q0 27 16 35.5t40 17.5h-66q0 4 -0.5 8.5t-0.5 8.5q0 47 16 79t44 51.5t64.5 28t76.5 8.5q42 0 78.5 -9.5t62.5 -30t41 -51.5t15 -73v-294q0 -38 24 -58.5t61 -20.5t61 20t24 58v433q0 14 9 20t22 7t27.5 -1.5t26.5 -5.5v-430q0 -36 -17.5 -60.5t-43.5 -39.5
t-55.5 -21t-53.5 -6t-53.5 6t-55.5 21t-43.5 39t-17.5 60v299q0 64 -33 91t-87 27q-69 0 -99 -34t-30 -110h64q7 0 7 -10t-7 -10q-6 0 -19 -6.5t-13 -24.5v-278q0 -17 6 -29.5t21 -12.5q14 0 22.5 16.5t8.5 34.5q0 21 -7.5 33.5t-9.5 14.5q-2 4 6 8t13 -1q4 -4 11 -18t7 -34
q0 -14 -4 -28t-12 -25.5t-20 -18.5t-29 -7q-49 0 -73.5 40t-24.5 109v174zM467 -104q0 -12 -4.5 -21.5t-11.5 -16.5q8 -4 17.5 -6t21.5 -2q29 0 55.5 10.5t47 28t34.5 40t17 45.5q1 4 6.5 0.5t7.5 -5.5q-4 -30 -22.5 -58t-44.5 -49t-56 -34t-57 -13q-55 0 -80.5 21t-25.5 53
q0 24 14 37.5t31 13.5q19 0 34.5 -12.5t15.5 -31.5z" />
    <glyph glyph-name="dochadathai" unicode="&#xe0e;" horiz-adv-x="537" 
d="M173 145q0 -69 -24.5 -109t-73.5 -40q-17 0 -29 7t-20 18.5t-12 25.5t-4 28q0 20 7 34t11 18q5 5 13 1t6 -8q-2 -2 -9.5 -14.5t-7.5 -33.5q0 -18 8.5 -34.5t22.5 -16.5q15 0 21 12.5t6 29.5v256q0 27 16 35.5t40 17.5h-66q0 4 -0.5 8.5t-0.5 8.5q0 47 16.5 79t44.5 51.5
t65 28t77 8.5q42 0 77.5 -9.5t61 -30t39.5 -51.5t14 -73v-412q0 -36 -5.5 -71.5t-22 -64t-46.5 -46.5t-79 -18l-33 74q-8 20 -24 27t-34 7q-14 0 -25.5 -6.5t-11.5 -20.5q0 -8 7.5 -11t16 -6t16 -8.5t7.5 -17.5q0 -20 -11 -28t-24 -7q-23 0 -34.5 17.5t-11.5 36.5
q0 21 9.5 35.5t24.5 23t32.5 12.5t33.5 4q23 0 39 -5t26.5 -13t17 -18.5t10.5 -21.5l13 -33q7 1 11.5 14t7.5 29.5t4 32.5t1 22v499q0 64 -27.5 91t-87.5 27q-37 0 -62 -8.5t-40.5 -26t-22 -44.5t-6.5 -65h64q7 0 7 -10t-7 -10q-6 0 -19 -6.5t-13 -24.5v-196z" />
    <glyph glyph-name="topatakthai" unicode="&#xe0f;" horiz-adv-x="537" 
d="M88 319q0 27 16 35.5t40 17.5h-66q0 4 -0.5 8.5t-0.5 8.5q0 47 16.5 79t44.5 51.5t65 28t77 8.5q42 0 77.5 -9.5t61 -30t39.5 -51.5t14 -73v-473q0 -36 -17 -62t-41 -43.5t-51 -25.5t-47 -8l-26 66l-25 -66h-48l-40 102q-6 14 -15 18.5t-19 4.5q-8 0 -15 -4t-7 -12
q0 -9 6.5 -13t14.5 -7.5t14.5 -8.5t6.5 -15q0 -19 -11.5 -26.5t-24.5 -7.5q-19 0 -32 13.5t-13 33.5q0 15 6.5 27t17.5 20.5t25 12.5t29 4q26 0 49.5 -8.5t31.5 -31.5l20 -56l18 47l-3 9h64l24 -58q9 0 13.5 12.5t7 29t2.5 32v21.5v499q0 64 -27.5 91t-87.5 27
q-37 0 -62 -8.5t-40.5 -26t-22 -44.5t-6.5 -65h64q7 0 7 -10t-7 -10q-6 0 -19 -6.5t-13 -24.5v-197q0 -69 -24.5 -108.5t-73.5 -39.5q-17 0 -29 7t-20 18.5t-12 25.5t-4 28q0 20 7 34t11 18q5 5 13 1t6 -8q-2 -2 -9.5 -14.5t-7.5 -33.5q0 -18 8.5 -34.5t22.5 -16.5
q15 0 21 12.5t6 29.5v256z" />
    <glyph glyph-name="thothanthai" unicode="&#xe10;" horiz-adv-x="468" 
d="M380 -33q5 0 10.5 -2t2.5 -12l-46 -126h-39l-25 65l-25 -65h-49l-36 92q-7 17 -18 24.5t-21.5 7.5t-18.5 -6.5t-8 -16.5q0 -5 6 -6.5t13.5 -4t13.5 -8.5t6 -19q0 -17 -10 -23t-21 -6q-15 0 -26.5 12.5t-11.5 33.5q0 32 23 47t52 15q26 0 49.5 -8.5t31.5 -31.5l20 -56
l18 47l-3 9h64l15 -42l22 60h-19q-7 0 -7 10t7 10h30zM350 572q0 20 15.5 30.5t31.5 10.5q23 0 37 -17t14 -36q0 -68 -66 -93q10 -19 15.5 -40.5t5.5 -46.5v-380q-12 -3 -26 -5t-26.5 -1.5t-21.5 6.5t-11 20v89q0 37 -3.5 68.5t-11.5 54t-20 35.5t-30 13q-11 0 -17 -5
t-11 -11t-13 -11t-23 -5q-19 0 -31 12t-12 38q0 24 19.5 40t47.5 16q16 0 32 -4.5t30.5 -16.5t25.5 -32.5t17 -51.5v171q0 63 -32.5 91.5t-79.5 28.5q-32 0 -61.5 -10t-52 -27t-35.5 -40t-13 -50q0 -8 -9.5 -8t-9.5 8v116q0 7 8.5 7t10.5 -7q1 -3 3.5 -6t8.5 -3q8 0 18 4
l23 9q26 11 53 19t58 8q54 0 96.5 -21t68.5 -57q10 5 15.5 11.5t5.5 17.5q0 10 -7 15t-15 10t-15 12.5t-7 23.5z" />
    <glyph glyph-name="thonangmonthothai" unicode="&#xe11;" horiz-adv-x="561" 
d="M253 470q9 15 17.5 31t21.5 29.5t31.5 22t46.5 8.5q24 0 46.5 -6t40 -21t28.5 -41t11 -66v-427q-12 -3 -26.5 -5.5t-27.5 -1.5t-22 7t-9 20v426q0 38 -10 63.5t-40 25.5q-25 0 -40 -12.5t-29.5 -35t-32.5 -54t-48 -68.5q-14 -17 -24.5 -38t-10.5 -52v-275
q-12 -3 -26.5 -5.5t-27.5 -1.5t-22 7t-9 20v280q0 34 15.5 50.5t34.5 29.5t33.5 31t13.5 56v12v29.5t-17 16.5l-32 -35q-19 20 -27 30.5t-24 10.5q-12 0 -20 -8t-8 -23q0 -9 7.5 -12t17 -5.5t17 -8t7.5 -20.5q0 -20 -11.5 -29t-26.5 -9q-26 0 -41 14.5t-15 44.5q0 40 22 59
t49 19q17 0 26.5 -5.5t26.5 -23.5l25 26q44 0 66.5 -22t22.5 -58z" />
    <glyph glyph-name="thophuthaothai" unicode="&#xe12;" horiz-adv-x="754" 
d="M434 182q0 -14 2 -41t11.5 -54t30 -47.5t58.5 -20.5q37 0 52.5 20.5t15.5 58.5v432q0 14 9 20t22 7t27.5 -1.5t26.5 -5.5v-429q0 -36 -13 -60.5t-33.5 -39.5t-45.5 -21.5t-49 -6.5q-32 0 -64 14t-50 46v-15q0 -22 -11 -32.5t-28 -13t-37 2.5t-38 13h5.5t9.5 3.5t9.5 12
t4.5 24.5v400q0 29 -12.5 49t-41.5 20q-17 0 -30.5 -11.5t-26.5 -25.5q-1 -1 -2 0q-14 14 -27 25.5t-30 11.5q-29 0 -41.5 -20t-12.5 -49v-342q0 -26 5 -42.5t13.5 -26t20 -13t24.5 -3.5q27 0 45 18.5t18 41.5q0 19 -8 30t-29 11q-20 0 -30.5 11.5t-10.5 27.5q0 20 15 33.5
t35 13.5q26 0 45 -17.5t19 -52.5q0 -24 -6.5 -49t-20 -45.5t-34.5 -33t-49 -12.5q-29 0 -54 7.5t-43.5 25.5t-29 47t-10.5 72v292q0 52 32 80t85 28q43 0 80 -41q37 41 80 41q53 0 85 -28t32 -80v-260z" />
    <glyph glyph-name="nonenthai" unicode="&#xe13;" horiz-adv-x="759" 
d="M52 319q0 27 16 35.5t40 17.5h-66q0 4 -0.5 8.5t-0.5 8.5q0 47 16 79t44 51.5t64.5 28t76.5 8.5q42 0 78.5 -9.5t62.5 -30t41 -51.5t15 -73v-294q0 -38 15.5 -58.5t52.5 -20.5t58 20.5t30.5 47.5t11.5 54t2 41v348q0 14 9 20t22 7t27.5 -1.5t26.5 -5.5v-502
q0 -16 4 -24.5t9.5 -12t10 -3.5h5.5q-18 -8 -38 -13t-37 -2.5t-28 13t-11 32.5v15q-18 -32 -50 -46t-64 -14q-24 0 -49 6.5t-45.5 21.5t-33.5 39.5t-13 60.5v297q0 64 -33 91t-87 27q-69 0 -99 -34t-30 -110h64q7 0 7 -10t-7 -10q-6 0 -19 -6.5t-13 -24.5v-278
q0 -17 6 -29.5t21 -12.5q14 0 22.5 16.5t8.5 34.5q0 21 -7.5 33.5t-9.5 14.5q-2 4 6 8t13 -1q4 -4 11 -18t7 -34q0 -14 -4 -28t-12 -25.5t-20 -18.5t-29 -7q-49 0 -73.5 40t-24.5 109v174z" />
    <glyph glyph-name="dodekthai" unicode="&#xe14;" horiz-adv-x="509" 
d="M359 426q0 31 -9.5 52t-25 34t-37 18t-45.5 5t-45.5 -5t-37 -18t-25 -34t-9.5 -52v-320q0 -26 5 -42.5t13.5 -26t20 -13t24.5 -3.5q27 0 45 18.5t18 41.5q0 19 -8 30t-29 11q-20 0 -30.5 11.5t-10.5 27.5q0 20 15 33.5t35 13.5q26 0 45 -17.5t19 -52.5q0 -24 -6.5 -49
t-20 -45.5t-34.5 -33t-49 -12.5q-29 0 -54 7.5t-43.5 25.5t-29 47t-10.5 72v253q0 42 15.5 71t43 47t64.5 26t79 8t79 -8t64.5 -26t43 -47t15.5 -71v-403q-12 -3 -26.5 -5.5t-27.5 -1.5t-22 7t-9 20v406z" />
    <glyph glyph-name="totaothai" unicode="&#xe15;" horiz-adv-x="509" 
d="M444 0q-12 -3 -26.5 -5.5t-27.5 -1.5t-22 7t-9 20v428q0 29 -15 49t-44 20q-17 0 -30.5 -11.5t-26.5 -25.5q-1 -1 -2 0q-14 14 -27 25.5t-30 11.5q-29 0 -44 -20t-15 -49v-342q0 -26 5 -42.5t13.5 -26t20 -13t24.5 -3.5q27 0 45 18.5t18 41.5q0 19 -8 30t-29 11
q-20 0 -30.5 11.5t-10.5 27.5q0 20 15 33.5t35 13.5q26 0 45 -17.5t19 -52.5q0 -24 -6.5 -49t-20 -45.5t-34.5 -33t-49 -12.5q-29 0 -54 7.5t-43.5 25.5t-29 47t-10.5 72v292q0 52 34.5 80t87.5 28q43 0 80 -41q19 21 40.5 31t44.5 10q53 0 85 -28t32 -80v-442z" />
    <glyph glyph-name="thothungthai" unicode="&#xe16;" horiz-adv-x="521" 
d="M137 63q0 -17 6 -29.5t21 -12.5q14 0 22.5 16.5t8.5 34.5q0 21 -7.5 33.5t-9.5 14.5q-2 4 6 8t13 -1q4 -4 11 -18t7 -34q0 -14 -4 -28t-12 -25.5t-20 -18.5t-29 -7q-49 0 -73.5 40t-24.5 109v174q0 27 16 35.5t40 17.5h-66q0 4 -0.5 8.5t-0.5 8.5q0 47 18 79t48 51.5
t68.5 28t78.5 8.5q42 0 79 -9.5t64.5 -30t43 -51.5t15.5 -73v-392q-12 -3 -26.5 -5.5t-27.5 -1.5t-22 7t-9 20v398q0 64 -32.5 91t-92.5 27q-74 0 -107.5 -34t-33.5 -110h64q7 0 7 -10t-7 -10q-6 0 -19 -6.5t-13 -24.5v-278z" />
    <glyph glyph-name="thothahanthai" unicode="&#xe17;" horiz-adv-x="544" 
d="M160 406q22 40 46.5 69.5t48.5 48.5t46.5 28t40.5 9q24 0 48 -6t44 -21t32.5 -41t12.5 -66v-427q-12 -3 -26.5 -5.5t-27.5 -1.5t-22 7t-9 20v426q0 38 -13 63.5t-50 25.5q-24 0 -53.5 -23t-55.5 -57t-44 -73t-18 -71v-311q-12 -3 -26.5 -5.5t-27.5 -1.5t-22 7t-9 20v496
q0 8 -3.5 11t-8.5 3h-36q-7 0 -7 10t7 10h76q8 0 18 -0.5t18.5 -5t14.5 -15t6 -31.5v-92z" />
    <glyph glyph-name="thothongthai" unicode="&#xe18;" horiz-adv-x="495" 
d="M66 245q0 14 9 20t22 7t27.5 -1.5t26.5 -5.5v-170q0 -37 24.5 -61.5t72.5 -24.5q47 0 72 24.5t25 61.5v245q0 8 -4 9.5t-9 1.5h-216q0 -8 -8 -10t-21 -1t-28 4.5t-29 7.5q0 66 19 106.5t49.5 63t68 30.5t74.5 8q29 0 53 -6.5t43.5 -14l36 -13.5t31.5 -6q6 0 8 3l4 6
q3 7 11 7t8 -7v-116q0 -8 -9.5 -8t-9.5 8q0 27 -13.5 50t-36 40t-52.5 27t-62 10q-23 0 -47 -8t-44 -27t-33 -50t-13 -77q0 -4 2 -5.5t10 -1.5h270q6 0 19 -6.5t13 -24.5v-209q0 -39 -17.5 -66.5t-44.5 -45t-59 -25t-61 -7.5q-27 0 -47 5.5t-35.5 11.5l-29 11.5t-27.5 5.5
q-9 0 -16 -3t-7 -11q0 -7 -10 -7t-10 7v238z" />
    <glyph glyph-name="nonuthai" unicode="&#xe19;" horiz-adv-x="544" 
d="M394 530q0 14 9 20t22 7t27.5 -1.5t26.5 -5.5v-502q0 -16 4 -24.5t9.5 -12t10 -3.5h5.5q-18 -8 -38 -13t-37 -2.5t-28 13t-11 32.5v60q-15 -29 -34.5 -49t-41 -32.5t-44 -18t-43.5 -5.5q-24 0 -51 5.5t-50.5 20.5t-39 40.5t-15.5 65.5v391q0 8 -3.5 11t-8.5 3h-36
q-7 0 -7 10t7 10h76q8 0 18 -0.5t18.5 -5t14.5 -15t6 -31.5v-390q0 -38 19.5 -63.5t56.5 -25.5t66.5 17t50 43.5t31 59.5t10.5 65v326z" />
    <glyph glyph-name="bobaimaithai" unicode="&#xe1a;" horiz-adv-x="544" 
d="M479 136q0 -42 -15.5 -70.5t-43 -45.5t-64.5 -24t-79 -7t-79 7t-64.5 24t-43 45.5t-15.5 70.5v380q0 8 -3.5 11t-8.5 3h-36q-7 0 -7 10t7 10h76q8 0 18 -0.5t18.5 -5t14.5 -15t6 -31.5v-382q0 -32 9.5 -52t25 -31.5t37 -16t45.5 -4.5t45.5 4.5t37 16t25 31.5t9.5 52v414
q0 14 9 20t22 7t27.5 -1.5t26.5 -5.5v-414z" />
    <glyph glyph-name="poplathai" unicode="&#xe1b;" horiz-adv-x="544" 
d="M479 136q0 -42 -15.5 -70.5t-43 -45.5t-64.5 -24t-79 -7t-79 7t-64.5 24t-43 45.5t-15.5 70.5v380q0 8 -3.5 11t-8.5 3h-36q-7 0 -7 10t7 10h76q8 0 18 -0.5t18.5 -5t14.5 -15t6 -31.5v-382q0 -32 9.5 -52t25 -31.5t37 -16t45.5 -4.5t45.5 4.5t37 16t25 31.5t9.5 52v534
q0 14 9 20t22 7t27.5 -1.5t26.5 -5.5v-534z" />
    <glyph glyph-name="phophungthai" unicode="&#xe1c;" horiz-adv-x="588" 
d="M125 110q0 -32 3.5 -51t11 -29.5t18 -14t24.5 -3.5t24.5 3.5t18 14t11 29.5t3.5 51v277q0 14 9 20t22 7t27.5 -1.5t26.5 -5.5v-297q0 -32 3.5 -51t11 -29.5t18 -14t24.5 -3.5t24.5 3.5t18 14t11 29.5t3.5 51v420q0 14 9 20t22 7t27.5 -1.5t26.5 -5.5v-414
q0 -42 -6.5 -70.5t-22.5 -45.5t-43.5 -24t-69.5 -7q-68 0 -100 19q-32 -19 -99 -19q-42 0 -69.5 7t-43.5 24t-22.5 45.5t-6.5 70.5v331q0 42 23.5 62.5t50.5 20.5h84q7 0 7 -10t-7 -10h-44q-13 0 -21 -6t-8 -25v-389z" />
    <glyph glyph-name="fofathai" unicode="&#xe1d;" horiz-adv-x="588" 
d="M125 110q0 -32 3.5 -51t11 -29.5t18 -14t24.5 -3.5t24.5 3.5t18 14t11 29.5t3.5 51v277q0 14 9 20t22 7t27.5 -1.5t26.5 -5.5v-297q0 -32 3.5 -51t11 -29.5t18 -14t24.5 -3.5t24.5 3.5t18 14t11 29.5t3.5 51v540q0 14 9 20t22 7t27.5 -1.5t26.5 -5.5v-534
q0 -42 -6.5 -70.5t-22.5 -45.5t-43.5 -24t-69.5 -7q-68 0 -100 19q-32 -19 -99 -19q-42 0 -69.5 7t-43.5 24t-22.5 45.5t-6.5 70.5v331q0 42 23.5 62.5t50.5 20.5h84q7 0 7 -10t-7 -10h-44q-13 0 -21 -6t-8 -25v-389z" />
    <glyph glyph-name="phophanthai" unicode="&#xe1e;" horiz-adv-x="623" 
d="M359 110q0 -32 3.5 -51t11 -29.5t18 -14t24.5 -3.5t24.5 3.5t18 14t11 29.5t3.5 51v420q0 14 9 20t22 7t27.5 -1.5t26.5 -5.5v-414q0 -42 -6.5 -70.5t-22.5 -45.5t-43.5 -24t-69.5 -7q-68 0 -100 19q-32 -19 -99 -19q-42 0 -69.5 7t-43.5 24t-22.5 45.5t-6.5 70.5v380
q0 8 -3.5 11t-8.5 3h-36q-7 0 -7 10t7 10h76q8 0 18 -0.5t18.5 -5t14.5 -15t6 -31.5v-388q0 -32 3.5 -51t11 -29.5t18 -14t24.5 -3.5t24.5 3.5t18 14t11 29.5t3.5 51v420q0 14 9 20t22 7t27.5 -1.5t26.5 -5.5v-440z" />
    <glyph glyph-name="fofanthai" unicode="&#xe1f;" horiz-adv-x="623" 
d="M359 110q0 -32 3.5 -51t11 -29.5t18 -14t24.5 -3.5t24.5 3.5t18 14t11 29.5t3.5 51v540q0 14 9 20t22 7t27.5 -1.5t26.5 -5.5v-534q0 -42 -6.5 -70.5t-22.5 -45.5t-43.5 -24t-69.5 -7q-68 0 -100 19q-32 -19 -99 -19q-42 0 -69.5 7t-43.5 24t-22.5 45.5t-6.5 70.5v380
q0 8 -3.5 11t-8.5 3h-36q-7 0 -7 10t7 10h76q8 0 18 -0.5t18.5 -5t14.5 -15t6 -31.5v-388q0 -32 3.5 -51t11 -29.5t18 -14t24.5 -3.5t24.5 3.5t18 14t11 29.5t3.5 51v420q0 14 9 20t22 7t27.5 -1.5t26.5 -5.5v-440z" />
    <glyph glyph-name="phosamphaothai" unicode="&#xe20;" horiz-adv-x="547" 
d="M88 319q0 27 16 35.5t40 17.5h-66q0 4 -0.5 8.5t-0.5 8.5q0 47 17 79t46.5 51.5t67 28t77.5 8.5q42 0 78.5 -9.5t62.5 -30t41 -51.5t15 -73v-392q-12 -3 -26.5 -5.5t-27.5 -1.5t-22 7t-9 20v398q0 64 -30 91t-90 27q-74 0 -105 -34t-31 -110h64q7 0 7 -10t-7 -10
q-6 0 -19 -6.5t-13 -24.5v-197q0 -69 -24.5 -108.5t-73.5 -39.5q-17 0 -29 7t-20 18.5t-12 25.5t-4 28q0 20 7 34t11 18q5 5 13 1t6 -8q-2 -2 -9.5 -14.5t-7.5 -33.5q0 -18 8.5 -34.5t22.5 -16.5q15 0 21 12.5t6 29.5v256z" />
    <glyph glyph-name="momathai" unicode="&#xe21;" horiz-adv-x="544" 
d="M160 204q0 -32 10.5 -65t31 -59.5t49.5 -43.5t67 -17q37 0 56.5 25.5t19.5 63.5v422q0 14 9 20t22 7t27.5 -1.5t26.5 -5.5v-425q0 -40 -15.5 -65.5t-39 -40.5t-50.5 -20.5t-51 -5.5q-21 0 -43.5 5.5t-44 18t-41 32.5t-34.5 49v-60q0 -22 -11 -32.5t-28 -13t-37 2.5
t-38 13h5.5t9.5 3.5t9.5 12t4.5 24.5v468q0 8 -3.5 11t-8.5 3h-36q-7 0 -7 10t7 10h76q8 0 18 -0.5t18.5 -5t14.5 -15t6 -31.5v-294z" />
    <glyph glyph-name="yoyakthai" unicode="&#xe22;" horiz-adv-x="502" 
d="M261 545q9 -4 8 -14.5t-8 -7.5q-27 13 -50.5 11t-41 -14t-27.5 -31.5t-10 -41.5q0 -24 11 -43.5t29 -33t42.5 -21.5t51.5 -9q6 0 8.5 -4t2.5 -9t-2.5 -9t-8.5 -4q-28 -1 -54.5 -6t-46.5 -19.5t-32.5 -41t-12.5 -71.5q0 -46 16 -76.5t41 -48.5t56 -25.5t61 -7.5h4.5
t8.5 0.5t16.5 1t28.5 2.5v508q0 14 9 20t22 7t27.5 -1.5t26.5 -5.5v-498q0 -21 -6 -31.5t-14.5 -15t-18.5 -5t-18 -0.5q-36 0 -64.5 -2t-55.5 -2q-33 0 -74 6t-76.5 23.5t-60 49.5t-24.5 84q0 47 16 79t42 51.5t59 28t66 8.5q-26 0 -54.5 7.5t-52.5 23t-40 38.5t-16 53
q0 38 23.5 62t57 35t71 10.5t64.5 -10.5z" />
    <glyph glyph-name="roruathai" unicode="&#xe23;" horiz-adv-x="470" 
d="M111 351q0 -8 -8 -10t-21 -1t-28 4.5t-29 7.5q0 66 18 106.5t48 63t68 30.5t78 8q29 0 53 -6.5t43.5 -14l36 -13.5t31.5 -6q6 0 8 3t2 6q0 7 9.5 7t9.5 -7v-116q0 -8 -9.5 -8t-9.5 8q0 27 -14 50t-37 40t-53 27t-62 10q-23 0 -46.5 -8t-43 -27t-32 -50t-12.5 -77
q0 -4 2 -5.5t10 -1.5h200q6 0 19 -6.5t13 -24.5v-181q0 -79 -28.5 -120.5t-86.5 -41.5q-18 0 -33.5 5t-30.5 19q-14 13 -20 28.5t-6 32.5q0 23 13 38t37 15q17 0 31.5 -11t14.5 -28q0 -15 -6.5 -22t-14 -11t-14 -7t-6.5 -11q0 -12 7.5 -20t24.5 -8q21 0 27 21t6 55v247
q0 8 -4 9.5t-9 1.5h-146z" />
    <glyph glyph-name="ruthai" unicode="&#xe24;" horiz-adv-x="511" 
d="M52 319q0 27 16 35.5t40 17.5h-66q0 4 -0.5 8.5t-0.5 8.5q0 47 17 79t46.5 51.5t67 28t77.5 8.5q42 0 78.5 -9.5t62.5 -30t41 -51.5t15 -73v-592q-12 -3 -26.5 -5.5t-27.5 -1.5t-22 7t-9 20v598q0 64 -30 91t-90 27q-74 0 -105 -34t-31 -110h64q7 0 7 -10t-7 -10
q-6 0 -19 -6.5t-13 -24.5v-278q0 -17 6 -29.5t21 -12.5q14 0 22.5 16.5t8.5 34.5q0 21 -7.5 33.5t-9.5 14.5q-2 4 6 8t13 -1q4 -4 11 -18t7 -34q0 -14 -4 -28t-12 -25.5t-20 -18.5t-29 -7q-49 0 -73.5 40t-24.5 109v174z" />
    <glyph glyph-name="lolingthai" unicode="&#xe25;" horiz-adv-x="492" 
d="M160 27q14 0 24.5 13.5t10.5 31.5q0 21 -7.5 33.5t-9.5 14.5q-2 4 6 8t13 -1q4 -4 11 -16.5t7 -35.5q0 -31 -20.5 -55t-54.5 -24q-56 0 -88 39t-32 103q0 38 11 63t28.5 41t40 25.5t45.5 17.5q34 11 69.5 21t64 24t46.5 35.5t18 56.5q0 119 -126 119q-30 0 -59 -9
t-51 -26t-35.5 -41t-13.5 -53q0 -7 -10 -7t-10 7v116q0 7 9 7t11 -7q3 -10 16 -10q8 0 15.5 3.5t20.5 8.5q26 12 55.5 21t69.5 9t75 -11.5t61 -34t41 -56t15 -76.5v-382q-12 -3 -26.5 -5.5t-27.5 -1.5t-22 7t-9 20v319q-4 -6 -12 -12t-23.5 -14t-39 -17.5t-59.5 -21.5
q-28 -9 -45 -21.5t-27 -28.5t-13.5 -37.5t-4.5 -48.5q-1 -34 3 -55.5t10 -34t13.5 -17t15.5 -4.5z" />
    <glyph glyph-name="luthai" unicode="&#xe26;" horiz-adv-x="547" 
d="M88 319q0 27 16 35.5t40 17.5h-66q0 4 -0.5 8.5t-0.5 8.5q0 47 17 79t46.5 51.5t67 28t77.5 8.5q42 0 78.5 -9.5t62.5 -30t41 -51.5t15 -73v-592q-12 -3 -26.5 -5.5t-27.5 -1.5t-22 7t-9 20v598q0 64 -30 91t-90 27q-74 0 -105 -34t-31 -110h64q7 0 7 -10t-7 -10
q-6 0 -19 -6.5t-13 -24.5v-197q0 -69 -24.5 -108.5t-73.5 -39.5q-17 0 -29 7t-20 18.5t-12 25.5t-4 28q0 20 7 34t11 18q5 5 13 1t6 -8q-2 -2 -9.5 -14.5t-7.5 -33.5q0 -18 8.5 -34.5t22.5 -16.5q15 0 21 12.5t6 29.5v256z" />
    <glyph glyph-name="wowaenthai" unicode="&#xe27;" horiz-adv-x="472" 
d="M407 159q0 -79 -31.5 -120.5t-89.5 -41.5q-18 0 -33.5 5t-30.5 19q-14 13 -20 28.5t-6 32.5q0 23 13 38t37 15q17 0 31.5 -11t14.5 -28q0 -15 -6.5 -22t-14 -11t-14 -7t-6.5 -11q0 -12 7.5 -20t26.5 -8q20 0 28.5 14.5t8.5 48.5v344q0 31 -10 53.5t-26.5 36t-38 20
t-44.5 6.5q-32 0 -61 -10t-51 -27t-34.5 -40t-12.5 -50q0 -8 -9.5 -8t-9.5 8v116q0 7 9.5 7t9.5 -7q0 -3 2 -6t8 -3q8 0 18.5 4l23.5 9q26 11 52 19t57 8q42 0 79 -11.5t64.5 -34t43 -55.5t15.5 -75v-225z" />
    <glyph glyph-name="sosalathai" unicode="&#xe28;" horiz-adv-x="509" 
d="M359 423q0 31 -9.5 53t-25 35t-37 19t-45.5 6t-45.5 -6t-37 -19t-25 -35t-9.5 -53v-130q13 33 39.5 53t56.5 20q28 0 43 -16t15 -40q0 -17 -11.5 -30.5t-30.5 -13.5q-15 0 -22.5 5.5t-12 12t-10 12t-16.5 5.5q-15 0 -25 -7t-16 -19t-8 -27.5t-2 -31.5v-216
q-12 -3 -26.5 -5.5t-27.5 -1.5t-22 7t-9 20v371q0 42 15.5 73.5t43 51.5t64.5 30t79 10q58 0 104 -18.5t72 -56.5q17 9 17 26q0 10 -7 15t-15 10t-15 12.5t-7 23.5q0 20 15.5 30.5t31.5 10.5q23 0 37 -17t14 -36q0 -65 -61 -91q16 -34 16 -74v-391q-12 -3 -26.5 -5.5
t-27.5 -1.5t-22 7t-9 20v403z" />
    <glyph glyph-name="sorusithai" unicode="&#xe29;" horiz-adv-x="544" 
d="M338 335q0 -12 -4.5 -21.5t-11.5 -16.5q8 -4 17.5 -6t21.5 -2q16 0 33 3v238q0 14 9 20t22 7t27.5 -1.5t26.5 -5.5v-208q30 33 36 71q1 4 6.5 0.5t7.5 -5.5q-3 -26 -16.5 -49t-33.5 -43v-180q0 -42 -15.5 -70.5t-43 -45.5t-64.5 -24t-79 -7t-79 7t-64.5 24t-43 45.5
t-15.5 70.5v380q0 8 -3.5 11t-8.5 3h-36q-7 0 -7 10t7 10h76q8 0 18 -0.5t18.5 -5t14.5 -15t6 -31.5v-382q0 -32 9.5 -52t25 -31.5t37 -16t45.5 -4.5t45.5 4.5t37 16t25 31.5t9.5 52v146q-26 -8 -45 -8q-55 0 -80.5 21t-25.5 53q0 24 14 37.5t31 13.5q19 0 34.5 -12.5
t15.5 -31.5z" />
    <glyph glyph-name="sosuathai" unicode="&#xe2a;" horiz-adv-x="492" 
d="M160 27q14 0 24.5 13.5t10.5 31.5q0 21 -7.5 33.5t-9.5 14.5q-2 4 6 8t13 -1q4 -4 11 -16.5t7 -35.5q0 -31 -20.5 -55t-54.5 -24q-56 0 -88 39t-32 103q0 38 11 63t28.5 41t40 25.5t45.5 17.5q34 11 69.5 21t64 24t46.5 35.5t18 56.5q0 119 -126 119q-30 0 -59 -9
t-51 -26t-35.5 -41t-13.5 -53q0 -7 -10 -7t-10 7v116q0 7 9 7t11 -7q3 -10 16 -10q8 0 15.5 3.5t20.5 8.5q26 12 55.5 21t69.5 9q54 0 97 -20.5t68 -59.5q8 5 13 10.5t5 16.5q0 10 -7 15t-15 10t-15 12.5t-7 23.5q0 20 15.5 30.5t31.5 10.5q23 0 37 -17t14 -36
q0 -67 -63 -92q8 -18 13 -38.5t5 -43.5v-382q-12 -3 -26.5 -5.5t-27.5 -1.5t-22 7t-9 20v319q-4 -6 -12 -12t-23.5 -14t-39 -17.5t-59.5 -21.5q-28 -9 -45 -21.5t-27 -28.5t-13.5 -37.5t-4.5 -48.5q-1 -34 3 -55.5t10 -34t13.5 -17t15.5 -4.5z" />
    <glyph glyph-name="hohipthai" unicode="&#xe2b;" horiz-adv-x="539" 
d="M323 424q24 0 51 -5.5t50.5 -20.5t39 -40.5t15.5 -65.5v-292q-12 -3 -26.5 -5.5t-27.5 -1.5t-22 7t-9 20v289q0 38 -19.5 63.5t-56.5 25.5q-38 0 -67 -17t-49.5 -43.5t-31 -59.5t-10.5 -65v-213q-12 -3 -26.5 -5.5t-27.5 -1.5t-22 7t-9 20v496q0 8 -3.5 11t-8.5 3h-36
q-7 0 -7 10t7 10h76q8 0 18 -0.5t18.5 -5t14.5 -15t6 -31.5v-179q20 40 48.5 63t59.5 33q-22 11 -29.5 28t-6.5 34q0 18 8.5 32.5t22 24.5t30.5 15.5t35 5.5q25 0 42.5 -6.5t31.5 -23.5q8 -10 12 -23t4 -24q0 -23 -13 -36.5t-35 -13.5q-18 0 -33 9t-15 26q0 7 2.5 14
t10.5 15q13 13 8 27t-29 14q-25 0 -42 -15t-17 -42q0 -24 16.5 -38t46.5 -14h5z" />
    <glyph glyph-name="lochulathai" unicode="&#xe2c;" horiz-adv-x="629" 
d="M558 468q0 -18 -7 -29.5t-18 -19t-24 -10.5t-25 -3q33 -1 53.5 -24.5t20.5 -69.5v-176q0 -42 -6.5 -70.5t-22.5 -45.5t-43.5 -24t-69.5 -7q-68 0 -100 19q-32 -19 -99 -19q-42 0 -69.5 7t-43.5 24t-22.5 45.5t-6.5 70.5v380q0 8 -3.5 11t-8.5 3h-36q-7 0 -7 10t7 10h76
q8 0 18 -0.5t18.5 -5t14.5 -15t6 -31.5v-388q0 -32 3.5 -51t11 -29.5t18 -14t24.5 -3.5t24.5 3.5t18 14t11 29.5t3.5 51v420q0 14 9 20t22 7t27.5 -1.5t26.5 -5.5v-440q0 -32 3.5 -51t11 -29.5t18 -14t24.5 -3.5t24.5 3.5t18 14t11 29.5t3.5 51v210q0 16 -1.5 30.5
t-6.5 24.5t-16 16t-30 6h-6q-8 0 -8 10t8 10q9 -1 19.5 0t19.5 6.5t15 16.5t6 30v57q0 36 21 41.5t77 -8.5q-1 0 -3 -0.5t-4.5 -4.5t-4 -13t-1.5 -25v-49z" />
    <glyph glyph-name="oangthai" unicode="&#xe2d;" horiz-adv-x="512" 
d="M120 182q1 -26 5.5 -55.5t17 -55t35 -42.5t59.5 -17q27 0 47.5 14t35.5 36.5t24.5 51t15 57.5t7.5 55.5t2 45.5q0 41 -3 87.5t-16.5 86t-41.5 65.5t-79 26q-32 0 -62.5 -8t-54.5 -23.5t-39 -38.5t-15 -54q0 -8 -9.5 -8t-9.5 8v116q0 7 8.5 7t10.5 -7q2 -4 4.5 -7t8.5 -3
q11 0 20.5 4t27.5 11q20 8 52.5 17t67.5 9q66 0 109 -24t68.5 -63.5t35.5 -89.5t10 -102q0 -42 -10.5 -92.5t-36 -95t-68.5 -74t-109 -29.5q-203 0 -203 198v38q0 42 23.5 62.5t50.5 20.5h84q7 0 7 -10t-7 -10h-44q-13 0 -21 -6t-8 -25v-76z" />
    <glyph glyph-name="honokhukthai" unicode="&#xe2e;" horiz-adv-x="517" 
d="M120 182q1 -26 5.5 -55.5t17 -55t35 -42.5t59.5 -17q27 0 47.5 14t35.5 36.5t24.5 51t15 57.5t7.5 55.5t2 45.5q0 41 -3 87.5t-16.5 86t-41.5 65.5t-79 26q-32 0 -62.5 -8t-54.5 -23.5t-39 -38.5t-15 -54q0 -8 -9.5 -8t-9.5 8v116q0 7 8.5 7t10.5 -7q2 -4 4.5 -7t8.5 -3
q11 0 20.5 4t27.5 11q20 8 52.5 17t67.5 9q63 0 104 -22t67 -57q17 9 17 26q0 10 -7 15t-15 10t-15 12.5t-7 23.5q0 20 15.5 30.5t31.5 10.5q23 0 37 -17t14 -36q0 -65 -61 -91q23 -39 32.5 -86.5t9.5 -97.5q0 -42 -10.5 -92.5t-36 -95t-68.5 -74t-109 -29.5
q-203 0 -203 198v38q0 42 23.5 62.5t50.5 20.5h84q7 0 7 -10t-7 -10h-44q-13 0 -21 -6t-8 -25v-76z" />
    <glyph glyph-name="paiyannoithai" unicode="&#xe2f;" horiz-adv-x="406" 
d="M341 38q0 -22 -11 -32.5t-28 -13t-37 2.5t-38 13h5.5t9.5 3.5t9.5 12t4.5 24.5v366q-16 -29 -48.5 -49t-78.5 -20q-57 0 -88 30.5t-31 78.5q0 14 5 28.5t14.5 26t23 18.5t30.5 7q18 -1 33.5 -14.5t15.5 -33.5q0 -19 -12 -28.5t-26.5 -15.5t-26.5 -11.5t-12 -15.5
q0 -13 7 -22.5t17.5 -15.5t23.5 -9t25 -3q25 0 48 9.5t41 26.5t28.5 40.5t10.5 51.5v16q0 14 9 20t22 6.5t27.5 -2t26.5 -5.5v-490z" />
    <glyph glyph-name="saraathai" unicode="&#xe30;" horiz-adv-x="304" 
d="M243 471q2 3 6 5t7.5 2t6 -2t0.5 -5q-11 -19 -23.5 -35.5t-29 -28.5t-37.5 -19t-48 -7q-19 0 -36 4.5t-30 14.5t-21 25t-8 35q0 23 13 37.5t35 14.5q18 0 32.5 -8.5t14.5 -28.5q0 -18 -6.5 -22.5t-11.5 -8.5q-17 -14 -6 -27.5t35 -13.5q8 0 21.5 2t28.5 9.5t30 20.5
t27 36zM243 130q2 3 6 5t7.5 2t6 -2t0.5 -5q-11 -19 -23.5 -35.5t-29 -28.5t-37.5 -19t-48 -7q-19 0 -36 4.5t-30 14.5t-21 25t-8 35q0 23 13 37.5t35 14.5q18 0 32.5 -8.5t14.5 -28.5q0 -18 -6.5 -22.5t-11.5 -8.5q-17 -14 -6 -27.5t35 -13.5q8 0 21.5 2t28.5 9.5t30 20.5
t27 36z" />
    <glyph glyph-name="maihanakatthai" unicode="&#xe31;" 
d="M-205 681q0 -12 -4.5 -21.5t-11.5 -16.5q8 -4 17.5 -6t21.5 -2q29 0 55.5 10.5t47 28t34.5 40t17 45.5q1 4 6.5 0.5t7.5 -5.5q-4 -30 -22.5 -58t-44.5 -49t-56 -34t-57 -13q-55 0 -80.5 21t-25.5 53q0 24 14 37.5t31 13.5q19 0 34.5 -12.5t15.5 -31.5z" />
    <glyph glyph-name="saraaathai" unicode="&#xe32;" horiz-adv-x="442" 
d="M15 529q0 7 9 7t11 -7q4 -9 16 -9q8 0 15.5 3l20.5 8q26 11 52.5 20t56.5 9q85 0 135.5 -42.5t50.5 -127.5v-390q-12 -3 -26.5 -5.5t-27.5 -1.5t-22 7t-9 20v402q0 63 -27.5 90.5t-83.5 27.5q-29 0 -56.5 -9.5t-48.5 -26t-33.5 -40t-12.5 -51.5q0 -7 -10 -7t-10 7v116z
" />
    <glyph glyph-name="saraamthai" unicode="&#xe33;" horiz-adv-x="432" 
d="M5 529q0 7 9 7t11 -7q4 -9 16 -9q8 0 15.5 3l20.5 8q26 11 52.5 20t56.5 9q85 0 135.5 -42.5t50.5 -127.5v-390q-12 -3 -26.5 -5.5t-27.5 -1.5t-22 7t-9 20v402q0 63 -27.5 90.5t-83.5 27.5q-29 0 -56.5 -9.5t-48.5 -26t-33.5 -40t-12.5 -51.5q0 -7 -10 -7t-10 7v116z
M-165 639q0 20 15 34t34 14q20 0 35.5 -14.5t15.5 -34.5t-15.5 -33.5t-35.5 -13.5q-19 0 -34 14.5t-15 33.5z" />
    <glyph glyph-name="saraithai" unicode="&#xe34;" 
d="M-458 610q-9 0 -9 10q0 40 28.5 68t90.5 28q32 0 65 -14.5t65.5 -32.5t64 -32.5t61.5 -14.5h10q7 0 7 -8.5t-7 -8.5h-6q-34 0 -64.5 9.5t-58.5 21t-54 21t-51 9.5q-31 0 -41 -15.5t-10 -30.5q0 -10 10 -10h-101z" />
    <glyph glyph-name="saraiithai" unicode="&#xe35;" 
d="M-348 716q27 0 53.5 -9t52 -21.5l50.5 -26t49 -21.5v38q0 14 6.5 19t16 5t21.5 -3.5t24 -6.5v-78q0 -7 -7 -7h-6q-34 0 -64.5 9.5t-58.5 21t-54 21t-51 9.5q-31 0 -41 -15.5t-10 -30.5q0 -10 10 -10h-101q-9 0 -9 10q0 40 28.5 68t90.5 28z" />
    <glyph glyph-name="sarauethai" unicode="&#xe36;" 
d="M-137 653q0 -11 6.5 -17.5t17.5 -6.5t18 6.5t7 17.5t-7 18t-18 7t-17.5 -7t-6.5 -18zM-350 716q25 0 50.5 -8t50 -19.5t47 -23.5t43.5 -21q-1 4 -1 6.5v3.5q0 20 14.5 35t34.5 15t35 -15t15 -35t-15 -34.5t-35 -14.5t-46 9.5t-54 21t-55.5 21t-49.5 9.5q-31 0 -41 -15.5
t-10 -30.5q0 -10 10 -10h-101q-9 0 -9 10q0 40 28 68t89 28z" />
    <glyph glyph-name="saraueethai" unicode="&#xe37;" 
d="M-348 716q32 0 63 -12t60 -28v15q0 14 6 19t15 5t20.5 -3.5t23.5 -6.5v-61l17 -6v38q0 14 6.5 19t16 5t21.5 -3.5t24 -6.5v-78q0 -7 -7 -7h-6q-34 0 -64.5 9.5t-58.5 21t-54 21t-51 9.5q-31 0 -41 -15.5t-10 -30.5q0 -10 8 -10h-99q-9 0 -9 10q0 40 28.5 68t90.5 28z" />
    <glyph glyph-name="sarauthai" unicode="&#xe38;" 
d="M-120 -199q-12 -3 -26 -5.5t-26 -1.5t-20 7t-8 20v84q0 8 -3.5 11t-8.5 3h-36q-7 0 -7 10t7 10h76q8 0 17 -0.5t17 -5t13 -15t5 -31.5v-86z" />
    <glyph glyph-name="sarauuthai" unicode="&#xe39;" 
d="M-278 -95q0 8 -3.5 11t-8.5 3h-36q-7 0 -7 10t7 10h76q8 0 17 -0.5t17 -5t13 -15t5 -31.5v-46q0 -11 8 -16t19 -5t18.5 5t7.5 16v78q0 14 8 20t20 7t26 -1.5t26 -5.5v-90q0 -31 -30.5 -40t-75.5 -9q-46 0 -76.5 9t-30.5 39v57z" />
    <glyph glyph-name="phinthuthai" unicode="&#xe3a;" 
d="M-145 -92q0 22 15.5 37t37.5 15t37 -15t15 -37t-15 -37.5t-37 -15.5t-37.5 15.5t-15.5 37.5z" />
    <glyph glyph-name="bahtthai" unicode="&#xe3f;" horiz-adv-x="497" 
d="M211 -3q-10 0 -26 0.5l-33.5 1l-33.5 1t-26 0.5h-86q-5 0 -5 10t6 10h77v510h-77q-7 0 -7 10t7 10h85q7 0 22.5 0.5t33.5 1l35 1t28 0.5v47q0 4 4.5 6.5t10.5 2.5t10.5 -2.5t4.5 -6.5v-48q31 -1 63 -6t58 -18.5t42.5 -39t16.5 -66.5q0 -34 -11.5 -56t-30 -35.5t-42 -21
t-48.5 -13.5q27 -3 55.5 -10.5t51 -23.5t37 -41.5t14.5 -64.5q0 -46 -17 -76t-45.5 -48t-66 -25.5t-77.5 -8.5v-68q0 -5 -4.5 -7.5t-10.5 -2.5t-10.5 2.5t-4.5 7.5v67zM241 285v-268q29 2 51 9.5t37 23t23 40.5t8 63q0 27 -6 51t-19 42t-33 28.5t-48 10.5h-13zM337 420
q0 30 -6.5 50.5t-18.5 33t-30 18.5t-41 8v-225q25 0 43.5 9t30 25t17 37t5.5 44zM169 20q16 -2 25 -2.5t17 -0.5v268h-42v-265zM169 305h42v227h-18q-8 0 -13.5 -0.5t-10.5 -1.5v-225z" />
    <glyph glyph-name="saraethai" unicode="&#xe40;" horiz-adv-x="190" 
d="M125 34q0 -8 3.5 -11t8.5 -3h36q7 0 7 -10t-7 -10h-76q-8 0 -18 0.5t-18.5 5t-14.5 15t-6 31.5v498q12 3 26.5 5.5t27.5 2t22 -6.5t9 -20v-497z" />
    <glyph glyph-name="saraaethai" unicode="&#xe41;" horiz-adv-x="375" 
d="M125 34q0 -8 3.5 -11t8.5 -3h36q7 0 7 -10t-7 -10h-76q-8 0 -18 0.5t-18.5 5t-14.5 15t-6 31.5v498q12 3 26.5 5.5t27.5 2t22 -6.5t9 -20v-497zM310 34q0 -8 3.5 -11t8.5 -3h36q7 0 7 -10t-7 -10h-76q-8 0 -18 0.5t-18.5 5t-14.5 15t-6 31.5v498q12 3 26.5 5.5t27.5 2
t22 -6.5t9 -20v-497z" />
    <glyph glyph-name="saraothai" unicode="&#xe42;" horiz-adv-x="217" 
d="M152 34q0 -8 3.5 -11t8.5 -3h36q7 0 7 -10t-7 -10h-76q-8 0 -18 0.5t-18.5 5t-14.5 15t-6 31.5v629q0 8 -4 9.5t-9 1.5h-84q0 49 16 88t45 65.5t69 40.5t87 14q25 0 48 -6.5t43 -14t35 -14t23 -6.5t11.5 3t4.5 5q2 10 11 10.5t9 -10.5v-116q0 -11 -10 -10.5t-10 10.5
q0 32 -12.5 56t-34 39.5t-49.5 23.5t-59 8q-26 0 -51 -12t-45 -33t-32.5 -50.5t-12.5 -64.5v-6h64q6 0 19 -6.5t13 -24.5v-647z" />
    <glyph glyph-name="saraaimaimuanthai" unicode="&#xe43;" horiz-adv-x="244" 
d="M94 739q0 34 -1.5 60.5t-8.5 44.5t-22.5 27t-43.5 9q-17 0 -29 -8t-12 -18q0 -5 5 -7.5t11 -7t11 -12.5t5 -23q0 -20 -14.5 -29t-30.5 -9q-24 0 -36 16t-12 38q0 20 9.5 35t24 25t33 15t36.5 5q54 0 85.5 -22t48 -57.5t21.5 -79.5t5 -87v-620q0 -8 3.5 -11t8.5 -3h36
q7 0 7 -10t-7 -10h-76q-8 0 -18 0.5t-18.5 5t-14.5 15t-6 31.5v687z" />
    <glyph glyph-name="saraaimaimalaithai" unicode="&#xe44;" horiz-adv-x="244" 
d="M51 789h-31l-28 71q-6 15 -15.5 19t-20.5 4q-23 0 -23 -17q0 -10 6.5 -12t15 -3t15 -6t6.5 -21q0 -20 -10.5 -27.5t-23.5 -7.5q-18 0 -31.5 13.5t-13.5 33.5q0 31 24 47.5t53 16.5q20 0 32.5 -4t21 -11.5t13 -17.5l9.5 -21l22 53q31 0 51.5 -12.5t33 -35.5t17.5 -55
t5 -71v-691q0 -8 3.5 -11t8.5 -3h36q7 0 7 -10t-7 -10h-76q-8 0 -18 0.5t-18.5 5t-14.5 15t-6 31.5v681v29.5t-0.5 45.5t-2 44t-5.5 26z" />
    <glyph glyph-name="lakkhangyaothai" unicode="&#xe45;" horiz-adv-x="442" 
d="M15 529q0 7 9 7t11 -7q4 -9 16 -9q8 0 15.5 3l20.5 8q26 11 52.5 20t56.5 9q85 0 135.5 -42.5t50.5 -127.5v-590q-12 -3 -26.5 -5.5t-27.5 -1.5t-22 7t-9 20v602q0 63 -27.5 90.5t-83.5 27.5q-29 0 -56.5 -9.5t-48.5 -26t-33.5 -40t-12.5 -51.5q0 -7 -10 -7t-10 7v116z
" />
    <glyph glyph-name="maiyamokthai" unicode="&#xe46;" horiz-adv-x="300" 
d="M174 -49q0 -22 -11 -32.5t-28 -13t-37 2.5t-38 13h5.5t9.5 3.5t9.5 12t4.5 24.5v328q0 34 17 47.5t37.5 23t36.5 24.5t15 53v12q0 16 -3.5 29.5t-20.5 16.5l-32 -35q-19 20 -27 30.5t-24 10.5q-12 0 -20 -8t-8 -23q0 -9 7.5 -12t17 -5.5t17 -8t7.5 -20.5q0 -20 -11.5 -29
t-26.5 -9q-26 0 -41 14.5t-15 44.5q0 40 22 59t49 19q17 0 26.5 -5.5t26.5 -23.5l25 26q47 0 71.5 -20.5t24.5 -56.5v-13q0 -32 -13.5 -49t-29.5 -32t-29.5 -33.5t-13.5 -51.5v-313z" />
    <glyph glyph-name="maitaikhuthai" unicode="&#xe47;" 
d="M-173 778q12 0 23 3l19.5 5.5t13.5 1.5t5 -10v-5q0 -6 -1.5 -13.5t-6 -14t-13.5 -11t-23 -4.5t-27 3l-25.5 6l-25.5 6t-28 3q-14 0 -29.5 -11.5t-16.5 -40.5q-1 -32 9.5 -42t21.5 -10l17 42h46l16 -34q4 -8 10 -13.5t17 -5.5t16 5.5t5 11.5q0 5 -4.5 7.5t-10 5t-10 6.5
t-4.5 13q0 14 8 19.5t17 5.5q14 0 23.5 -9t9.5 -25q0 -23 -15.5 -39.5t-38.5 -16.5q-27 0 -46.5 9.5t-28.5 34.5l-16 -41q-52 0 -74 21.5t-22 57.5q0 21 8 35t21 22.5t28.5 12t30.5 3.5q20 0 38.5 -5t40.5 -5t22 11v5z" />
    <glyph glyph-name="maiekthai" unicode="&#xe48;" 
d="M-75 758q0 -14 -6.5 -19t-16 -5t-21.5 3.5t-24 6.5v42q0 14 6.5 19t16 5t21.5 -3.5t24 -6.5v-42z" />
    <glyph glyph-name="maithothai" unicode="&#xe49;" 
d="M-244 806q12 3 25 7t24 4.5t18.5 -4t7.5 -18.5v-37h4q6 0 13.5 2.5t14.5 9.5t12 20.5t5 36.5h62q-2 -26 -7.5 -42.5t-16.5 -26.5t-29 -14t-45 -4h-53q-28 0 -28 20v37q0 2 -1 5t-6 4z" />
    <glyph glyph-name="maitrithai" unicode="&#xe4a;" 
d="M-78 802q-5 0 -5 6.5t5 6.5h26q5 0 5.5 -4.5t0.5 -8.5l-2 -4l-30 -58h-63q0 7 -1.5 16.5t-4 18.5t-6.5 15t-10 6l-17 -47h-43l-15 40q-4 9 -9 12t-12 3q-13 0 -13 -12q0 -3 3.5 -6t9.5 -3q7 0 12.5 -5.5t5.5 -14.5q0 -14 -9 -20.5t-21 -6.5q-13 0 -23 10t-10 26
q0 23 17 35.5t42 12.5q21 0 37.5 -6t22.5 -25l11 27q5 2 9.5 3t9.5 1q22 1 43 -14.5t30 -40.5l16 33q2 4 -2 4h-10z" />
    <glyph glyph-name="maichattawathai" unicode="&#xe4b;" 
d="M-75 757q0 -14 -6.5 -19t-16 -5t-21.5 3.5t-24 6.5v21h-30q-3 0 -5 4.5t-2 10.5t2 10.5t5 4.5h30v8q0 14 6.5 19t16 5t21.5 -3.5t24 -6.5v-22h30q3 0 5 -4.5t2 -10.5t-2 -10.5t-5 -4.5h-30v-7z" />
    <glyph glyph-name="thanthakhatthai" unicode="&#xe4c;" 
d="M-12 827q-12 -23 -27.5 -37.5t-47.5 -22.5q16 -11 16 -27q0 -14 -10 -24.5t-25 -10.5q-14 0 -25.5 10t-11.5 26q0 18 11.5 31t44.5 18q29 3 42.5 16t21.5 30q3 -3 8.5 -3.5t2.5 -5.5z" />
    <glyph glyph-name="nikhahitthai" unicode="&#xe4d;" 
d="M-137 651q0 -11 8 -18t18 -7t17.5 7t7.5 18t-7.5 18.5t-17.5 7.5t-18 -7.5t-8 -18.5zM-163 652q0 22 15.5 37.5t37.5 15.5t37 -15.5t15 -37.5t-15 -37t-37 -15t-37.5 15t-15.5 37z" />
    <glyph glyph-name="yamakkanthai" unicode="&#xe4e;" 
d="M-58 808q7 -3 9 -8t-2 -4q-15 4 -26 6t-28 2q-35 0 -50 -19.5t-15 -47.5q0 -20 10 -28t18 -8q5 0 5 -6t-5 -6q-25 0 -38 -13t-13 -43q1 -14 8.5 -26t24.5 -13q12 -1 23.5 5.5t11.5 21.5q0 7 -7 9.5t-7 15.5q0 11 7.5 15t15.5 4t14.5 -7t6.5 -16q0 -22 -20.5 -42
t-57.5 -20q-12 0 -26 3t-26 9.5t-19.5 18.5t-7.5 30q0 16 7.5 26.5t20 17t28.5 9t34 2.5q-20 0 -38 12t-18 39q0 22 12 35.5t29.5 20.5t38 9t37.5 2q10 0 19.5 -1.5t23.5 -4.5z" />
    <glyph glyph-name="fongmanthai" unicode="&#xe4f;" horiz-adv-x="483" 
d="M241 180q-37 0 -69 13.5t-56 37.5t-37.5 56t-13.5 69t14 69t38 56t56 37.5t68 13.5q35 0 67 -13.5t56.5 -37t39 -56t14.5 -69.5t-13.5 -69t-37.5 -56t-56.5 -37.5t-69.5 -13.5zM391 356q0 31 -12 58.5t-32 47.5t-47.5 32t-58.5 12t-58.5 -12t-47.5 -32t-32 -47.5
t-12 -58.5t11 -58t31 -47.5t47.5 -32.5t60.5 -12t60.5 12t47.5 32.5t31 47.5t11 58zM241 249q-23 0 -42.5 8.5t-34 22.5t-22.5 33.5t-8 42.5q0 22 8 42t22.5 34t34 22.5t42.5 8.5q22 0 42 -8.5t34.5 -22.5t23 -34t8.5 -42q0 -23 -8.5 -42.5t-23 -33.5t-34.5 -22.5t-42 -8.5z
" />
    <glyph glyph-name="zerothai" unicode="&#xe50;" horiz-adv-x="498" 
d="M35 202q0 52 16.5 91.5t44.5 66t66 40t81 13.5q41 0 78.5 -13.5t65.5 -40t44.5 -66t16.5 -91.5q0 -53 -16.5 -92.5t-44.5 -65.5t-65.5 -39t-78.5 -13q-42 0 -80 13t-66.5 39t-45 65.5t-16.5 92.5zM120 202q0 -34 4 -68t17 -61t37.5 -44t64.5 -17q37 0 60.5 16t36.5 42.5
t18 60.5t5 71q0 34 -4.5 68t-17.5 61.5t-36.5 44.5t-61.5 17t-62 -17t-37.5 -44t-18.5 -61.5t-5 -68.5z" />
    <glyph glyph-name="onethai" unicode="&#xe51;" horiz-adv-x="498" 
d="M155 7q-7 3 -3.5 11.5t8.5 7.5q11 -4 28 -9t43 -5q43 0 69 17t40 45t18.5 63.5t4.5 73.5q0 33 -2.5 65.5t-14 58.5t-36 42t-67.5 16q-32 0 -56 -12t-39.5 -32.5t-23 -48.5t-7.5 -59q0 -54 22.5 -89t68.5 -35q15 0 27.5 8t12.5 25q0 10 -9 14.5l-20 10t-20 14.5t-9 27
q0 29 16.5 38.5t33.5 9.5q23 0 39.5 -14.5t16.5 -46.5q0 -56 -32 -86.5t-86 -30.5q-37 0 -64 15t-44.5 38t-26 50t-8.5 50q0 40 15 72.5t42 55t65.5 34.5t85.5 12q41 0 78.5 -13.5t65.5 -39t44.5 -63.5t16.5 -86q0 -51 -18.5 -91.5t-49 -69t-69.5 -43.5t-80 -15
q-40 0 -76 15z" />
    <glyph glyph-name="twothai" unicode="&#xe52;" horiz-adv-x="541" 
d="M349 307h-53l-23 59q-5 14 -16 17.5t-21 3.5q-17 0 -30 -8.5t-13 -31.5q0 -12 5 -20t11 -8t9.5 1.5t6.5 3t6.5 3t11.5 1.5q17 0 24.5 -10.5t7.5 -27.5q0 -21 -14.5 -31.5t-34.5 -10.5q-32 0 -49 19t-17 57q0 39 25.5 61t70.5 22q26 0 50.5 -9.5t30.5 -31.5l5 -18l23 59
q26 0 49 -10t40 -27t27 -40t10 -49v-157q0 -44 -19 -69.5t-50.5 -38.5t-73 -16.5t-85.5 -3.5t-85 3.5t-73 16.5t-51 38.5t-19 69.5v329q0 32 -5.5 39.5t-7.5 7.5q56 14 77 8.5t21 -41.5v-353q0 -27 12.5 -44t32.5 -27.5t45.5 -14.5t52.5 -4t52.5 4t45.5 14.5t32.5 27.5
t12.5 44v211q0 18 -9 31t-21 22z" />
    <glyph glyph-name="threethai" unicode="&#xe53;" horiz-adv-x="550" 
d="M120 62q0 -17 6 -29.5t25 -12.5q14 0 23 11.5t9 29.5q0 3 -1.5 9t-3.5 8q-2 4 7 4t13 -4q2 -2 3.5 -9t1.5 -15q0 -31 -22 -45t-49 -14q-49 0 -73 40t-24 109v133q0 66 39 100t102 34q56 0 92 -30q36 30 91 30q63 0 102 -34t39 -100v-277q-12 -3 -26.5 -5.5t-27.5 -1.5
t-22 7t-9 20v317q0 32 -17 43t-38 11t-35.5 -9.5t-14.5 -34.5v-229q-12 -3 -26.5 -5.5t-27.5 -1.5t-22 7t-9 20v209q0 25 -16 34.5t-37 9.5t-36.5 -11t-15.5 -43v-275z" />
    <glyph glyph-name="fourthai" unicode="&#xe54;" horiz-adv-x="517" 
d="M432 337q-22 1 -45 9.5t-46 18.5t-45.5 18t-43.5 8q-40 0 -66 -16.5t-41 -43.5t-21 -61t-6 -69q0 -36 5.5 -70t20.5 -60.5t41 -42.5t67 -16q28 0 45 4q-35 14 -62 42t-27 66q0 36 18.5 55t44.5 19q25 0 41 -15t16 -38q0 -22 -15 -37.5t-36 -15.5q-6 0 -14 2
q3 -18 15 -32.5t29 -24t37.5 -14.5t41.5 -5q5 0 23.5 0.5t36.5 4.5q3 1 5.5 -2t3 -6.5t-0.5 -7t-5 -4.5q-12 -3 -26.5 -4t-29.5 -1q-17 0 -30.5 1t-28.5 5q-12 -4 -37 -8t-45 -4q-42 0 -82 10t-71 34.5t-50 65.5t-19 104q0 54 17 92.5t46 63.5t67 37t80 12q24 0 44.5 -5.5
t39 -11.5l35.5 -11.5t35 -5.5q26 1 35 15t9 27q15 0 29.5 4t25.5 6.5t17.5 1.5t6.5 -11q0 -16 -4.5 -31t-14 -26.5t-26 -18.5t-40.5 -7z" />
    <glyph glyph-name="fivethai" unicode="&#xe55;" horiz-adv-x="517" 
d="M432 337q-22 1 -45 9.5t-46 18.5t-45.5 18t-43.5 8q-40 0 -66 -16.5t-41 -43.5t-21 -61t-6 -69q0 -36 5.5 -70t20.5 -60.5t41 -42.5t67 -16q28 0 45 4q-35 14 -62 42t-27 66q0 36 18.5 55t44.5 19q25 0 41 -15t16 -38q0 -22 -15 -37.5t-36 -15.5q-6 0 -14 2
q3 -18 15 -32.5t29 -24t37.5 -14.5t41.5 -5q5 0 23.5 0.5t36.5 4.5q3 1 5.5 -2t3 -6.5t-0.5 -7t-5 -4.5q-12 -3 -26.5 -4t-29.5 -1q-17 0 -30.5 1t-28.5 5q-12 -4 -37 -8t-45 -4q-42 0 -82 10t-71 34.5t-50 65.5t-19 104q0 48 14 84t38 61q-72 25 -72 96q0 19 14 36t37 17
q16 0 31.5 -10.5t15.5 -30.5q0 -16 -7 -23.5t-15 -12.5t-15 -10t-7 -15q0 -14 8.5 -20t23.5 -14q29 24 66 35.5t78 11.5q24 0 44.5 -5.5t39 -11.5l35.5 -11.5t35 -5.5q26 1 35 15t9 27q15 0 29.5 4t25.5 6.5t17.5 1.5t6.5 -11q0 -16 -4.5 -31t-14 -26.5t-26 -18.5t-40.5 -7z
" />
    <glyph glyph-name="sixthai" unicode="&#xe56;" horiz-adv-x="407" 
d="M4 446q39 0 61 -19.5t30 -40.5q9 9 31.5 17.5t51.5 8.5q32 0 65 -11.5t59.5 -36t43 -63.5t16.5 -93q0 -42 -12.5 -81t-35.5 -69t-55.5 -48t-73.5 -18q-49 0 -81.5 28.5t-32.5 80.5q0 35 19 51t41 16t36.5 -10.5t14.5 -32.5t-9.5 -29t-20.5 -10t-20.5 -7t-9.5 -20
q0 -23 16.5 -34t36.5 -11q34 0 54.5 20t31 49.5t13.5 63t3 61.5t-6 59.5t-20 58t-38 44t-61 17.5q-16 0 -34 -7.5t-32 -28.5q-5 23 -25.5 41t-59.5 18q-6 0 -8.5 5.5t-2 12.5t4 12.5t9.5 5.5z" />
    <glyph glyph-name="seventhai" unicode="&#xe57;" horiz-adv-x="548" 
d="M450 459q0 20 15.5 30.5t31.5 10.5q23 0 37 -17t14 -36q0 -68 -68 -94q20 -32 20 -76v-277q-12 -3 -26.5 -5.5t-27.5 -1.5t-22 7t-9 20v317q0 32 -17 43t-38 11t-35.5 -9.5t-14.5 -34.5v-229q-12 -3 -26.5 -5.5t-27.5 -1.5t-22 7t-9 20v209q0 25 -16 34.5t-37 9.5
t-36.5 -11t-15.5 -43v-275q0 -17 6 -29.5t25 -12.5q14 0 23 11.5t9 29.5q0 3 -1.5 9t-3.5 8q-2 4 7 4t13 -4q2 -2 3.5 -9t1.5 -15q0 -31 -22 -45t-49 -14q-49 0 -73 40t-24 109v133q0 66 39 100t102 34q56 0 92 -30q36 30 91 30q72 0 110 -43q11 5 18 11.5t7 18.5
q0 10 -7 15t-15 10t-15 12.5t-7 23.5z" />
    <glyph glyph-name="eightthai" unicode="&#xe58;" horiz-adv-x="517" 
d="M517 420q0 -16 -4.5 -31t-14 -26.5t-26 -18.5t-40.5 -7q-22 0 -44.5 8.5t-44.5 18.5t-44 18.5t-43 8.5q-42 0 -69 -16t-42.5 -42t-21.5 -59t-6 -67q0 -24 2 -52.5t11 -54.5t26.5 -48t48.5 -33l33 102h47l18 -54q10 -29 24 -41t38 -12q8 0 18 3.5t18.5 10t14 16t5.5 20.5
q0 15 -11.5 22t-24.5 13.5t-24 16.5t-11 30q0 28 18.5 39t40.5 11q32 0 48 -24.5t16 -61.5q0 -25 -10 -46.5t-27 -37.5t-39.5 -25t-48.5 -9q-36 0 -66 16t-42 54l-20 -68q-42 2 -77 17t-60 42t-39 65.5t-14 87.5q0 58 20 98t52 64t72.5 34t81.5 8q13 -1 23 -2.5t20 -4t22 -7
l31 -11.5q12 -5 21.5 -6.5t17.5 -1.5q14 0 23 4t14.5 10.5t7.5 14t2 13.5q15 0 29.5 4t25.5 6.5t17.5 1.5t6.5 -11z" />
    <glyph glyph-name="ninethai" unicode="&#xe59;" horiz-adv-x="538" 
d="M470 0q-12 -3 -26.5 -5.5t-27.5 -1.5t-22 7t-9 20q-2 23 -5.5 59t-9.5 76.5t-15.5 81.5t-25 74t-38 54t-52.5 21q-36 0 -60.5 -19t-39 -48t-20.5 -63t-6 -64q0 -26 4 -57.5t13 -58.5t24 -45.5t38 -18.5q16 0 29 6t14 27q0 12 -9 16l-19.5 8.5t-19 13.5t-8.5 31
q0 20 18 33t38 11q21 -1 42.5 -18.5t21.5 -51.5q0 -25 -8.5 -43.5t-22.5 -30t-32.5 -17t-38.5 -5.5q-41 1 -72 16.5t-52 42.5t-32 63t-11 78q0 49 16 90t43.5 70t63 45t74.5 15q40 0 71 -20q13 8 26.5 12t25.5 4q19 0 34 -7.5t28 -16l25.5 -16t27.5 -7.5q12 0 19.5 5t7.5 16
t-9 15.5l-19.5 10t-19.5 16t-9 33.5q0 19 14.5 31t31.5 12q26 0 41.5 -18.5t15.5 -41.5q0 -18 -4.5 -35.5t-13.5 -31.5t-23 -22.5t-32 -8.5q-20 0 -37.5 9t-31.5 9q-8 0 -15.5 -3t-17.5 -11q19 -18 38.5 -51.5t34.5 -78.5t24.5 -100t9.5 -116z" />
    <glyph glyph-name="angkhankhuthai" unicode="&#xe5a;" horiz-adv-x="560" 
d="M341 38q0 -22 -11 -32.5t-28 -13t-37 2.5t-38 13h5.5t9.5 3.5t9.5 12t4.5 24.5v366q-16 -29 -48.5 -49t-78.5 -20q-57 0 -88 30.5t-31 78.5q0 14 5 28.5t14.5 26t23 18.5t30.5 7q18 -1 33.5 -14.5t15.5 -33.5q0 -19 -12 -28.5t-26.5 -15.5t-26.5 -11.5t-12 -15.5
q0 -13 7 -22.5t17.5 -15.5t23.5 -9t25 -3q25 0 48 9.5t41 26.5t28.5 40.5t10.5 51.5v16q0 14 9 20t22 6.5t27.5 -2t26.5 -5.5v-490zM410 509q0 14 9 20t22 6.5t27.5 -2t26.5 -5.5v-490q0 -22 -11 -32.5t-28 -13t-37 2.5t-38 13h5.5t9.5 3.5t9.5 12t4.5 24.5v461z" />
    <glyph glyph-name="khomutthai" unicode="&#xe5b;" horiz-adv-x="724" 
d="M175 377q-30 0 -50 -26t-22 -83q-1 -22 3.5 -43.5t15.5 -38.5t29 -27.5t44 -10.5q23 0 42 10t33.5 24.5t24.5 31t15 30.5l23 55l42 -74l35 71l37 -64l36 63q2 -4 5 -8q2 -4 5 -9l6 -10l17 -28q3 4 8 11.5t11 14.5t13 12t14 5q6 0 12 -3.5l13 -7.5t14 -7.5t13 -3.5
q11 0 17 4.5t12 13.5l16 -23q-6 -11 -16 -19.5t-24 -8.5q-8 0 -16.5 4t-16 9.5t-14 9.5t-11.5 4q-6 0 -13 -5.5t-14 -14t-13 -17.5t-12 -16l-32 49l-35 -60l-35 58l-34 -71l-35 51q-9 -19 -22.5 -38t-31 -34t-39.5 -24.5t-49 -9.5q-75 0 -115.5 40t-40.5 103q0 36 12 61
t31.5 40t43.5 22t48 7q19 0 39.5 -5.5t37 -16.5t27 -28t10.5 -41q0 -22 -12 -36.5t-36 -14.5q-16 0 -31 9.5t-15 30.5q0 8 3 13.5t6.5 10.5t6.5 10.5t3 14.5q0 19 -11 26.5t-28 7.5z" />
    <glyph glyph-name="saraulowthai" unicode="&#xf718;" 
d="M-65 -352q-12 -3 -26 -5.5t-26 -1.5t-20 7t-8 20v58q0 8 -3.5 11t-8.5 3h-36q-7 0 -7 10t7 10h76q8 0 17 -0.5t17 -5t13 -15t5 -31.5v-60z" />
    <glyph glyph-name="sarauulowthai" unicode="&#xf719;" 
d="M-288 -274q0 8 -3.5 11t-8.5 3h-36q-7 0 -7 10t7 10h76q8 0 18 -0.5t18.5 -5t14.5 -15t6 -31.5v-27q0 -11 8 -16t19 -5t18.5 5t7.5 16v59q0 14 9 20t22 7t27.5 -1.5t26.5 -5.5v-71q0 -15 -9 -25t-24 -15t-35.5 -7t-42.5 -2q-23 0 -43.5 2t-35.5 7t-24 14.5t-9 24.5v38z
" />
    <glyph glyph-name="phinthulowthai" unicode="&#xf71a;" 
d="M-145 -292q0 22 15.5 37t37.5 15t37 -15t15 -37t-15 -37.5t-37 -15.5t-37.5 15.5t-15.5 37.5z" />
    <glyph glyph-name="lochula.short" unicode="&#xf71d;" horiz-adv-x="629" 
d="M558 468q0 -18 -7 -29.5t-18 -19t-24 -10.5t-25 -3q33 -1 53.5 -24.5t20.5 -69.5v-176q0 -42 -6.5 -70.5t-22.5 -45.5t-43.5 -24t-69.5 -7q-68 0 -100 19q-32 -19 -99 -19q-42 0 -69.5 7t-43.5 24t-22.5 45.5t-6.5 70.5v380q0 8 -3.5 11t-8.5 3h-36q-7 0 -7 10t7 10h76
q8 0 18 -0.5t18.5 -5t14.5 -15t6 -31.5v-388q0 -32 3.5 -51t11 -29.5t18 -14t24.5 -3.5t24.5 3.5t18 14t11 29.5t3.5 51v420q0 14 9 20t22 7t27.5 -1.5t26.5 -5.5v-440q0 -32 3.5 -51t11 -29.5t18 -14t24.5 -3.5t24.5 3.5t18 14t11 29.5t3.5 51v210q0 16 -1.5 30.5
t-6.5 24.5t-16 16t-30 6h-6q-8 0 -8 10t8 10q9 -1 19.5 0t19.5 6.5t15 16.5t6 30v57q0 36 21 41.5t77 -8.5q-1 0 -3 -0.5t-4.5 -4.5t-4 -13t-1.5 -25v-49z" />
    <glyph glyph-name="saraamleft" horiz-adv-x="432" 
d="M-254 639q0 20 15 34t34 14q20 0 35.5 -14.5t15.5 -34.5t-15.5 -33.5t-35.5 -13.5q-19 0 -34 14.5t-15 33.5zM5 522q0 7 9 7t11 -7q4 -9 16 -9q8 0 15.5 3l20.5 8q26 11 52.5 20t56.5 9q85 0 135.5 -42.5t50.5 -127.5v-383q-12 -3 -26.5 -5.5t-27.5 -1.5t-22 7t-9 20v395
q0 63 -27.5 90.5t-83.5 27.5q-29 0 -56.5 -9.5t-48.5 -26t-33.5 -40t-12.5 -51.5q0 -7 -10 -7t-10 7v116z" />
    <glyph glyph-name="uni25CC" unicode="&#x25cc;" horiz-adv-x="506" 
d="M217 78q0 15 10.5 25.5t25.5 10.5t25.5 -10.5t10.5 -25.5t-10.5 -25.5t-25.5 -10.5t-25.5 10.5t-10.5 25.5zM339 129q0 15 10.5 25.5t25.5 10.5t25.5 -10.5t10.5 -25.5t-10.5 -25.5t-25.5 -10.5t-25.5 10.5t-10.5 25.5zM389 250q0 15 10.5 25.5t25.5 10.5t25.5 -10.5
t10.5 -25.5t-10.5 -25.5t-25.5 -10.5t-25.5 10.5t-10.5 25.5zM95 129q0 15 10.5 25.5t25.5 10.5t25.5 -10.5t10.5 -25.5t-10.5 -25.5t-25.5 -10.5t-25.5 10.5t-10.5 25.5zM45 250q0 15 10.5 25.5t25.5 10.5t25.5 -10.5t10.5 -25.5t-10.5 -25.5t-25.5 -10.5t-25.5 10.5
t-10.5 25.5zM339 372q0 15 10.5 25.5t25.5 10.5t25.5 -10.5t10.5 -25.5t-10.5 -25.5t-25.5 -10.5t-25.5 10.5t-10.5 25.5zM95 372q0 15 10.5 25.5t25.5 10.5t25.5 -10.5t10.5 -25.5t-10.5 -25.5t-25.5 -10.5t-25.5 10.5t-10.5 25.5zM217 422q0 15 10.5 25.5t25.5 10.5
t25.5 -10.5t10.5 -25.5t-10.5 -25.5t-25.5 -10.5t-25.5 10.5t-10.5 25.5z" />
    <glyph glyph-name="yamakkanleftthai" 
d="M-150 808q7 -3 9 -8t-2 -4q-15 4 -26 6t-28 2q-35 0 -50 -19.5t-15 -47.5q0 -20 10 -28t18 -8q5 0 5 -6t-5 -6q-25 0 -38 -13t-13 -43q1 -14 8.5 -26t24.5 -13q12 -1 23.5 5.5t11.5 21.5q0 7 -7 9.5t-7 15.5q0 11 7.5 15t15.5 4t14.5 -7t6.5 -16q0 -22 -20.5 -42
t-57.5 -20q-12 0 -26 3t-26 9.5t-19.5 18.5t-7.5 30q0 16 7.5 26.5t20 17t28.5 9t34 2.5q-20 0 -38 12t-18 39q0 22 12 35.5t29.5 20.5t38 9t37.5 2q10 0 19.5 -1.5t23.5 -4.5z" />
    <glyph glyph-name="onequarter" unicode="&#xbc;" horiz-adv-x="706" 
d="M230 -6q-5 -13 -14.5 -8.5t-6.5 14.5l269 714q3 6 7 7.5t7.5 0t5.5 -5.5t1 -8zM375 144q-1 -2 -2.5 -8t9.5 -6h134v163q7 1 17.5 3t20 1.5t16 -4t6.5 -12.5v-151h58q7 0 7 -9t-7 -9h-58v-111q-8 -2 -18 -3.5t-19.5 -1t-16 4t-6.5 12.5v99h-175l33 72.5t39.5 78.5
t45.5 79.5t50 75.5q11 16 24 30.5t38 14.5q7 0 18 -2.5t11 -10.5q0 -7 -11.5 -17.5t-35.5 -36.5q-36 -36 -63 -69t-48 -64t-37 -60.5t-30 -58.5zM136 648q-2 -2 -11 -7l-21 -12t-25.5 -14t-24.5 -12q-7 -3 -12 5.5t3 13.5q45 23 79 44.5t66 53.5h15v-445h65q7 0 7 -9t-7 -9
h-193q-7 0 -7 9t7 9h68v369q0 9 -9 4z" />
    <glyph glyph-name="onehalf" unicode="&#xbd;" horiz-adv-x="769" 
d="M230 -6q-5 -13 -14.5 -8.5t-6.5 14.5l269 714q3 6 7 7.5t7.5 0t5.5 -5.5t1 -8zM136 648q-2 -2 -11 -7l-21 -12t-25.5 -14t-24.5 -12q-7 -3 -12 5.5t3 13.5q45 23 79 44.5t66 53.5h15v-445h65q7 0 7 -9t-7 -9h-193q-7 0 -7 9t7 9h68v369q0 9 -9 4zM503 61q-5 -5 -4.5 -9
t5.5 -4h108q40 0 55 18q8 9 12 21.5t8 28.5q2 6 9.5 6t7.5 -6v-116h-293v9l77 67t73 75.5t54 87t21 101.5q0 20 -4 39.5t-13.5 34.5t-25 24.5t-38.5 9.5q-12 0 -24.5 -2t-22.5 -8t-16.5 -16t-6.5 -26q0 -10 5 -15.5t5 -17.5q0 -11 -10 -18t-21 -7q-16 0 -25.5 11t-9.5 27
q0 21 12 38t30.5 28t40.5 17t43 6q29 0 55 -8t45 -24t30 -39.5t11 -53.5q0 -43 -18 -81.5t-46 -73t-62 -65.5z" />
    <glyph glyph-name="threequarters" unicode="&#xbe;" horiz-adv-x="746" 
d="M270 -6q-5 -13 -14.5 -8.5t-6.5 14.5l269 714q3 6 7 7.5t7.5 0t5.5 -5.5t1 -8zM415 144q-1 -2 -2.5 -8t9.5 -6h134v163q7 1 17.5 3t20 1.5t16 -4t6.5 -12.5v-151h58q7 0 7 -9t-7 -9h-58v-111q-8 -2 -18 -3.5t-19.5 -1t-16 4t-6.5 12.5v99h-175l33 72.5t39.5 78.5
t45.5 79.5t50 75.5q11 16 24 30.5t38 14.5q7 0 18 -2.5t11 -10.5q0 -7 -11.5 -17.5t-35.5 -36.5q-36 -36 -63 -69t-48 -64t-37 -60.5t-30 -58.5zM41 353q-2 11 5.5 14t9.5 -2q6 -42 35 -68t74 -26q28 0 46 12t28.5 30.5t14 41t3.5 43.5q0 19 -5 38.5t-15.5 35.5t-27 26
t-39.5 10q-42 0 -71 -26q-1 1 -4 3.5t-5.5 5.5t-3 5.5t2.5 4.5q6 4 13.5 7t8.5 4q27 11 51.5 19.5t42.5 20.5t29 32t11 55q0 26 -15.5 47.5t-49.5 21.5q-9 0 -20 -2.5t-21 -7.5t-16.5 -13t-6.5 -20t6.5 -18t6.5 -19t-8 -20t-19 -7q-14 0 -23.5 9.5t-9.5 24.5q0 21 9.5 37.5
t25.5 28t37 17t44 5.5q20 0 41 -5t38 -16.5t28 -30t11 -44.5t-10.5 -43.5t-26.5 -30t-34.5 -20t-34.5 -11.5q18 -1 39.5 -8.5t40 -22.5t30.5 -39.5t12 -59.5q0 -33 -13 -58.5t-34.5 -43.5t-49 -27t-56.5 -9q-48 0 -80.5 24t-44.5 75z" />
    <glyph glyph-name="questiondown" unicode="&#xbf;" horiz-adv-x="386" 
d="M308 496q0 -22 -15 -37.5t-37 -15.5t-37.5 15.5t-15.5 37.5t15.5 37t37.5 15t37 -15t15 -37zM267 110h-20q-11 20 -26 31t-41 11q-28 0 -42.5 -24.5t-20.5 -54.5t-6 -56v-30q0 -81 24 -117.5t76 -36.5q8 0 18 2t19 6.5t15 12.5t6 19q0 9 -4 16t-9.5 14.5t-9.5 15.5t-4 18
q0 18 11.5 29.5t34.5 11.5q15 0 24 -6t14.5 -15t7.5 -20t2 -21q0 -22 -11.5 -41t-30 -33.5t-42 -22.5t-47.5 -8q-35 0 -66 10t-54 31.5t-36.5 54.5t-13.5 80q0 95 36 144t101 49q23 0 40 -7t31 -21v208l15 5t9 -5v-250z" />
    <glyph glyph-name="plusminus" unicode="&#xb1;" horiz-adv-x="490" 
d="M221 344v148q0 4 4 6t9.5 2t9.5 -2t4 -6v-148h166q4 0 6 -4t2 -9t-2 -9t-6 -4h-166v-118q0 -4 -4 -6t-9.5 -2t-9.5 2t-4 6v118h-171q-4 0 -6 4t-2 9t2 9t6 4h171zM50 133q-5 0 -7.5 4t-2.5 9t2.5 9t7.5 4h364q5 0 7.5 -4t2.5 -9t-2.5 -9t-7.5 -4h-364z" />
    <glyph glyph-name="notequal" unicode="&#x2260;" horiz-adv-x="487" 
d="M169 162l57 151h-177q-5 0 -7 4.5t-2 10t2 10t7 4.5h188l45 119q3 6 8 7.5t10 0t8 -5.5t2 -8l-43 -113h146q4 0 6.5 -4.5t2.5 -10t-2.5 -10t-6.5 -4.5h-157l-57 -151h214q4 0 6.5 -4.5t2.5 -10t-2.5 -10t-6.5 -4.5h-225l-40 -107q-2 -6 -7.5 -8t-10.5 -0.5t-8.5 5.5
t-1.5 9l38 101h-109q-5 0 -7 4.5t-2 10t2 10t7 4.5h120z" />
    <glyph glyph-name="lessequal" unicode="&#x2264;" horiz-adv-x="513" 
d="M51 133q-5 0 -8 4t-3 9t3 9t8 4h387q5 0 7.5 -4t2.5 -9t-2.5 -9t-7.5 -4h-387zM133 373q-6 -2 -6 -6t6 -6l315 -130v-33l-407 169l407 169v-33z" />
    <glyph glyph-name="greaterequal" unicode="&#x2265;" horiz-adv-x="513" 
d="M50 133q-5 0 -7.5 4t-2.5 9t2.5 9t7.5 4h387q5 0 7.5 -4t2.5 -9t-2.5 -9t-7.5 -4h-387zM40 503v33l407 -169l-407 -169v33l315 130q6 2 6 6t-6 6z" />
    <glyph glyph-name="Euro" unicode="&#x20ac;" horiz-adv-x="607" 
d="M83 345q21 100 92 155.5t174 55.5q21 0 46.5 -6t51 -15.5t48 -22t37.5 -25.5v-98q0 -6 -8 -3t-12 3l-9 30t-9 28q-19 47 -59 68t-93 21q-45 0 -76 -15.5t-51 -42t-31.5 -61t-15.5 -72.5h289l-15 -50h-278v-35h271l-15 -50h-255q3 -40 12 -77t29 -65.5t52.5 -46
t83.5 -17.5q43 0 73.5 11.5t51.5 32t33.5 49t21.5 63.5q4 0 12 3t8 -3v-118q-20 -12 -45.5 -22.5t-52 -18t-53 -12t-48.5 -4.5q-48 0 -92 15t-79 43.5t-59.5 70.5t-33.5 96h-69l14 50h51v8v9.5t1 17.5h-44l13 50h38z" />
    <glyph glyph-name="cent" unicode="&#xa2;" horiz-adv-x="540" 
d="M255 606q0 4 4.5 6.5t10.5 2.5t10.5 -2.5t4.5 -6.5v-47h4q28 0 60.5 -8t60.5 -25.5t46.5 -43.5t18.5 -62q0 -28 -15 -52.5t-45 -24.5q-9 0 -19 2.5t-18.5 8t-14.5 14.5t-6 23q0 13 3.5 22.5t8 17.5t8 16.5t3.5 19.5q0 17 -9.5 30.5t-23 22.5t-29.5 14t-29 5h-4v-525
q24 0 48 5.5t45.5 20t40 40t31.5 66.5q1 7 4 7.5t6.5 -1.5t6.5 -5t5 -4q-21 -67 -67.5 -108.5t-119.5 -42.5v-56q0 -5 -4.5 -7.5t-10.5 -2.5t-10.5 2.5t-4.5 7.5v57q-51 4 -94 22.5t-74.5 52.5t-49 84.5t-17.5 117.5q0 60 16.5 110t47 87.5t74 60.5t97.5 29v49zM127 266
q0 -35 3.5 -75.5t16.5 -77t38.5 -63.5t69.5 -34v520q-45 -8 -70.5 -35.5t-38 -65t-16 -82t-3.5 -87.5z" />
    <glyph glyph-name="sterling" unicode="&#xa3;" horiz-adv-x="480" 
d="M195 248q0 -46 -22 -83t-57 -68q8 1 14 1h14q30 -1 57.5 -12.5t53.5 -25t50.5 -24.5t48.5 -11q29 0 40 15.5t11 35.5q0 7 -3 12.5t-6.5 11t-6.5 11t-3 13.5q0 17 10 28t30 11q16 0 25 -12t9 -26q0 -29 -12.5 -55.5t-34.5 -46.5t-52.5 -31.5t-66.5 -11.5q-38 0 -68.5 13.5
t-54.5 29l-43 27t-34 6.5q-9 -3 -12.5 -12l-7 -18.5t-10.5 -17.5t-23 -8q-12 0 -19 12t5 33q15 22 29.5 34t26.5 27t19.5 39t7.5 70q0 9 -0.5 17t-0.5 16h-109v50h103q-2 14 -3 28t-1 32q0 35 16 71t43 64.5t63 46.5t75 18q10 0 27.5 -3t34.5 -9.5t29 -18t12 -27.5
q0 -6 -1.5 -13.5t-6 -14t-11.5 -11.5t-19 -5q-17 0 -28 9.5t-21.5 21t-22.5 21t-32 9.5q-47 0 -62.5 -28.5t-15.5 -74.5q0 -17 4.5 -50.5t7.5 -65.5h169v-50h-165z" />
    <glyph glyph-name="yen" unicode="&#xa5;" horiz-adv-x="601" 
d="M305 334q11 -16 22 1l130 203h-60q-7 0 -7 10t7 10h147q7 0 7 -10t-7 -10h-60l-153 -240h154v-50h-156v-41h156v-50h-156v-137h60q7 0 7 -10t-7 -10h-206q-7 0 -7 10t7 10h60v137h-155v50h155v41h-155v50h142l-163 240h-60q-7 0 -7 10t7 10h219q7 0 7 -10t-7 -10h-60z
" />
    <glyph glyph-name="ff" unicode="&#xfb00;" horiz-adv-x="547" 
d="M542 464q7 0 7 -10t-7 -10h-123v-444q-12 -3 -26.5 -5.5t-27.5 -1.5t-22 7t-9 20v424h-150v-444q-12 -3 -26.5 -5.5t-27.5 -1.5t-22 7t-9 20v424h-77q-7 0 -7 10t7 10h77v32q0 111 50.5 170.5t141.5 59.5q27 0 58 -11.5t49 -34.5q49 46 127 46q19 0 41 -5.5t40.5 -17
t30.5 -28.5t12 -41q0 -20 -11.5 -37.5t-34.5 -17.5q-15 0 -31.5 7t-16.5 29q0 12 3 20t6.5 14t6.5 12t3 15q0 21 -17.5 28.5t-37.5 7.5q-28 0 -47 -11.5t-31 -31.5t-17 -46.5t-5 -57.5v-101h123zM334 464v32q0 46 10 83t25 66q8 15 0 27.5t-23 21.5t-32.5 13.5t-28.5 4.5
q-28 0 -47.5 -11.5t-31.5 -31.5t-17 -46.5t-5 -57.5v-101h150z" />
    <glyph glyph-name="fi" unicode="&#xfb01;" horiz-adv-x="484" 
d="M419 0q-12 -3 -26.5 -5.5t-27.5 -1.5t-22 7t-9 20v410q0 8 -3.5 11t-8.5 3h-138v-444q-12 -3 -26.5 -5.5t-27.5 -1.5t-22 7t-9 20v424h-77q-7 0 -7 10t7 10h77v32q0 111 50.5 170.5t141.5 59.5q19 0 41.5 -5.5t41.5 -17t31.5 -28.5t12.5 -41q0 -20 -11.5 -37.5
t-34.5 -17.5q-15 0 -31.5 7t-16.5 29q0 12 3 20t6.5 14t6.5 12t3 15q0 21 -19 28.5t-39 7.5q-28 0 -47.5 -11.5t-31.5 -31.5t-17 -46.5t-5 -57.5v-101h178q8 0 18 -0.5t18.5 -5t14.5 -15t6 -31.5v-412z" />
    <glyph glyph-name="fl" unicode="&#xfb02;" horiz-adv-x="484" 
d="M419 0q-12 -3 -26.5 -5.5t-27.5 -1.5t-22 7t-9 20v656q0 14 -15 25t-35 11q-28 0 -47 -11.5t-31 -31.5t-17 -46.5t-5 -57.5v-101h123q7 0 7 -10t-7 -10h-123v-444q-12 -3 -26.5 -5.5t-27.5 -1.5t-22 7t-9 20v424h-77q-7 0 -7 10t7 10h77v32q0 111 50 170.5t141 59.5
q32 0 65 -14l7 8q8 0 18 -0.5t18.5 -5t14.5 -15t6 -31.5v-668z" />
    <glyph glyph-name="ffi" unicode="&#xfb03;" horiz-adv-x="643" 
d="M654 0q-12 -3 -26.5 -5.5t-27.5 -1.5t-22 7t-9 20v410q0 8 -3.5 11t-8.5 3h-138v-444q-12 -3 -26.5 -5.5t-27.5 -1.5t-22 7t-9 20v424h-150v-444q-12 -3 -26.5 -5.5t-27.5 -1.5t-22 7t-9 20v424h-77q-7 0 -7 10t7 10h77v32q0 111 50.5 170.5t141.5 59.5q27 0 58 -11.5
t49 -34.5q49 46 128 46q19 0 41.5 -5.5t41.5 -17t31.5 -28.5t12.5 -41q0 -20 -11.5 -37.5t-34.5 -17.5q-15 0 -31.5 7t-16.5 29q0 12 3 20t6.5 14t6.5 12t3 15q0 21 -19 28.5t-39 7.5q-28 0 -47.5 -11.5t-31.5 -31.5t-17 -46.5t-5 -57.5v-101h178q8 0 18 -0.5t18.5 -5
t14.5 -15t6 -31.5v-412zM334 464v32q0 54 11 89t24 59q8 15 1 27.5t-21.5 21.5t-32.5 14t-31 5q-28 0 -47.5 -11.5t-31.5 -31.5t-17 -46.5t-5 -57.5v-101h150z" />
    <glyph glyph-name="ffl" unicode="&#xfb04;" horiz-adv-x="646" 
d="M654 0q-12 -3 -26.5 -5.5t-27.5 -1.5t-22 7t-9 20v659q-2 14 -16.5 23.5t-33.5 9.5q-28 0 -47 -11.5t-31 -31.5t-17 -46.5t-5 -57.5v-101h123q7 0 7 -10t-7 -10h-123v-444q-12 -3 -26.5 -5.5t-27.5 -1.5t-22 7t-9 20v424h-150v-444q-12 -3 -26.5 -5.5t-27.5 -1.5t-22 7
t-9 20v424h-77q-7 0 -7 10t7 10h77v32q0 111 50.5 170.5t141.5 59.5q27 0 58 -11.5t49 -34.5q49 46 127 46q32 0 65 -14l7 8q8 0 18 -0.5t18.5 -5t14.5 -15t6 -31.5v-668zM334 464v32q0 46 10 83.5t25 65.5q7 12 1 24t-19 21.5t-30.5 15.5t-35.5 6q-28 0 -47.5 -11.5
t-31.5 -31.5t-17 -46.5t-5 -57.5v-101h150z" />
    <glyph glyph-name="fj" horiz-adv-x="484" 
d="M334 430q0 8 -3.5 11t-8.5 3h-138v-444q-12 -3 -26.5 -5.5t-27.5 -1.5t-22 7t-9 20v424h-77q-7 0 -7 10t7 10h77v32q0 111 50.5 170.5t141.5 59.5q19 0 41.5 -5.5t41.5 -17t31.5 -28.5t12.5 -41q0 -20 -11.5 -37.5t-34.5 -17.5q-15 0 -31.5 7t-16.5 29q0 12 3 20t6.5 14
t6.5 12t3 15q0 21 -19 28.5t-39 7.5q-28 0 -47.5 -11.5t-31.5 -31.5t-17 -46.5t-5 -57.5v-101h178q8 0 18 -0.5t18.5 -5t14.5 -15t6 -31.5v-471q0 -43 -5 -83.5t-21 -72t-45.5 -51t-78.5 -19.5q-18 0 -37 6.5t-35.5 18t-27 28.5t-10.5 38q0 19 11.5 33.5t33.5 14.5
q15 0 27 -9t12 -26q0 -15 -5 -22t-5 -22q0 -17 12 -28t30 -11q19 0 30.5 8t17.5 21.5t8.5 29.5t2.5 33v602z" />
    <glyph glyph-name="ffj" horiz-adv-x="714" 
d="M592 464q8 0 18 -0.5t18.5 -5t14.5 -15t6 -31.5v-471q0 -43 -5 -83.5t-21 -72t-45.5 -51t-78.5 -19.5q-18 0 -37 6.5t-35.5 18t-27 28.5t-10.5 38q0 19 11.5 33.5t33.5 14.5q15 0 27 -9t12 -26q0 -15 -5 -22t-5 -22q0 -17 12 -28t30 -11q19 0 30.5 8t17.5 21.5t8.5 29.5
t2.5 33v602q0 8 -3.5 11t-8.5 3h-138v-444q-12 -3 -26.5 -5.5t-27.5 -1.5t-22 7t-9 20v424h-150v-444q-12 -3 -26.5 -5.5t-27.5 -1.5t-22 7t-9 20v424h-77q-7 0 -7 10t7 10h77v32q0 111 50.5 170.5t141.5 59.5q27 0 58 -11.5t49 -34.5q49 46 128 46q19 0 41.5 -5.5t41.5 -17
t31.5 -28.5t12.5 -41q0 -20 -11.5 -37.5t-34.5 -17.5q-15 0 -31.5 7t-16.5 29q0 12 3 20t6.5 14t6.5 12t3 15q0 21 -19 28.5t-39 7.5q-28 0 -47.5 -11.5t-31.5 -31.5t-17 -46.5t-5 -57.5v-101h178zM329 464v32q0 30 3 50.5t7.5 37t11 30.5l13.5 30t0 28.5t-21.5 21.5
t-32 13.5t-30.5 4.5q-28 0 -47.5 -11.5t-31.5 -31.5t-17 -46.5t-5 -57.5v-101h150z" />
    </font>
</defs>
</svg>
